<?xml version="1.0" standalone="no"?>
<!DOCTYPE svg PUBLIC "-//W3C//DTD SVG 1.1//EN" "http://www.w3.org/Graphics/SVG/1.1/DTD/svg11.dtd" >
<svg xmlns="http://www.w3.org/2000/svg" xmlns:xlink="http://www.w3.org/1999/xlink" version="1.1">
<metadata>
Created by FontForge 20201107 at Mon Mar  9 17:43:42 2009
 By 
Copyright (c) of UEFA 2009 by Fontsmith Ltd. All rights reserved.
</metadata>
<defs>
<font id="Champions-Bold" horiz-adv-x="506" >
  <font-face 
    font-family="Champions"
    font-weight="700"
    font-stretch="normal"
    units-per-em="1000"
    panose-1="2 0 0 0 0 0 0 0 0 0"
    ascent="750"
    descent="-250"
    x-height="476"
    cap-height="627"
    bbox="-54 -250 1288 1075"
    underline-thickness="50"
    underline-position="-100"
    unicode-range="U+0020-FB02"
  />
<missing-glyph horiz-adv-x="629" 
d="M67 693h495v-693h-495v693zM483 644h-337l169 -253zM513 94v505l-169 -252zM483 50l-168 252l-169 -252h337zM117 94l168 253l-168 252v-505z" />
    <glyph glyph-name="fi" unicode="fi" horiz-adv-x="545" 
d="M75 476v23q0 85 49.5 125t153.5 40q32 0 69.5 -5.5t69.5 -14.5l-8 -84q-29 8 -58.5 13t-48.5 5q-57 0 -83 -18t-26 -59v-25h294v-476h-118v400h-176v-400h-118v402l-77 24v50h77z" />
    <glyph glyph-name="fl" unicode="fl" horiz-adv-x="547" 
d="M75 476v23q0 85 50.5 125t156.5 40q19 0 44.5 -2.5t53 -7.5t55.5 -12t54 -16v-626h-118v569q-13 3 -33.5 6t-31.5 3q-59 0 -86 -18t-27 -59v-25h134l-22 -76h-112v-400h-118v402l-77 24v50h77z" />
    <glyph glyph-name=".notdef" horiz-adv-x="629" 
d="M67 693h495v-693h-495v693zM483 644h-337l169 -253zM513 94v505l-169 -252zM483 50l-168 252l-169 -252h337zM117 94l168 253l-168 252v-505z" />
    <glyph glyph-name=".null" horiz-adv-x="0" 
 />
    <glyph glyph-name="nonmarkingreturn" horiz-adv-x="0" 
 />
    <glyph glyph-name="space" unicode=" " horiz-adv-x="200" 
 />
    <glyph glyph-name="exclam" unicode="!" horiz-adv-x="274" 
d="M196 106v-106h-118v84zM196 640v-466h-118v444z" />
    <glyph glyph-name="quotedbl" unicode="&#x22;" horiz-adv-x="385" 
d="M167 640l-32 -239h-62l-24 239h118zM336 640l-32 -239h-62l-24 239h118z" />
    <glyph glyph-name="numbersign" unicode="#" horiz-adv-x="530" 
d="M198 656v-168h124v168h95v-168h114v-89h-114v-132h114v-89h-114v-178h-95v178h-124v-178h-95v178h-104v89h104v132h-104v89h104v168h95zM198 267h124v132h-124v-132z" />
    <glyph glyph-name="dollar" unicode="$" horiz-adv-x="500" 
d="M299 736v-97q36 -3 70.5 -12.5t61.5 -23.5l-9 -101q-30 18 -68 28.5t-72 10.5q-45 0 -71 -19t-26 -52q0 -21 17 -38q12 -12 30.5 -22t41.5 -21l40 -19q86 -41 120.5 -86.5t34.5 -106.5q0 -81 -47 -126.5t-123 -56.5v-98h-89v94q-41 3 -78 13t-73 26l8 114
q39 -23 83.5 -38t86.5 -15q47 0 79 18.5t32 56.5q0 37 -28.5 59.5t-71.5 41.5l-23 10q-30 13 -60 28t-54 36.5t-39.5 51t-15.5 70.5q0 36 11.5 65t32.5 50.5t49.5 35.5t60.5 21v86z" />
    <glyph glyph-name="percent" unicode="%" horiz-adv-x="958" 
d="M227 687q40 0 70.5 -16.5t51.5 -45t31.5 -66t10.5 -78.5t-10.5 -78.5t-31.5 -66t-51.5 -45t-70.5 -16.5t-70.5 16.5t-51.5 45t-31.5 66t-10.5 78.5t10.5 78.5t31.5 66t51.5 45t70.5 16.5zM731 395q40 0 70.5 -16.5t51.5 -45t31.5 -66t10.5 -78.5t-10.5 -78.5t-31.5 -66
t-51.5 -45t-70.5 -16.5t-70.5 16.5t-51.5 45t-31.5 66t-10.5 78.5t10.5 78.5t31.5 66t51.5 45t70.5 16.5zM645 624l-264 -639h-100l132 320q25 60 48.5 117t42.5 102q22 53 41 100h100zM731 329q-32 0 -51 -35t-19 -105t19 -105t51 -35q33 0 51.5 35t18.5 105t-18.5 105
t-51.5 35zM227 621q-32 0 -51 -35t-19 -105t19 -105t51 -35q33 0 51.5 35t18.5 105t-18.5 105t-51.5 35z" />
    <glyph glyph-name="ampersand" unicode="&#x26;" horiz-adv-x="622" 
d="M431 200q11 23 21 50t18 58l84 -24q-10 -42 -25 -79.5t-35 -69.5q20 -21 33 -33t23.5 -18t19.5 -7.5t20 -1.5h13l-24 -85l-20 -1q-38 -2 -66.5 12t-64.5 50l-4 4q-29 -28 -77 -48t-102 -20q-56 0 -96 14t-65.5 37.5t-38 53t-12.5 60.5q0 28 11 52.5t29 45t41.5 38.5
t49.5 34q-40 45 -55.5 79.5t-15.5 75.5q0 36 14 65.5t38.5 51.5t58.5 34t74 12t72.5 -12t55.5 -33.5t36 -51t13 -65.5q0 -31 -10.5 -56t-28.5 -46t-41 -38.5t-47 -32.5zM235 248q-32 -20 -53 -42.5t-21 -51.5q0 -44 28 -63t66 -19q28 0 55.5 10.5t52.5 32.5zM258 379
q38 24 65 49t27 56q0 33 -18.5 54t-53.5 21q-32 0 -52 -18t-20 -59q0 -23 11 -46.5t41 -56.5z" />
    <glyph glyph-name="quotesingle" unicode="'" horiz-adv-x="216" 
d="M167 640l-32 -239h-62l-24 239h118z" />
    <glyph glyph-name="parenleft" unicode="(" horiz-adv-x="320" 
d="M307 710q-25 -40 -44 -92t-31.5 -110.5t-19 -119.5t-6.5 -118t6.5 -118t19 -119t31.5 -110t44 -92h-98q-31 37 -55.5 88t-41 109.5t-25.5 120.5t-9 121q0 58 9 120.5t25.5 121t41 110t55.5 88.5h98z" />
    <glyph glyph-name="parenright" unicode=")" horiz-adv-x="320" 
d="M111 710q31 -37 55.5 -88.5t41 -110t25.5 -121t9 -120.5q0 -59 -9 -121t-25.5 -120.5t-41 -109.5t-55.5 -88h-98q25 40 44 92t31.5 110t19 119t6.5 118t-6.5 118t-19 119.5t-31.5 110.5t-44 92h98z" />
    <glyph glyph-name="asterisk" unicode="*" horiz-adv-x="407" 
d="M180 517l-16 110h84l-20 -110l78 72l48 -67l-105 -49l105 -49l-48 -67l-78 71l20 -109h-84l16 109l-78 -71l-49 67l105 49l-105 49l49 67z" />
    <glyph glyph-name="plus" unicode="+" horiz-adv-x="530" 
d="M313 503v-171h161v-93h-161v-171h-105v171h-151v93h151v171h105z" />
    <glyph glyph-name="comma" unicode="," horiz-adv-x="254" 
d="M186 110v-106l-68 -183h-50v267z" />
    <glyph glyph-name="hyphen" unicode="-" horiz-adv-x="344" 
d="M283 320v-95h-222v95h222z" />
    <glyph glyph-name="period" unicode="." horiz-adv-x="254" 
d="M186 111v-111h-118v88z" />
    <glyph glyph-name="slash" unicode="/" horiz-adv-x="406" 
d="M383 670l-244 -710h-116q68 198 122 355q23 67 45 130t39 114q20 58 38 111h116z" />
    <glyph glyph-name="zero" unicode="0" horiz-adv-x="530" 
d="M166 314q0 -108 23 -171t76 -63q54 0 76.5 63t22.5 171t-22.5 171t-76.5 63q-53 0 -76 -63t-23 -171zM492 314q0 -70 -14 -129.5t-42 -103t-70.5 -68.5t-100.5 -25q-57 0 -100 25t-71 68.5t-42 103t-14 129.5t14 129.5t42 103t71 68.5t100 25q58 0 100.5 -25t70.5 -68.5
t42 -103t14 -129.5z" />
    <glyph glyph-name="one" unicode="1" horiz-adv-x="530" 
d="M336 633v-530h124l-22 -103h-338v103h111v400l-100 -19v106z" />
    <glyph glyph-name="two" unicode="2" horiz-adv-x="530" 
d="M86 589q32 22 75.5 36.5t91.5 14.5q47 0 84 -12.5t62 -34t38 -51.5t13 -66q0 -42 -17 -82.5t-54 -91.5l-144 -198h239l-30 -104h-381v50q56 82 103 149q20 28 39.5 56.5t35.5 51.5t27 39.5t14 21.5q23 37 31.5 60.5t8.5 45.5q0 34 -21 54.5t-66 20.5q-18 0 -37.5 -4
t-38 -10.5t-35.5 -15.5t-30 -19z" />
    <glyph glyph-name="three" unicode="3" horiz-adv-x="530" 
d="M154 346l119 175h-209l30 106h336v-51l-130 -184q42 -2 74 -18t53.5 -42.5t32.5 -60.5t11 -73q0 -50 -18.5 -89t-50.5 -65.5t-75 -40t-91 -13.5q-45 0 -89.5 10t-77.5 32l8 93q29 -20 69 -30t73 -10q57 0 90.5 30.5t33.5 84.5q0 55 -31 86t-83 31q-10 0 -22 -2t-23 -5z
" />
    <glyph glyph-name="four" unicode="4" horiz-adv-x="530" 
d="M306 627l-123 -385h123v213l125 24v-237h95l-28 -99h-67v-143h-125v143h-268v50l142 434h126z" />
    <glyph glyph-name="five" unicode="5" horiz-adv-x="530" 
d="M471 627l-30 -106h-228l-11 -124q11 3 26.5 5t35.5 2q48 0 86 -15t64.5 -42t40.5 -65.5t14 -84.5q0 -50 -18.5 -89t-50.5 -65.5t-75 -40t-91 -13.5q-45 0 -89.5 10t-77.5 32l8 93q29 -20 69 -30t73 -10q57 0 90.5 30.5t33.5 84.5q0 55 -31 86t-83 31q-20 0 -44.5 -6.5
t-39.5 -16.5l-46 29l22 305h352z" />
    <glyph glyph-name="six" unicode="6" horiz-adv-x="530" 
d="M274 344q-45 0 -68 -31.5t-23 -100.5q0 -132 91 -132q44 0 67.5 32.5t23.5 99.5q0 69 -23 100.5t-68 31.5zM306 627l-71 -215q11 5 28 8.5t32 3.5q92 0 145 -55t53 -157q0 -46 -13.5 -86.5t-41 -71t-68.5 -48t-96 -17.5q-52 0 -93 16.5t-69 46t-42.5 70.5t-14.5 90
q0 41 9.5 83.5t29.5 96.5l87 235h125z" />
    <glyph glyph-name="seven" unicode="7" horiz-adv-x="530" 
d="M477 627v-50l-214 -577h-126l193 523h-264l32 104h379z" />
    <glyph glyph-name="eight" unicode="8" horiz-adv-x="530" 
d="M265 549q-38 0 -59 -21.5t-21 -66.5t21 -66.5t59 -21.5t59 21t21 67q0 45 -21 66.5t-59 21.5zM121 337q-27 20 -41.5 53.5t-14.5 70.5q0 43 15 76.5t42 56t63.5 34.5t79.5 12t79.5 -12t63.5 -34.5t42 -56t15 -76.5q0 -37 -16 -70.5t-40 -53.5q42 -28 58 -67.5t16 -82.5
q0 -50 -16.5 -87.5t-46 -62t-69.5 -36.5t-86 -12q-47 0 -86.5 12t-69 36.5t-46 62t-16.5 87.5q0 43 16 83t58 67zM265 294q-42 0 -66 -25t-24 -82t24 -82t66 -25t66 25t24 82t-24 82t-66 25z" />
    <glyph glyph-name="nine" unicode="9" horiz-adv-x="530" 
d="M265 549q-44 0 -67.5 -32.5t-23.5 -99.5q0 -69 23 -100.5t68 -31.5t68 31.5t23 100.5q0 132 -91 132zM360 0h-130l74 217q-11 -5 -28 -8.5t-32 -3.5q-92 0 -145 55t-53 157q0 46 13.5 86.5t41 71t68.5 48t96 17.5q52 0 93 -16.5t69 -46t42.5 -70.5t14.5 -90
q0 -41 -9.5 -83t-29.5 -97z" />
    <glyph glyph-name="colon" unicode=":" horiz-adv-x="254" 
d="M186 111v-111h-118v88zM186 416v-111h-118v88z" />
    <glyph glyph-name="semicolon" unicode=";" horiz-adv-x="254" 
d="M186 416v-111h-118v88zM186 110v-106l-68 -183h-50v267z" />
    <glyph glyph-name="less" unicode="&#x3c;" horiz-adv-x="530" 
d="M463 500v-93l-313 -122l328 -120v-95l-427 167v97z" />
    <glyph glyph-name="equal" unicode="=" horiz-adv-x="530" 
d="M469 446v-93h-407v93h407zM469 218v-93h-407v93h407z" />
    <glyph glyph-name="greater" unicode="&#x3e;" horiz-adv-x="530" 
d="M478 334v-97l-427 -167v95l328 120l-313 122v93z" />
    <glyph glyph-name="question" unicode="?" horiz-adv-x="481" 
d="M49 586q32 22 75.5 36.5t91.5 14.5q95 0 146 -43.5t51 -115.5q0 -21 -4 -40t-14 -37.5t-27 -37.5t-43 -41l-42 -36q-15 -14 -24 -23t-13.5 -18t-6 -19.5t-1.5 -25.5v-26h-115v41q0 17 2.5 30.5t10 27t21.5 28t36 33.5l36 31q31 27 43.5 50.5t12.5 46.5q0 38 -22.5 61
t-64.5 23q-18 0 -37.5 -4t-38 -10.5t-35.5 -15.5t-30 -19zM238 106v-106h-118v84z" />
    <glyph glyph-name="at" unicode="@" horiz-adv-x="797" 
d="M557 490v-215q0 -27 3 -42.5t9 -23.5t14 -10.5t17 -2.5q27 0 44 33.5t17 98.5q0 57 -20 108t-57 84q-29 26 -72 42.5t-102 16.5q-67 0 -118 -20.5t-85.5 -56.5t-52 -86t-17.5 -110q0 -47 13.5 -89t41.5 -77q34 -43 91 -67.5t142 -24.5q28 0 58.5 3.5t59 9t53.5 13
t42 16.5l15 -76q-47 -21 -110 -31.5t-123 -10.5q-202 0 -298 122q-37 46 -52.5 98t-15.5 119q0 75 24 138t69.5 109t111 72t148.5 26q76 0 132.5 -20.5t97.5 -55.5q51 -43 77.5 -106t26.5 -146q0 -97 -37 -148.5t-104 -51.5q-42 0 -66 16.5t-35 39.5q-13 -26 -43 -41
t-65 -15q-38 0 -68 13t-51.5 37t-33 57.5t-11.5 74.5q0 40 12.5 74.5t34.5 60t52.5 40t67.5 14.5q36 0 62 -11t42 -31l15 33h44zM464 415q-20 18 -55 18q-36 0 -59 -34t-23 -88q0 -60 19.5 -87.5t56.5 -27.5q16 0 30 7t22 20q5 9 7 23t2 40v129z" />
    <glyph glyph-name="A" unicode="A" horiz-adv-x="592" 
d="M336 636l247 -636h-137l-62 166h-201l-62 -166h-112l241 615zM217 261h131l-66 176z" />
    <glyph glyph-name="B" unicode="B" horiz-adv-x="557" 
d="M252 627q64 0 107.5 -10.5t70.5 -30t38.5 -49t11.5 -66.5q0 -49 -27 -82.5t-81 -43.5v-4q75 -4 115.5 -48.5t40.5 -108.5q0 -40 -13 -74t-43 -58.5t-78.5 -38t-119.5 -13.5h-207v627h185zM192 380h52q60 0 84 20t24 55t-24 54t-84 19h-52v-148zM192 99h83q63 0 90.5 22.5
t27.5 67.5t-28 67.5t-95 22.5h-78v-180z" />
    <glyph glyph-name="C" unicode="C" horiz-adv-x="553" 
d="M496 493q-32 20 -71.5 32t-81.5 12q-32 0 -62 -10t-52 -30q-33 -30 -47.5 -76.5t-14.5 -98.5q0 -109 43.5 -170t132.5 -61q51 0 91 11t74 31l10 -98q-34 -20 -85 -33t-110 -13q-69 0 -123 24.5t-91.5 68t-57 103t-19.5 129.5q0 66 19.5 125t57 103.5t92.5 71t125 26.5
q54 0 102.5 -12.5t74.5 -29.5z" />
    <glyph glyph-name="D" unicode="D" horiz-adv-x="621" 
d="M238 627q42 0 74.5 -2.5t58 -8t45.5 -13.5t38 -18q66 -40 100.5 -108.5t34.5 -162.5t-35 -163.5t-102 -107.5q-74 -43 -189 -43h-196v627h171zM192 99h65q44 0 80 10.5t67 39.5q27 26 38.5 67t11.5 101q0 42 -13 84t-37 71q-25 30 -63.5 43t-86.5 13h-62v-429z" />
    <glyph glyph-name="E" unicode="E" horiz-adv-x="489" 
d="M452 627l-30 -99h-230v-172h211l-23 -99h-188v-158h272l-23 -99h-374v627h385z" />
    <glyph glyph-name="F" unicode="F" horiz-adv-x="459" 
d="M452 627l-30 -99h-230v-172h211l-23 -99h-188v-257h-125v627h385z" />
    <glyph glyph-name="G" unicode="G" horiz-adv-x="621" 
d="M521 489q-36 25 -77 37t-86 12t-80.5 -17t-60 -47t-37.5 -70t-13 -86q0 -63 17 -106.5t43 -70t57.5 -38.5t60.5 -12q23 0 47 4t46 12v150h-104l30 99h197v-304q-13 -11 -35.5 -22.5t-51 -20.5t-61 -14.5t-64.5 -5.5q-72 0 -130.5 22.5t-100 64.5t-64 103t-22.5 138
q0 61 20.5 119t61 103.5t99.5 73t136 27.5q57 0 106 -12.5t74 -29.5z" />
    <glyph glyph-name="H" unicode="H" horiz-adv-x="626" 
d="M192 627v-271h242v271h125v-627h-125v257h-242v-257h-125v627h125z" />
    <glyph glyph-name="I" unicode="I" horiz-adv-x="263" 
d="M194 627v-627h-125v627h125z" />
    <glyph glyph-name="J" unicode="J" horiz-adv-x="372" 
d="M307 627v-449q0 -95 -40.5 -142t-131.5 -47q-11 0 -24 2t-26.5 5t-25 6.5t-18.5 6.5l-17 95q34 -10 55.5 -13.5t43.5 -3.5q30 0 44.5 16t14.5 53v471h125z" />
    <glyph glyph-name="K" unicode="K" horiz-adv-x="549" 
d="M192 627v-286l207 286h124l-205 -283l226 -344h-139l-169 255h-44v-255h-125v627h125z" />
    <glyph glyph-name="L" unicode="L" horiz-adv-x="470" 
d="M192 627v-528h259l-23 -99h-361v627h125z" />
    <glyph glyph-name="M" unicode="M" horiz-adv-x="752" 
d="M201 627l177 -345l177 345h108l30 -627h-122l-16 418l-164 -324h-43l-175 331l-16 -425h-98l25 627h117z" />
    <glyph glyph-name="N" unicode="N" horiz-adv-x="635" 
d="M153 627l308 -418v418h107v-627h-91l-303 396v-396h-107v627h86z" />
    <glyph glyph-name="O" unicode="O" horiz-adv-x="634" 
d="M317 538q-37 0 -65 -16.5t-47 -46.5t-28.5 -71t-9.5 -90t9.5 -90t28.5 -70.5t47 -46t65 -16.5t65 16.5t47 46t28.5 70.5t9.5 90t-9.5 90t-28.5 71t-47 46.5t-65 16.5zM317 640q69 0 122.5 -26t89.5 -70t54.5 -103.5t18.5 -126.5t-18.5 -126t-54.5 -103.5t-89.5 -70
t-122.5 -25.5t-122.5 25.5t-89.5 70t-54.5 103.5t-18.5 126t18.5 126.5t54.5 103.5t89.5 70t122.5 26z" />
    <glyph glyph-name="P" unicode="P" horiz-adv-x="539" 
d="M251 627q65 0 106 -10t73 -30q38 -26 60 -67t22 -95q0 -99 -60 -150.5t-175 -51.5h-85v-223h-125v627h184zM192 317h67q60 0 90.5 24.5t30.5 81.5t-30 81t-88 24h-70v-211z" />
    <glyph glyph-name="Q" unicode="Q" horiz-adv-x="638" 
d="M490 65l108 -4l5 -103l-169 23q-38 5 -73 5t-73 4q-60 6 -107.5 32t-80.5 68.5t-50.5 99t-17.5 124.5q0 67 18.5 126.5t54.5 103.5t89.5 70t122.5 26t122.5 -26t89.5 -70t54.5 -103.5t18.5 -126.5q0 -87 -29.5 -148.5t-83.5 -96.5zM317 538q-37 0 -65 -16.5t-47 -46.5
t-28.5 -71t-9.5 -90t9.5 -90t28.5 -70.5t47 -46t65 -16.5t65 16.5t47 46t28.5 70.5t9.5 90t-9.5 90t-28.5 71t-47 46.5t-65 16.5z" />
    <glyph glyph-name="R" unicode="R" horiz-adv-x="564" 
d="M229 627q144 0 208.5 -46t64.5 -143q0 -57 -24 -98t-75 -72l148 -268h-136l-122 236h-101v-236h-125v627h162zM192 330h63q57 0 86 22.5t29 76.5t-29 76.5t-86 22.5h-63v-198z" />
    <glyph glyph-name="S" unicode="S" horiz-adv-x="494" 
d="M408 502q-30 18 -68 28.5t-72 10.5q-45 0 -71 -18.5t-26 -51.5q0 -21 17 -38q12 -12 30.5 -22t41.5 -21l40 -19q86 -41 120.5 -87t34.5 -107q0 -48 -17 -83.5t-48 -58.5t-73 -34.5t-91 -11.5q-50 0 -94 10.5t-87 29.5l8 114q39 -23 83.5 -38t86.5 -15q47 0 79 18.5
t32 56.5t-28.5 60.5t-71.5 41.5l-23 10q-30 13 -60 28t-54 36.5t-39.5 51t-15.5 70.5q0 44 17.5 77t47 55.5t68 33.5t79.5 11q44 0 87 -10t76 -27z" />
    <glyph glyph-name="T" unicode="T" horiz-adv-x="533" 
d="M520 627l-13 -99h-179v-528h-125v528h-188l13 99h492z" />
    <glyph glyph-name="U" unicode="U" horiz-adv-x="625" 
d="M189 627v-389q0 -38 6 -63.5t19 -42.5t39.5 -29t61.5 -12q36 0 61 10.5t39 26.5q20 22 25 50.5t5 58.5v390h116v-391q0 -52 -10 -94.5t-35 -71.5q-29 -35 -80.5 -58t-124.5 -23q-67 0 -115 18t-79 50q-28 30 -40.5 72t-12.5 104v394h125z" />
    <glyph glyph-name="V" unicode="V" horiz-adv-x="569" 
d="M146 627l153 -437l149 437h112l-228 -627h-86l-237 627h137z" />
    <glyph glyph-name="W" unicode="W" horiz-adv-x="844" 
d="M149 627l121 -414l114 295l-40 119h137l127 -414l120 414h112l-198 -627h-86l-124 355l-142 -355h-86l-192 627h137z" />
    <glyph glyph-name="X" unicode="X" horiz-adv-x="556" 
d="M168 627l130 -221l123 221h117l-181 -309l190 -318h-142l-142 235l-131 -235h-117l191 328l-180 299h142z" />
    <glyph glyph-name="Y" unicode="Y" horiz-adv-x="533" 
d="M145 627l138 -269l134 269h112l-197 -382v-245h-125v250l-200 377h138z" />
    <glyph glyph-name="Z" unicode="Z" horiz-adv-x="494" 
d="M454 627v-53l-272 -475h287l-23 -99h-419v53l263 475h-248v99h412z" />
    <glyph glyph-name="bracketleft" unicode="[" horiz-adv-x="302" 
d="M289 710l-8 -91h-109v-707h117l-8 -91h-218v889h226z" />
    <glyph glyph-name="backslash" unicode="\" horiz-adv-x="382" 
d="M130 670q18 -53 38 -111q17 -51 39 -114t45 -130q54 -157 122 -355h-116l-244 710h116z" />
    <glyph glyph-name="bracketright" unicode="]" horiz-adv-x="434" 
d="M239 710v-889h-226l8 91h109v707h-117l8 91h218z" />
    <glyph glyph-name="asciicircum" unicode="^" horiz-adv-x="593" 
d="M345 592l159 -236h-103l-105 152l-105 -152h-103l160 236h97z" />
    <glyph glyph-name="underscore" unicode="_" horiz-adv-x="519" 
d="M494 -43v-93h-469v93h469z" />
    <glyph glyph-name="grave" unicode="`" 
d="M386 595l-41 -55l-210 103l58 87z" />
    <glyph glyph-name="a" unicode="a" horiz-adv-x="505" 
d="M79 450q35 15 79 25t97 10q18 0 39 -3t43 -10t42.5 -19t35.5 -30q19 -22 28 -56t9 -78v-289h-50l-35 62q-23 -41 -65.5 -57t-90.5 -16q-35 0 -67 9t-57 27.5t-40 46.5t-15 66q0 46 24 78t65 52.5t96 30.5t117 12q0 17 -4.5 34t-15.5 28t-30 18.5t-51 7.5t-69 -9t-77 -29z
M334 235q-87 -5 -131 -25.5t-44 -67.5q0 -32 20.5 -49.5t51.5 -17.5q42 0 72.5 21t30.5 72v67z" />
    <glyph glyph-name="b" unicode="b" horiz-adv-x="529" 
d="M174 640v-201q20 22 52 34t64 12q84 0 136 -54q34 -35 51 -84.5t17 -103.5q0 -44 -12 -89t-39 -82t-69.5 -60t-102.5 -23q-37 0 -74.5 12.5t-69.5 44.5l-21 -46h-50v618zM174 118q11 -20 35.5 -34t45.5 -14q30 0 51.5 14t34.5 37t19 54t6 64q0 27 -4 60.5t-19 59.5
q-11 20 -30 32t-44 12q-23 0 -42 -8.5t-31 -25.5q-11 -16 -16.5 -39.5t-5.5 -59.5v-152z" />
    <glyph glyph-name="c" unicode="c" horiz-adv-x="452" 
d="M412 361q-29 20 -60.5 29t-61.5 9q-55 0 -87 -35q-20 -22 -29 -55t-9 -73q0 -37 7.5 -68t23.5 -52q30 -40 90 -40q23 0 55.5 8.5t72.5 28.5l8 -89q-35 -16 -78 -25.5t-81 -9.5q-48 0 -88.5 15t-70.5 44q-33 32 -51 80t-18 105q0 51 15 96t44 79q32 37 78 57t100 20
q47 0 84 -9t64 -26z" />
    <glyph glyph-name="d" unicode="d" horiz-adv-x="532" 
d="M476 640v-640h-50l-29 60q-18 -35 -56 -53t-88 -18q-51 0 -91 17.5t-68.5 49t-43.5 76.5t-15 99q0 57 18 104t49 80t71 51.5t85 18.5q59 0 100 -20v153zM358 381q-14 11 -34 17.5t-44 6.5q-41 0 -66 -25.5t-37 -61.5q-7 -20 -10 -42.5t-3 -42.5q0 -42 6 -71t20 -51
q14 -21 34.5 -31t45.5 -10q27 0 45.5 11.5t28.5 28.5q8 12 11 32.5t3 55.5v183z" />
    <glyph glyph-name="e" unicode="e" horiz-adv-x="496" 
d="M164 209q5 -63 35.5 -98.5t94.5 -35.5q32 0 69.5 9t77.5 29l8 -89q-35 -15 -79.5 -25t-97.5 -10t-96.5 17t-74.5 50t-48.5 80.5t-17.5 107.5q0 52 16.5 96t46.5 76t71.5 50.5t90.5 18.5q51 0 89 -17t63.5 -46.5t38 -70t12.5 -86.5q0 -6 -0.5 -19.5t-2.5 -36.5h-296z
M341 288v8q0 59 -22.5 85.5t-58.5 26.5q-20 0 -36.5 -9t-31.5 -32q-20 -30 -26 -79h175z" />
    <glyph glyph-name="f" unicode="f" horiz-adv-x="342" 
d="M75 476v23q0 81 38.5 123t122.5 42q33 0 68.5 -7.5t55.5 -18.5l-9 -86q-18 10 -43.5 18t-47.5 8q-36 0 -51.5 -20t-15.5 -57v-25h134l-22 -76h-112v-400h-118v402l-77 24v50h77z" />
    <glyph glyph-name="g" unicode="g" 
d="M496 476v-50l-75 -24q27 -44 27 -97q0 -39 -14 -72.5t-40 -57.5t-63 -38t-82 -14q-36 0 -63 7l-39 -54q19 -2 46.5 -3t43.5 -2l43 -2q60 -3 95 -14.5t52 -28.5q16 -16 24.5 -41.5t6.5 -54.5q-5 -60 -56.5 -91.5t-167.5 -31.5q-63 0 -112 15q-42 14 -65 38t-23 59
q0 11 2.5 23t7.5 22l51 19q-30 9 -41 23t-11 37q0 29 33 69l41 48q-34 24 -51.5 61t-17.5 84q0 39 14.5 72t41 57t64 37.5t82.5 13.5q70 0 120 -33l21 24h105zM250 410q-36 0 -60 -25t-24 -81q0 -59 21.5 -83.5t62.5 -24.5q35 0 57.5 24.5t22.5 83.5q0 56 -22.5 81t-57.5 25
zM228 -30q-20 2 -41.5 2.5t-39.5 1.5q-4 -7 -6.5 -13.5t-2.5 -14.5q0 -32 25 -50t76 -18q34 0 56 4t35 10.5t18.5 15.5t5.5 19q0 19 -16 29t-64 12z" />
    <glyph glyph-name="h" unicode="h" horiz-adv-x="536" 
d="M174 640v-204q11 13 27.5 23t32.5 15q17 6 34.5 8.5t34.5 2.5q45 0 82 -16t60 -45q23 -30 30.5 -68.5t7.5 -100.5v-255h-118v258q0 42 -2.5 67t-16.5 44q-11 16 -29.5 23.5t-38.5 7.5t-41 -7.5t-37 -27.5q-15 -17 -20.5 -41t-5.5 -65v-259h-118v618z" />
    <glyph glyph-name="i" unicode="i" horiz-adv-x="234" 
d="M176 476v-476h-118v476h118zM176 640v-106h-118v84z" />
    <glyph glyph-name="j" unicode="j" horiz-adv-x="238" 
d="M184 476v-373q0 -48 -1.5 -81t-4.5 -56.5t-7.5 -40t-11.5 -30.5q-20 -42 -61 -65t-107 -23h-10.5t-10.5 1l-23 83h20q81 0 94 57q2 8 3 20t2 30t1 43.5v60.5v374h117zM184 640v-106h-118v84z" />
    <glyph glyph-name="k" unicode="k" horiz-adv-x="467" 
d="M174 640v-361l153 197h123l-147 -187l155 -289h-133l-114 222h-37v-222h-118v618z" />
    <glyph glyph-name="l" unicode="l" horiz-adv-x="234" 
d="M176 640v-640h-118v618z" />
    <glyph glyph-name="m" unicode="m" horiz-adv-x="811" 
d="M106 476l30 -71h1q8 13 20 25.5t23 20.5q26 18 54 26t59 8q42 0 80 -17t61 -52q27 35 66.5 52t84.5 17q42 0 77.5 -15.5t57.5 -44.5q23 -30 30.5 -69t7.5 -101v-255h-117v258q0 42 -2.5 67.5t-15.5 44.5q-11 16 -26.5 23t-34.5 7q-20 0 -39 -7.5t-34 -27.5
q-14 -18 -18.5 -43t-4.5 -67v-255h-117v258q0 42 -2.5 67.5t-15.5 44.5q-11 16 -26.5 23t-34.5 7q-20 0 -39 -7.5t-34 -27.5t-19 -48.5t-4 -81.5v-235h-118v476h50z" />
    <glyph glyph-name="n" unicode="n" horiz-adv-x="536" 
d="M106 476l33 -71h1q8 13 20 25.5t24 20.5q26 18 56.5 26t62.5 8q45 0 82 -16t60 -45q23 -30 30.5 -68.5t7.5 -100.5v-255h-118v258q0 42 -2.5 67t-16.5 44q-11 16 -29.5 23.5t-38.5 7.5t-41 -7.5t-37 -27.5q-17 -20 -21.5 -48.5t-4.5 -81.5v-235h-118v476h50z" />
    <glyph glyph-name="o" unicode="o" horiz-adv-x="542" 
d="M271 485q53 0 96.5 -18.5t74.5 -51.5t48 -78t17 -99t-17 -99.5t-48 -78.5t-74.5 -52t-96.5 -19q-54 0 -98 19t-74.5 52t-47 78.5t-16.5 99.5t16.5 99t47 78t74.5 51.5t98 18.5zM271 404q-54 0 -80.5 -43.5t-26.5 -123.5q0 -81 26.5 -124t80.5 -43q52 0 79.5 43t27.5 124
t-27.5 124t-79.5 43z" />
    <glyph glyph-name="p" unicode="p" horiz-adv-x="529" 
d="M106 476l33 -66q25 39 64.5 57t84.5 18q43 0 78.5 -13.5t61.5 -39.5q34 -35 50 -85t16 -104q0 -44 -12 -89t-39 -82t-69.5 -60t-102.5 -23q-24 0 -49 5.5t-48 16.5v-190h-118v655h50zM174 109q12 -18 36.5 -27t45.5 -9q30 0 51 13.5t34 36t19 53t6 63.5q0 27 -4 60
t-19 59q-11 20 -30 32.5t-44 12.5q-23 0 -42 -8.5t-31 -25.5q-11 -16 -16.5 -39.5t-5.5 -59.5v-161z" />
    <glyph glyph-name="q" unicode="q" horiz-adv-x="529" 
d="M473 476v-655h-118v204q-20 -19 -50 -27.5t-62 -8.5q-50 0 -89 20t-65.5 53.5t-40 77t-13.5 91.5q0 43 12.5 88.5t39.5 82t70 60t103 23.5q37 0 74.5 -12.5t69.5 -44.5l19 48h50zM355 371q-14 16 -37.5 24.5t-43.5 8.5q-30 0 -51.5 -14t-34.5 -37.5t-19 -54.5t-6 -64
q0 -23 3.5 -51t14 -53t30 -42t50.5 -17q25 0 43 7.5t29 18.5q14 14 18 31.5t4 32.5v210z" />
    <glyph glyph-name="r" unicode="r" horiz-adv-x="324" 
d="M106 476l33 -71h1q8 13 20 26.5t24 21.5q26 18 52.5 25t58.5 7q4 0 10.5 -0.5t9.5 -1.5l-8 -90q-7 1 -13 1.5t-14 0.5q-20 0 -42 -7t-38 -27q-8 -10 -13 -21t-8 -26t-4 -34.5t-1 -45.5v-234h-118v476h50z" />
    <glyph glyph-name="s" unicode="s" horiz-adv-x="409" 
d="M342 370q-32 19 -63 27t-56 8q-26 0 -46 -9t-20 -34q0 -14 11 -24.5t28.5 -20.5t39.5 -20.5t44 -23.5q19 -11 37 -24t31.5 -29.5t21.5 -37t8 -45.5q0 -26 -8 -50t-23 -43q-23 -27 -58 -41t-78 -14q-52 0 -89.5 9t-66.5 21l3 88q35 -17 70.5 -26.5t68.5 -9.5q32 0 52.5 11
t22.5 36q2 22 -16 38t-65 39l-50 25t-47 30t-35 40.5t-14 56.5q0 29 11.5 54t32.5 44t51 29.5t68 10.5q40 0 75.5 -8t62.5 -22z" />
    <glyph glyph-name="t" unicode="t" horiz-adv-x="380" 
d="M198 607v-131h144l-22 -76h-122v-248q0 -37 15.5 -57t51.5 -20q17 0 41.5 5.5t50.5 16.5l8 -84q-9 -5 -24 -9t-32 -7.5t-34.5 -5.5t-33.5 -2q-84 0 -122.5 42t-38.5 123v248l-77 24v50h77v108z" />
    <glyph glyph-name="u" unicode="u" horiz-adv-x="522" 
d="M171 476v-263q0 -29 1 -53.5t8 -42.5q16 -40 68 -40q32 0 53 13.5t32 33.5q9 17 12 36t3 41v275h118v-476h-50l-33 66q-10 -18 -26 -32q-23 -21 -58 -33t-77 -12q-49 0 -81 14t-51 37q-23 30 -30 67t-7 86v283h118z" />
    <glyph glyph-name="v" unicode="v" horiz-adv-x="468" 
d="M139 476l111 -294l100 294h105l-175 -476h-72l-195 476h126z" />
    <glyph glyph-name="w" unicode="w" horiz-adv-x="705" 
d="M139 476l90 -289l95 289h77l105 -288l81 288h105l-152 -476h-74l-110 293l-99 -293h-73l-171 476h126z" />
    <glyph glyph-name="x" unicode="x" horiz-adv-x="460" 
d="M144 476l90 -151h2l85 151h104l-135 -230l155 -246h-133l-96 161h-2l-89 -161h-105l140 240l-145 236h129z" />
    <glyph glyph-name="y" unicode="y" horiz-adv-x="497" 
d="M144 476l115 -323l107 323h116l-170 -463q-20 -54 -37 -92.5t-38.5 -64t-49.5 -37.5t-69 -12h-10t-10 1l-24 87h15q15 0 28 1.5t26.5 11t26.5 29.5t28 57l5 15l-188 467h129z" />
    <glyph glyph-name="z" unicode="z" horiz-adv-x="420" 
d="M386 476v-48l-208 -344h219l-23 -84h-339v48l207 344h-197v84h341z" />
    <glyph glyph-name="braceleft" unicode="{" horiz-adv-x="299" 
d="M271 649q-32 0 -56 -24t-24 -66q0 -17 3.5 -36t8 -38.5t8.5 -40.5t4 -43q0 -31 -7.5 -55t-20.5 -42t-29 -29t-32 -17q16 -6 32 -17t29 -29t20.5 -42t7.5 -55q0 -22 -4 -43t-8.5 -40.5t-8 -38.5t-3.5 -36q0 -42 20 -65.5t60 -23.5l-8 -61q-51 0 -85.5 11.5t-56 32
t-31 49.5t-9.5 64q0 12 3 30t6.5 37.5t6.5 39.5t3 36q0 46 -14.5 82.5t-47.5 43.5v50q33 7 47.5 43.5t14.5 82.5q0 16 -3 36t-6.5 39.5t-6.5 37.5t-3 30q0 35 9.5 64t31 50t56 32.5t85.5 11.5z" />
    <glyph glyph-name="bar" unicode="|" horiz-adv-x="228" 
d="M161 717v-929h-94v929h94z" />
    <glyph glyph-name="braceright" unicode="}" horiz-adv-x="299" 
d="M36 710q51 0 85.5 -11.5t56 -32.5t31 -50t9.5 -64q0 -12 -3 -30t-6.5 -37.5t-6.5 -39.5t-3 -36q0 -46 14.5 -82.5t47.5 -43.5v-50q-33 -7 -47.5 -43.5t-14.5 -82.5q0 -16 3 -36t6.5 -39.5t6.5 -37.5t3 -30q0 -35 -9.5 -64t-31 -49.5t-56 -32t-85.5 -11.5l-8 61
q40 0 60 23.5t20 65.5q0 17 -4 36t-8.5 38.5t-8 40.5t-3.5 43q0 31 7.5 55t20.5 42t28.5 29t32.5 17q-17 6 -32.5 17t-28.5 29t-20.5 42t-7.5 55q0 22 3.5 43t8 40.5t8.5 38.5t4 36q0 42 -24 66t-56 24z" />
    <glyph glyph-name="asciitilde" unicode="~" horiz-adv-x="593" 
d="M35 219q16 59 59.5 97.5t100.5 38.5q33 0 64.5 -11t51.5 -21t48.5 -22.5t51.5 -12.5q29 0 46 13t32 48l69 -42q-14 -54 -51 -86t-97 -32q-32 0 -60 9.5t-56 23.5q-9 4 -21.5 10t-26 11t-27 8.5t-23.5 3.5q-61 0 -92 -78z" />
    <glyph glyph-name="nonbreakingspace" unicode="&#xa0;" horiz-adv-x="200" 
 />
    <glyph glyph-name="exclamdown" unicode="&#xa1;" horiz-adv-x="274" 
d="M72.0117 364.007v105.993h117.993v-83.9951zM72.0117 -169.961v465.972h117.993v-443.973z" />
    <glyph glyph-name="cent" unicode="&#xa2;" horiz-adv-x="500" 
d="M438 361q-29 20 -60.5 29t-61.5 9q-55 0 -87 -35q-20 -22 -29 -55t-9 -73q0 -37 7.5 -68t23.5 -52q30 -40 90 -40q23 0 55.5 8.5t72.5 28.5l8 -89q-26 -11 -55.5 -19t-58.5 -13v-96h-80v96q-37 5 -68.5 18.5t-55.5 37.5q-33 32 -51 80t-18 105q0 51 15 96t44 79
q51 59 134 73v79l80 16v-93q34 -3 62 -11.5t50 -21.5z" />
    <glyph glyph-name="sterling" unicode="&#xa3;" horiz-adv-x="500" 
d="M129 348q-13 27 -21.5 45.5t-13 33.5t-6 28.5t-1.5 30.5q0 31 13.5 59t38.5 49t61 33.5t80 12.5q52 0 97.5 -9.5t69.5 -22.5l-8 -104q-33 16 -72 25t-69 9q-46 0 -64.5 -18t-18.5 -56q0 -13 4.5 -34t18.5 -65l5 -17h174l-22 -81h-135l2 -20q3 -39 -5 -72t-32 -71h249
l-30 -104h-391v50q32 27 52.5 52t32.5 48t16.5 44t4.5 41q0 15 -3 32h-1l-97 26v55h71z" />
    <glyph glyph-name="currency" unicode="&#xa4;" horiz-adv-x="624" 
d="M127 568l66 -67q24 14 53.5 22t64.5 8t64 -8t54 -22l67 67l57 -56l-64 -64q19 -26 29 -58.5t10 -70.5q0 -37 -10 -69t-28 -58l65 -65l-57 -56l-67 67q-50 -30 -120 -30t-118 30l-67 -67l-57 56l66 66q-36 51 -36 126q0 74 36 127l-65 66zM311 444q-54 0 -84 -34t-30 -91
t30 -90.5t84 -33.5q55 0 87 33.5t32 90.5t-32 91t-87 34z" />
    <glyph glyph-name="yen" unicode="&#xa5;" horiz-adv-x="500" 
d="M130 627l136 -266l131 266h112l-131 -251h83l-25 -83h-101l-20 -38v-34h146l-20 -83h-126v-138h-125v138h-136v83h136v39l-18 33h-118v83h73l-135 251h138z" />
    <glyph glyph-name="brokenbar" unicode="&#xa6;" horiz-adv-x="228" 
d="M161 147v-359h-94v359h94zM161 717v-359h-94v359h94z" />
    <glyph glyph-name="section" unicode="&#xa7;" horiz-adv-x="545" 
d="M406 507q-27 16 -60.5 25t-58.5 9q-37 0 -54 -12.5t-17 -32.5q0 -9 3 -17t11.5 -18t24.5 -22.5t42 -30.5l60 -43q18 -14 37.5 -30t35.5 -35t26.5 -41.5t10.5 -48.5q0 -31 -22 -65t-70 -62q41 -36 54.5 -66.5t13.5 -57.5q0 -29 -11.5 -54t-34 -43.5t-56 -29.5t-77.5 -11
q-75 0 -145 29l8 89q65 -32 134 -32q40 0 57.5 12t17.5 31q0 10 -3.5 20t-14 22.5t-30 28.5t-50.5 37l-57 39q-34 24 -56.5 43.5t-36.5 38.5t-20 38.5t-6 42.5q0 31 21.5 65t69.5 62q-26 26 -35 50.5t-9 51.5q0 28 11.5 53t32.5 44t51 30t67 11q42 0 77 -8t66 -23zM212 340
q-22 -13 -33 -32.5t-11 -35.5q0 -8 2 -16t10 -18.5t23.5 -24t42.5 -32.5l25 -18l45 -33q22 13 33.5 32.5t11.5 35.5q0 17 -13 35.5t-43 40.5z" />
    <glyph glyph-name="dieresis" unicode="&#xa8;" 
d="M220 646v-100h-103v100h103zM390 646v-100h-103v100h103z" />
    <glyph glyph-name="copyright" unicode="&#xa9;" horiz-adv-x="741" 
d="M471 404q-40 26 -85 26q-41 0 -63 -28.5t-22 -82.5q0 -57 21.5 -88t68.5 -31q28 0 48.5 6t38.5 16l5 -52q-18 -12 -44.5 -19t-57.5 -7q-36 0 -65 13t-48.5 36t-30 54.5t-10.5 68.5q0 34 10.5 65t30.5 54.5t49 37t65 13.5q29 0 54 -6.5t40 -16.5zM371 568
q-56 0 -102 -18.5t-79 -51.5t-51 -79.5t-18 -102.5t18 -102.5t51 -80.5t79 -52.5t102 -18.5t102 18.5t78.5 52.5t50.5 80.5t18 102.5t-18 102.5t-50.5 79.5t-78.5 51.5t-102 18.5zM53 316q0 70 23 128.5t65 100t100.5 64.5t129.5 23q70 0 128.5 -23t100.5 -64.5t65 -100
t23 -128.5q0 -71 -23 -129.5t-65 -100.5t-100.5 -65t-128.5 -23q-71 0 -129.5 23t-100.5 65t-65 100.5t-23 129.5z" />
    <glyph glyph-name="ordfeminine" unicode="&#xaa;" horiz-adv-x="336" 
d="M60 692q21 10 44 14.5t55 4.5q64 0 92 -36q11 -12 16.5 -31.5t5.5 -44.5v-165h-32l-19 32q-11 -20 -34 -29.5t-52 -9.5q-20 0 -38.5 5t-33 15.5t-23 27t-8.5 38.5q0 42 38.5 68.5t130.5 30.5q0 20 -11 31q-6 6 -16.5 10.5t-26.5 4.5q-20 0 -39 -4.5t-44 -17.5zM202 564
q-29 -2 -47.5 -6t-28.5 -10t-13.5 -14t-3.5 -19q0 -36 38 -36q24 0 39.5 11t15.5 39v35z" />
    <glyph glyph-name="guillemotleft" unicode="&#xab;" horiz-adv-x="574" 
d="M233 446l56 -65l-131 -137l132 -137l-56 -66l-178 176v52zM449 446l56 -65l-131 -137l132 -137l-56 -66l-178 176v52z" />
    <glyph glyph-name="logicalnot" unicode="&#xac;" horiz-adv-x="593" 
d="M525 402v-258h-98v162h-359v96h457z" />
    <glyph glyph-name="uni00AD" unicode="&#xad;" horiz-adv-x="344" 
d="M283 320v-95h-222v95h222z" />
    <glyph glyph-name="registered" unicode="&#xae;" horiz-adv-x="741" 
d="M336 478q43 0 72.5 -7t47.5 -20t25.5 -31.5t7.5 -41.5q0 -55 -53 -89l79 -140h-74l-65 122h-49v-122h-66v329h75zM327 324h32q29 0 43.5 11t14.5 39t-14.5 39.5t-43.5 11.5h-32v-101zM371 568q-56 0 -102 -18.5t-79 -51.5t-51 -79.5t-18 -102.5t18 -102.5t51 -80.5
t79 -52.5t102 -18.5t102 18.5t78.5 52.5t50.5 80.5t18 102.5t-18 102.5t-50.5 79.5t-78.5 51.5t-102 18.5zM53 316q0 70 23 128.5t65 100t100.5 64.5t129.5 23q70 0 128.5 -23t100.5 -64.5t65 -100t23 -128.5q0 -71 -23 -129.5t-65 -100.5t-100.5 -65t-128.5 -23
q-71 0 -129.5 23t-100.5 65t-65 100.5t-23 129.5z" />
    <glyph glyph-name="macron" unicode="&#xaf;" 
d="M389 653l-10 -86h-260l10 86h260z" />
    <glyph glyph-name="degree" unicode="&#xb0;" horiz-adv-x="410" 
d="M204 578q-35 0 -56 -22t-21 -59t21 -59t56 -22t57 22t22 59t-22 59t-57 22zM60 497q0 31 10 57.5t29 45.5t45.5 29.5t59.5 10.5t60 -10.5t46 -29.5t29.5 -45.5t10.5 -57.5t-10.5 -57.5t-29.5 -45.5t-46 -29.5t-60 -10.5t-59.5 10.5t-45.5 29.5t-29 45.5t-10 57.5z" />
    <glyph glyph-name="plusminus" unicode="&#xb1;" horiz-adv-x="530" 
d="M313 627v-171h161v-93h-161v-171h-105v171h-151v93h151v171h105zM469 93v-93h-407v93h407z" />
    <glyph glyph-name="twosuperior" unicode="&#xb2;" horiz-adv-x="449" 
d="M86 600q23 15 52.5 25t62.5 10q65 0 101.5 -31.5t36.5 -80.5q0 -29 -11.5 -57t-37.5 -63l-97 -132h159l-20 -74h-261q0 7 -1.5 17t-1.5 17q39 56 71 102q13 19 26.5 38.5t24.5 35.5t18.5 27.5t9.5 14.5q16 25 21.5 41t5.5 31q0 23 -13 36t-44 13q-25 0 -51.5 -10
t-44.5 -24z" />
    <glyph glyph-name="threesuperior" unicode="&#xb3;" horiz-adv-x="460" 
d="M323 625v-34l-86 -127q13 0 30 -4.5t30 -12.5q25 -16 40 -46.5t15 -72.5q0 -33 -14.5 -62.5t-39.5 -48.5q-20 -14 -49 -21.5t-61 -7.5q-30 0 -61 9t-53 26l5 64q22 -16 47 -25t48 -9q39 0 62 21t23 59q0 36 -18.5 57.5t-53.5 21.5q-11 0 -18 -2.5t-15 -5.5l-25 29l81 116
h-139l20 76h232z" />
    <glyph glyph-name="acute" unicode="&#xb4;" 
d="M311 730l58 -87l-210 -103l-41 55z" />
    <glyph glyph-name="mu" unicode="&#xb5;" horiz-adv-x="527" 
d="M176 476v-180t1 -103.5t3 -51.5t5 -24q16 -40 68 -40q32 0 53 13.5t32 33.5q9 17 12 36t3 41v275h118v-476h-50l-33 66q-10 -18 -26 -32q-23 -21 -55.5 -33t-74.5 -12q-53 0 -91 22l35 -209h-118v674h118z" />
    <glyph glyph-name="paragraph" unicode="&#xb6;" horiz-adv-x="611" 
d="M558 617l-11 -81h-67v-729h-85v729h-72v-729h-85v438q-45 0 -75.5 8t-55.5 29q-26 23 -41 61t-15 88q0 114 84 159q12 7 27 12t36 8.5t49.5 5t68.5 1.5h242z" />
    <glyph glyph-name="periodcentered" unicode="&#xb7;" horiz-adv-x="254" 
d="M186 336v-111h-118v89z" />
    <glyph glyph-name="cedilla" unicode="&#xb8;" 
d="M265 5l-7 -37q49 -5 74.5 -27t25.5 -54q0 -35 -30 -57.5t-87 -22.5q-10 0 -26.5 1.5t-33.5 6.5l-11 59q20 -6 36 -8t22 -2q32 0 42.5 8t10.5 20q0 14 -10 22.5t-34 11.5q-18 2 -28 0l-13 17l13 67z" />
    <glyph glyph-name="onesuperior" unicode="&#xb9;" horiz-adv-x="290" 
d="M192 625v-433h-94v417z" />
    <glyph glyph-name="ordmasculine" unicode="&#xba;" horiz-adv-x="357" 
d="M178 658q-27 0 -43.5 -23.5t-16.5 -66.5q0 -42 16.5 -65.5t43.5 -23.5q28 0 44 23.5t16 65.5q0 43 -16 66.5t-44 23.5zM178 710q31 0 56 -11.5t43 -31t27.5 -45t9.5 -54.5t-9.5 -54.5t-27.5 -44.5t-43 -30.5t-56 -11.5t-56 11.5t-42.5 30.5t-27 44.5t-9.5 54.5t9.5 54.5
t27 45t42.5 31t56 11.5z" />
    <glyph glyph-name="guillemotright" unicode="&#xbb;" horiz-adv-x="574" 
d="M518 269v-52l-178 -176l-56 66l132 137l-131 137l56 65zM302 269v-52l-178 -176l-56 66l132 137l-131 137l56 65z" />
    <glyph glyph-name="onequarter" unicode="&#xbc;" horiz-adv-x="891" 
d="M652 429l-94 -261h91v143l91 17v-160h67l-21 -70h-46v-98h-91v98h-194v34l108 297h89zM535 624l-254 -639h-96q71 179 127 320q23 60 46 117t41 102l40 100h96zM192 625v-433h-94v417z" />
    <glyph glyph-name="onehalf" unicode="&#xbd;" horiz-adv-x="898" 
d="M514 403q23 15 52.5 25t62.5 10q65 0 101.5 -31.5t36.5 -80.5q0 -29 -11.5 -57t-37.5 -63l-97 -132h159l-20 -74h-261q0 7 -1.5 17t-1.5 17q39 56 71 102q13 19 26.5 38.5t24.5 35.5t18.5 27.5t9.5 14.5q16 25 21.5 41t5.5 31q0 23 -13 36t-44 13q-25 0 -51.5 -10
t-44.5 -24zM535 624l-254 -639h-96q71 179 127 320q23 60 46 117t41 102l40 100h96zM192 625v-433h-94v417z" />
    <glyph glyph-name="threequarters" unicode="&#xbe;" horiz-adv-x="989" 
d="M771 429l-94 -261h91v143l91 17v-160h67l-21 -70h-46v-98h-91v98h-194v34l108 297h89zM323 631v-34l-88 -127q13 0 31 -4.5t31 -12.5q25 -16 40 -46.5t15 -72.5q0 -33 -14.5 -62.5t-39.5 -48.5q-20 -14 -49 -21.5t-61 -7.5q-30 0 -61 9t-53 26l5 64q22 -16 47 -25t48 -9
q39 0 62 21t23 59q0 36 -18.5 57.5t-53.5 21.5q-11 0 -18 -2.5t-15 -5.5l-25 29l81 116h-139l20 76h232zM654 624l-254 -639h-96q71 179 127 320q23 60 46 117t41 102l40 100h96z" />
    <glyph glyph-name="questiondown" unicode="&#xbf;" horiz-adv-x="481" 
d="M426.003 -115.964q-31.998 -21.999 -75.4951 -36.498q-43.498 -14.499 -91.4941 -14.499q-94.9951 0 -145.991 43.4971q-50.9971 43.4971 -50.9971 115.493q0 20.999 4 39.9971q3.99902 18.999 13.999 37.498q9.99902 18.499 26.998 37.498t42.9971 40.9971
l41.998 35.998q14.999 13.999 23.998 22.998q9 9 13.499 17.999q4.5 9 6 19.499t1.5 25.498v25.999h114.993v-40.998q0 -16.999 -2.5 -30.498t-10 -26.998q-7.49902 -13.499 -21.498 -27.998t-35.998 -33.498l-35.998 -30.998q-30.998 -26.999 -43.4971 -50.4971
q-12.499 -23.499 -12.499 -46.4971q0 -37.998 22.498 -60.9961q22.499 -22.999 64.4961 -22.999q17.999 0 37.498 4t37.998 10.499q18.498 6.5 35.4971 15.499q16.999 9 29.999 18.999zM237.015 364.007v105.993h117.993v-83.9951z" />
    <glyph glyph-name="Agrave" unicode="&#xc0;" horiz-adv-x="592" 
d="M336 636l247 -636h-137l-62 166h-201l-62 -166h-112l241 615zM217 261h131l-66 176zM387 743l-41 -55l-210 103l58 87z" />
    <glyph glyph-name="Aacute" unicode="&#xc1;" horiz-adv-x="592" 
d="M336 636l247 -636h-137l-62 166h-201l-62 -166h-112l241 615zM217 261h131l-66 176zM348 878l58 -87l-210 -103l-41 55z" />
    <glyph glyph-name="Acircumflex" unicode="&#xc2;" horiz-adv-x="592" 
d="M336 636l247 -636h-137l-62 166h-201l-62 -166h-112l241 615zM217 261h131l-66 176zM238 853h88l122 -117l-54 -47l-112 89l-112 -89l-54 47z" />
    <glyph glyph-name="Atilde" unicode="&#xc3;" horiz-adv-x="592" 
d="M336 636l247 -636h-137l-62 166h-201l-62 -166h-112l241 615zM217 261h131l-66 176zM114 734q4 16 14.5 30.5t25.5 25.5t32.5 17.5t35.5 6.5q19 0 37 -6.5t29 -12.5q12 -6 25.5 -13.5t27.5 -7.5q37 0 56 37l54 -38q-11 -32 -41 -54.5t-68 -22.5q-20 0 -36 7t-32 15
q-11 5 -24 12t-26 7q-17 0 -32 -10.5t-26 -33.5z" />
    <glyph glyph-name="Adieresis" unicode="&#xc4;" horiz-adv-x="592" 
d="M336 636l247 -636h-137l-62 166h-201l-62 -166h-112l241 615zM217 261h131l-66 176zM249 792v-100h-103v100h103zM419 792v-100h-103v100h103z" />
    <glyph glyph-name="Aring" unicode="&#xc5;" horiz-adv-x="592" 
d="M336 636l247 -636h-137l-62 166h-201l-62 -166h-112l241 615zM217 261h131l-66 176zM283 823q-44 0 -44 -45q0 -21 11.5 -33t32.5 -12q20 0 32 12t12 33q0 22 -12 33.5t-32 11.5zM184 778q0 44 27 71t72 27t72 -27t27 -71t-27 -71t-72 -27t-72 27t-27 71z" />
    <glyph glyph-name="AE" unicode="&#xc6;" horiz-adv-x="786" 
d="M756 627l-30 -99h-229v-172h210l-23 -99h-187v-158h271l-23 -99h-364v185h-167l-89 -185h-112l304 627h439zM258 280h123v248h-10z" />
    <glyph glyph-name="Ccedilla" unicode="&#xc7;" horiz-adv-x="553" 
d="M496 493q-32 20 -71.5 32t-81.5 12q-32 0 -62 -10t-52 -30q-33 -30 -47.5 -76.5t-14.5 -98.5q0 -109 43.5 -170t132.5 -61q51 0 91 11t74 31l10 -98q-34 -20 -85 -33t-110 -13h-1l-4 -21q49 -5 74.5 -27t25.5 -54q0 -35 -30 -57.5t-87 -22.5q-10 0 -26.5 1.5t-33.5 6.5
l-11 59q20 -6 36 -8t22 -2q32 0 42.5 8t10.5 20q0 14 -10 22.5t-34 11.5q-18 2 -28 0l-13 17l10 51q-56 10 -99.5 37.5t-73.5 69.5t-45.5 96.5t-15.5 116.5q0 66 19.5 125t57 103.5t92.5 71t125 26.5q54 0 102.5 -12.5t74.5 -29.5z" />
    <glyph glyph-name="Egrave" unicode="&#xc8;" horiz-adv-x="489" 
d="M452 627l-30 -99h-230v-172h211l-23 -99h-188v-158h272l-23 -99h-374v627h385zM378 743l-41 -55l-210 103l58 87z" />
    <glyph glyph-name="Eacute" unicode="&#xc9;" horiz-adv-x="489" 
d="M452 627l-30 -99h-230v-172h211l-23 -99h-188v-158h272l-23 -99h-374v627h385zM321 878l58 -87l-210 -103l-41 55z" />
    <glyph glyph-name="Ecircumflex" unicode="&#xca;" horiz-adv-x="489" 
d="M452 627l-30 -99h-230v-172h211l-23 -99h-188v-158h272l-23 -99h-374v627h385zM209 853h88l122 -117l-54 -47l-112 89l-112 -89l-54 47z" />
    <glyph glyph-name="Edieresis" unicode="&#xcb;" horiz-adv-x="489" 
d="M452 627l-30 -99h-230v-172h211l-23 -99h-188v-158h272l-23 -99h-374v627h385zM225 792v-100h-103v100h103zM395 792v-100h-103v100h103z" />
    <glyph glyph-name="Igrave" unicode="&#xcc;" horiz-adv-x="263" 
d="M194 627v-627h-125v627h125zM255 743l-41 -55l-210 103l58 87z" />
    <glyph glyph-name="Iacute" unicode="&#xcd;" horiz-adv-x="263" 
d="M194 627v-627h-125v627h125zM201 878l58 -87l-210 -103l-41 55z" />
    <glyph glyph-name="Icircumflex" unicode="&#xce;" horiz-adv-x="263" 
d="M194 627v-627h-125v627h125zM89 853h88l122 -117l-54 -47l-112 89l-112 -89l-54 47z" />
    <glyph glyph-name="Idieresis" unicode="&#xcf;" horiz-adv-x="263" 
d="M194 627v-627h-125v627h125zM99 792v-100h-103v100h103zM269 792v-100h-103v100h103z" />
    <glyph glyph-name="Eth" unicode="&#xd0;" horiz-adv-x="621" 
d="M238 627q42 0 74.5 -2.5t58 -8t45.5 -13.5t38 -18q66 -40 100.5 -108.5t34.5 -162.5t-35 -163.5t-102 -107.5q-74 -43 -189 -43h-196v269h-70v94h70v264h171zM192 363h125v-94h-125v-170h65q44 0 80 10.5t67 39.5q27 26 38.5 67t11.5 101q0 42 -13 84t-37 71
q-25 30 -63.5 43t-86.5 13h-62v-165z" />
    <glyph glyph-name="Ntilde" unicode="&#xd1;" horiz-adv-x="635" 
d="M153 627l308 -418v418h107v-627h-91l-303 396v-396h-107v627h86zM144 730q4 16 14.5 30.5t25.5 25.5t32.5 17.5t35.5 6.5q19 0 37 -6.5t29 -12.5q12 -6 25.5 -13.5t27.5 -7.5q37 0 56 37l54 -38q-11 -32 -41 -54.5t-68 -22.5q-20 0 -36 7t-32 15q-11 5 -24 12t-26 7
q-17 0 -32 -10.5t-26 -33.5z" />
    <glyph glyph-name="Ograve" unicode="&#xd2;" horiz-adv-x="634" 
d="M317 538q-37 0 -65 -16.5t-47 -46.5t-28.5 -71t-9.5 -90t9.5 -90t28.5 -70.5t47 -46t65 -16.5t65 16.5t47 46t28.5 70.5t9.5 90t-9.5 90t-28.5 71t-47 46.5t-65 16.5zM317 640q69 0 122.5 -26t89.5 -70t54.5 -103.5t18.5 -126.5t-18.5 -126t-54.5 -103.5t-89.5 -70
t-122.5 -25.5t-122.5 25.5t-89.5 70t-54.5 103.5t-18.5 126t18.5 126.5t54.5 103.5t89.5 70t122.5 26zM448 743l-41 -55l-210 103l58 87z" />
    <glyph glyph-name="Oacute" unicode="&#xd3;" horiz-adv-x="634" 
d="M317 538q-37 0 -65 -16.5t-47 -46.5t-28.5 -71t-9.5 -90t9.5 -90t28.5 -70.5t47 -46t65 -16.5t65 16.5t47 46t28.5 70.5t9.5 90t-9.5 90t-28.5 71t-47 46.5t-65 16.5zM317 640q69 0 122.5 -26t89.5 -70t54.5 -103.5t18.5 -126.5t-18.5 -126t-54.5 -103.5t-89.5 -70
t-122.5 -25.5t-122.5 25.5t-89.5 70t-54.5 103.5t-18.5 126t18.5 126.5t54.5 103.5t89.5 70t122.5 26zM380 878l58 -87l-210 -103l-41 55z" />
    <glyph glyph-name="Ocircumflex" unicode="&#xd4;" horiz-adv-x="634" 
d="M317 538q-37 0 -65 -16.5t-47 -46.5t-28.5 -71t-9.5 -90t9.5 -90t28.5 -70.5t47 -46t65 -16.5t65 16.5t47 46t28.5 70.5t9.5 90t-9.5 90t-28.5 71t-47 46.5t-65 16.5zM317 640q69 0 122.5 -26t89.5 -70t54.5 -103.5t18.5 -126.5t-18.5 -126t-54.5 -103.5t-89.5 -70
t-122.5 -25.5t-122.5 25.5t-89.5 70t-54.5 103.5t-18.5 126t18.5 126.5t54.5 103.5t89.5 70t122.5 26zM273 853h88l122 -117l-54 -47l-112 89l-112 -89l-54 47z" />
    <glyph glyph-name="Otilde" unicode="&#xd5;" horiz-adv-x="634" 
d="M317 538q-37 0 -65 -16.5t-47 -46.5t-28.5 -71t-9.5 -90t9.5 -90t28.5 -70.5t47 -46t65 -16.5t65 16.5t47 46t28.5 70.5t9.5 90t-9.5 90t-28.5 71t-47 46.5t-65 16.5zM317 640q69 0 122.5 -26t89.5 -70t54.5 -103.5t18.5 -126.5t-18.5 -126t-54.5 -103.5t-89.5 -70
t-122.5 -25.5t-122.5 25.5t-89.5 70t-54.5 103.5t-18.5 126t18.5 126.5t54.5 103.5t89.5 70t122.5 26zM147 730q4 16 14.5 30.5t25.5 25.5t32.5 17.5t35.5 6.5q19 0 37 -6.5t29 -12.5q12 -6 25.5 -13.5t27.5 -7.5q37 0 56 37l54 -38q-11 -32 -41 -54.5t-68 -22.5
q-20 0 -36 7t-32 15q-11 5 -24 12t-26 7q-17 0 -32 -10.5t-26 -33.5z" />
    <glyph glyph-name="Odieresis" unicode="&#xd6;" horiz-adv-x="634" 
d="M317 538q-37 0 -65 -16.5t-47 -46.5t-28.5 -71t-9.5 -90t9.5 -90t28.5 -70.5t47 -46t65 -16.5t65 16.5t47 46t28.5 70.5t9.5 90t-9.5 90t-28.5 71t-47 46.5t-65 16.5zM317 640q69 0 122.5 -26t89.5 -70t54.5 -103.5t18.5 -126.5t-18.5 -126t-54.5 -103.5t-89.5 -70
t-122.5 -25.5t-122.5 25.5t-89.5 70t-54.5 103.5t-18.5 126t18.5 126.5t54.5 103.5t89.5 70t122.5 26zM283 792v-100h-103v100h103zM453 792v-100h-103v100h103z" />
    <glyph glyph-name="multiply" unicode="&#xd7;" horiz-adv-x="593" 
d="M295 348l126 121l65 -65l-126 -121l126 -121l-61 -61l-126 121l-126 -121l-65 65l126 121l-126 121l61 61z" />
    <glyph glyph-name="Oslash" unicode="&#xd8;" horiz-adv-x="636" 
d="M317 640q51 0 97 -16l29 70h66l-40 -96q66 -42 99.5 -117.5t33.5 -166.5q0 -67 -18.5 -126t-54.5 -103.5t-89.5 -70t-122.5 -25.5q-53 0 -96 15l-33 -79h-66l44 105q-66 42 -100 117t-34 167q0 67 18.5 126.5t54.5 103.5t89.5 70t122.5 26zM317 538q-37 0 -65 -16.5
t-47 -46.5t-28.5 -71t-9.5 -90q0 -54 11.5 -98t34.5 -74l160 384q-26 12 -56 12zM467 314q0 54 -11 97.5t-34 73.5l-160 -383q22 -11 55 -11q37 0 65 16.5t47 46t28.5 70.5t9.5 90z" />
    <glyph glyph-name="Ugrave" unicode="&#xd9;" horiz-adv-x="625" 
d="M189 627v-389q0 -38 6 -63.5t19 -42.5t39.5 -29t61.5 -12q36 0 61 10.5t39 26.5q20 22 25 50.5t5 58.5v390h116v-391q0 -52 -10 -94.5t-35 -71.5q-29 -35 -80.5 -58t-124.5 -23q-67 0 -115 18t-79 50q-28 30 -40.5 72t-12.5 104v394h125zM428 743l-41 -55l-210 103l58 87
z" />
    <glyph glyph-name="Uacute" unicode="&#xda;" horiz-adv-x="625" 
d="M189 627v-389q0 -38 6 -63.5t19 -42.5t39.5 -29t61.5 -12q36 0 61 10.5t39 26.5q20 22 25 50.5t5 58.5v390h116v-391q0 -52 -10 -94.5t-35 -71.5q-29 -35 -80.5 -58t-124.5 -23q-67 0 -115 18t-79 50q-28 30 -40.5 72t-12.5 104v394h125zM372 878l58 -87l-210 -103
l-41 55z" />
    <glyph glyph-name="Ucircumflex" unicode="&#xdb;" horiz-adv-x="625" 
d="M189 627v-389q0 -38 6 -63.5t19 -42.5t39.5 -29t61.5 -12q36 0 61 10.5t39 26.5q20 22 25 50.5t5 58.5v390h116v-391q0 -52 -10 -94.5t-35 -71.5q-29 -35 -80.5 -58t-124.5 -23q-67 0 -115 18t-79 50q-28 30 -40.5 72t-12.5 104v394h125zM269 853h88l122 -117l-54 -47
l-112 89l-112 -89l-54 47z" />
    <glyph glyph-name="Udieresis" unicode="&#xdc;" horiz-adv-x="625" 
d="M189 627v-389q0 -38 6 -63.5t19 -42.5t39.5 -29t61.5 -12q36 0 61 10.5t39 26.5q20 22 25 50.5t5 58.5v390h116v-391q0 -52 -10 -94.5t-35 -71.5q-29 -35 -80.5 -58t-124.5 -23q-67 0 -115 18t-79 50q-28 30 -40.5 72t-12.5 104v394h125zM280 792v-100h-103v100h103z
M450 792v-100h-103v100h103z" />
    <glyph glyph-name="Yacute" unicode="&#xdd;" horiz-adv-x="533" 
d="M145 627l138 -269l134 269h112l-197 -382v-245h-125v250l-200 377h138zM360 878l58 -87l-210 -103l-41 55z" />
    <glyph glyph-name="Thorn" unicode="&#xde;" horiz-adv-x="539" 
d="M192 656v-133h59q65 0 106 -10t73 -30q38 -26 60 -63.5t22 -91.5q0 -99 -60 -147t-175 -48h-85v-133h-125v656h125zM192 220h67q60 0 90.5 24.5t30.5 81.5t-30 81t-88 24h-70v-211z" />
    <glyph glyph-name="germandbls" unicode="&#xdf;" horiz-adv-x="583" 
d="M176 -1h-118v434q0 100 51.5 153.5t161.5 53.5q91 0 137 -40t46 -103q0 -32 -13.5 -52.5t-30 -35.5t-30 -27.5t-13.5 -28.5q0 -12 7 -22t18 -19t25 -17.5t29 -18.5q48 -31 77 -65t29 -79q0 -26 -8 -50t-23 -43q-23 -27 -58 -38.5t-78 -11.5q-44 0 -82.5 8t-73.5 22l8 89
q35 -17 67 -25t67 -8q75 0 75 43q0 9 -3 17t-11.5 16.5t-23 18.5t-36.5 24q-32 20 -53 37t-33 33.5t-16.5 34.5t-4.5 40q0 30 14 51t31 38t31 32.5t14 34.5q0 29 -21.5 46.5t-62.5 17.5q-50 0 -72.5 -25t-22.5 -82v-453z" />
    <glyph glyph-name="agrave" unicode="&#xe0;" horiz-adv-x="505" 
d="M79 450q35 15 79 25t97 10q18 0 39 -3t43 -10t42.5 -19t35.5 -30q19 -22 28 -56t9 -78v-289h-50l-35 62q-23 -41 -65.5 -57t-90.5 -16q-35 0 -67 9t-57 27.5t-40 46.5t-15 66q0 46 24 78t65 52.5t96 30.5t117 12q0 17 -4.5 34t-15.5 28t-30 18.5t-51 7.5t-69 -9t-77 -29z
M334 235q-87 -5 -131 -25.5t-44 -67.5q0 -32 20.5 -49.5t51.5 -17.5q42 0 72.5 21t30.5 72v67zM386 595l-41 -55l-210 103l58 87z" />
    <glyph glyph-name="aacute" unicode="&#xe1;" horiz-adv-x="505" 
d="M79 450q35 15 79 25t97 10q18 0 39 -3t43 -10t42.5 -19t35.5 -30q19 -22 28 -56t9 -78v-289h-50l-35 62q-23 -41 -65.5 -57t-90.5 -16q-35 0 -67 9t-57 27.5t-40 46.5t-15 66q0 46 24 78t65 52.5t96 30.5t117 12q0 17 -4.5 34t-15.5 28t-30 18.5t-51 7.5t-69 -9t-77 -29z
M334 235q-87 -5 -131 -25.5t-44 -67.5q0 -32 20.5 -49.5t51.5 -17.5q42 0 72.5 21t30.5 72v67zM331 730l58 -87l-210 -103l-41 55z" />
    <glyph glyph-name="acircumflex" unicode="&#xe2;" horiz-adv-x="505" 
d="M79 450q35 15 79 25t97 10q18 0 39 -3t43 -10t42.5 -19t35.5 -30q19 -22 28 -56t9 -78v-289h-50l-35 62q-23 -41 -65.5 -57t-90.5 -16q-35 0 -67 9t-57 27.5t-40 46.5t-15 66q0 46 24 78t65 52.5t96 30.5t117 12q0 17 -4.5 34t-15.5 28t-30 18.5t-51 7.5t-69 -9t-77 -29z
M334 235q-87 -5 -131 -25.5t-44 -67.5q0 -32 20.5 -49.5t51.5 -17.5q42 0 72.5 21t30.5 72v67zM214 706h88l122 -117l-54 -47l-112 89l-112 -89l-54 47z" />
    <glyph glyph-name="atilde" unicode="&#xe3;" horiz-adv-x="505" 
d="M79 450q35 15 79 25t97 10q18 0 39 -3t43 -10t42.5 -19t35.5 -30q19 -22 28 -56t9 -78v-289h-50l-35 62q-23 -41 -65.5 -57t-90.5 -16q-35 0 -67 9t-57 27.5t-40 46.5t-15 66q0 46 24 78t65 52.5t96 30.5t117 12q0 17 -4.5 34t-15.5 28t-30 18.5t-51 7.5t-69 -9t-77 -29z
M334 235q-87 -5 -131 -25.5t-44 -67.5q0 -32 20.5 -49.5t51.5 -17.5q42 0 72.5 21t30.5 72v67zM73 583q4 16 14.5 30.5t25.5 25.5t32.5 17.5t35.5 6.5q19 0 38 -6.5t30 -12.5l27 -13.5t29 -7.5q37 0 56 37l54 -38q-11 -32 -41 -54.5t-68 -22.5q-20 0 -37.5 7t-33.5 15
q-11 5 -25 12t-27 7q-17 0 -32 -10.5t-26 -33.5z" />
    <glyph glyph-name="adieresis" unicode="&#xe4;" horiz-adv-x="505" 
d="M79 450q35 15 79 25t97 10q18 0 39 -3t43 -10t42.5 -19t35.5 -30q19 -22 28 -56t9 -78v-289h-50l-35 62q-23 -41 -65.5 -57t-90.5 -16q-35 0 -67 9t-57 27.5t-40 46.5t-15 66q0 46 24 78t65 52.5t96 30.5t117 12q0 17 -4.5 34t-15.5 28t-30 18.5t-51 7.5t-69 -9t-77 -29z
M334 235q-87 -5 -131 -25.5t-44 -67.5q0 -32 20.5 -49.5t51.5 -17.5q42 0 72.5 21t30.5 72v67zM230 646v-100h-103v100h103zM400 646v-100h-103v100h103z" />
    <glyph glyph-name="aring" unicode="&#xe5;" horiz-adv-x="505" 
d="M79 450q35 15 79 25t97 10q18 0 39 -3t43 -10t42.5 -19t35.5 -30q19 -22 28 -56t9 -78v-289h-50l-35 62q-23 -41 -65.5 -57t-90.5 -16q-35 0 -67 9t-57 27.5t-40 46.5t-15 66q0 46 24 78t65 52.5t96 30.5t117 12q0 17 -4.5 34t-15.5 28t-30 18.5t-51 7.5t-69 -9t-77 -29z
M334 235q-87 -5 -131 -25.5t-44 -67.5q0 -32 20.5 -49.5t51.5 -17.5q42 0 72.5 21t30.5 72v67zM260 678q-44 0 -44 -45q0 -21 11.5 -33t32.5 -12q20 0 32 12t12 33q0 22 -12 33.5t-32 11.5zM161 633q0 44 27 71t72 27t72 -27t27 -71t-27 -71t-72 -27t-72 27t-27 71z" />
    <glyph glyph-name="ae" unicode="&#xe6;" horiz-adv-x="780" 
d="M79 455q29 12 75 21t93 9q109 0 156 -65q29 32 67 48.5t81 16.5q97 0 146.5 -57t49.5 -150q0 -6 -0.5 -19.5t-2.5 -36.5h-294q6 -75 45 -111t94 -36q29 0 61 9t74 29l8 -84q-35 -20 -77.5 -30t-86.5 -10q-60 0 -105 19.5t-77 54.5q-59 -74 -177 -74q-35 0 -66.5 9
t-56.5 27.5t-39.5 46.5t-14.5 66q0 36 16.5 65.5t51 51.5t87 34t123.5 12h22q0 55 -26 76.5t-81 21.5q-27 0 -65 -8t-73 -20zM308 222q-80 0 -114.5 -20.5t-34.5 -59.5q0 -32 19.5 -49.5t50.5 -17.5q42 0 72.5 21t30.5 72v54h-24zM625 301v8q0 53 -19.5 76t-59.5 23
q-33 0 -60 -26.5t-34 -80.5h173z" />
    <glyph glyph-name="ccedilla" unicode="&#xe7;" horiz-adv-x="452" 
d="M412 361q-29 20 -60.5 29t-61.5 9q-55 0 -87 -35q-20 -22 -29 -55t-9 -73q0 -37 7.5 -68t23.5 -52q30 -40 90 -40q23 0 55.5 8.5t72.5 28.5l8 -89q-35 -16 -75.5 -25t-78.5 -10l-4 -21q49 -5 74.5 -27t25.5 -54q0 -35 -30 -57.5t-87 -22.5q-10 0 -26.5 1.5t-33.5 6.5
l-11 59q20 -6 36 -8t22 -2q32 0 42.5 8t10.5 20q0 14 -10 22.5t-34 11.5q-18 2 -28 0l-13 17l10 51q-63 10 -108 54q-33 32 -51 80t-18 105q0 51 15 96t44 79q32 37 78 57t100 20q47 0 84 -9t64 -26z" />
    <glyph glyph-name="egrave" unicode="&#xe8;" horiz-adv-x="496" 
d="M164 209q5 -63 35.5 -98.5t94.5 -35.5q32 0 69.5 9t77.5 29l8 -89q-35 -15 -79.5 -25t-97.5 -10t-96.5 17t-74.5 50t-48.5 80.5t-17.5 107.5q0 52 16.5 96t46.5 76t71.5 50.5t90.5 18.5q51 0 89 -17t63.5 -46.5t38 -70t12.5 -86.5q0 -6 -0.5 -19.5t-2.5 -36.5h-296z
M341 288v8q0 59 -22.5 85.5t-58.5 26.5q-20 0 -36.5 -9t-31.5 -32q-20 -30 -26 -79h175zM386 595l-41 -55l-210 103l58 87z" />
    <glyph glyph-name="eacute" unicode="&#xe9;" horiz-adv-x="496" 
d="M164 209q5 -63 35.5 -98.5t94.5 -35.5q32 0 69.5 9t77.5 29l8 -89q-35 -15 -79.5 -25t-97.5 -10t-96.5 17t-74.5 50t-48.5 80.5t-17.5 107.5q0 52 16.5 96t46.5 76t71.5 50.5t90.5 18.5q51 0 89 -17t63.5 -46.5t38 -70t12.5 -86.5q0 -6 -0.5 -19.5t-2.5 -36.5h-296z
M341 288v8q0 59 -22.5 85.5t-58.5 26.5q-20 0 -36.5 -9t-31.5 -32q-20 -30 -26 -79h175zM331 730l58 -87l-210 -103l-41 55z" />
    <glyph glyph-name="ecircumflex" unicode="&#xea;" horiz-adv-x="496" 
d="M164 209q5 -63 35.5 -98.5t94.5 -35.5q32 0 69.5 9t77.5 29l8 -89q-35 -15 -79.5 -25t-97.5 -10t-96.5 17t-74.5 50t-48.5 80.5t-17.5 107.5q0 52 16.5 96t46.5 76t71.5 50.5t90.5 18.5q51 0 89 -17t63.5 -46.5t38 -70t12.5 -86.5q0 -6 -0.5 -19.5t-2.5 -36.5h-296z
M341 288v8q0 59 -22.5 85.5t-58.5 26.5q-20 0 -36.5 -9t-31.5 -32q-20 -30 -26 -79h175zM219 706h88l122 -117l-54 -47l-112 89l-112 -89l-54 47z" />
    <glyph glyph-name="edieresis" unicode="&#xeb;" horiz-adv-x="496" 
d="M164 209q5 -63 35.5 -98.5t94.5 -35.5q32 0 69.5 9t77.5 29l8 -89q-35 -15 -79.5 -25t-97.5 -10t-96.5 17t-74.5 50t-48.5 80.5t-17.5 107.5q0 52 16.5 96t46.5 76t71.5 50.5t90.5 18.5q51 0 89 -17t63.5 -46.5t38 -70t12.5 -86.5q0 -6 -0.5 -19.5t-2.5 -36.5h-296z
M341 288v8q0 59 -22.5 85.5t-58.5 26.5q-20 0 -36.5 -9t-31.5 -32q-20 -30 -26 -79h175zM230 646v-100h-103v100h103zM400 646v-100h-103v100h103z" />
    <glyph glyph-name="igrave" unicode="&#xec;" horiz-adv-x="234" 
d="M176 476v-476h-118v476h118zM235 595l-41 -55l-210 103l58 87z" />
    <glyph glyph-name="iacute" unicode="&#xed;" horiz-adv-x="234" 
d="M176 476v-476h-118v476h118zM179 730l58 -87l-210 -103l-41 55z" />
    <glyph glyph-name="icircumflex" unicode="&#xee;" horiz-adv-x="234" 
d="M176 476v-476h-118v476h118zM74 706h88l122 -117l-54 -47l-112 89l-112 -89l-54 47z" />
    <glyph glyph-name="idieresis" unicode="&#xef;" horiz-adv-x="234" 
d="M176 476v-476h-118v476h118zM85 646v-100h-103v100h103zM255 646v-100h-103v100h103z" />
    <glyph glyph-name="eth" unicode="&#xf0;" horiz-adv-x="542" 
d="M201 648q23 -1 46 -5t41 -9l27 58l56 -27l-26 -56q72 -30 110.5 -102t38.5 -193q0 -95 -28 -169t-79 -115q-53 -41 -129 -41q-53 0 -94 17t-68.5 47t-41 71t-10.5 88q3 46 16 87.5t39 72.5t65.5 48.5t95.5 14.5q25 -2 52.5 -8t53.5 -20q0 46 -18 78.5t-40 46.5l-28 -59
l-55 27l30 64q-17 7 -36.5 10.5t-35.5 5.5zM369 318q-16 15 -44 25.5t-53 10.5q-43 0 -69 -37t-31 -106q-6 -78 18.5 -110t66.5 -32q18 0 34.5 7.5t29.5 24.5q10 14 19 37t15 52t10 62t4 66z" />
    <glyph glyph-name="ntilde" unicode="&#xf1;" horiz-adv-x="536" 
d="M106 476l33 -71h1q8 13 20 25.5t24 20.5q26 18 56.5 26t62.5 8q45 0 82 -16t60 -45q23 -30 30.5 -68.5t7.5 -100.5v-255h-118v258q0 42 -2.5 67t-16.5 44q-11 16 -29.5 23.5t-38.5 7.5t-41 -7.5t-37 -27.5q-17 -20 -21.5 -48.5t-4.5 -81.5v-235h-118v476h50zM104 583
q4 16 14.5 30.5t25.5 25.5t32.5 17.5t35.5 6.5q19 0 38 -6.5t30 -12.5l27 -13.5t29 -7.5q37 0 56 37l54 -38q-11 -32 -41 -54.5t-68 -22.5q-20 0 -37.5 7t-33.5 15q-11 5 -25 12t-27 7q-17 0 -32 -10.5t-26 -33.5z" />
    <glyph glyph-name="ograve" unicode="&#xf2;" horiz-adv-x="542" 
d="M271 485q53 0 96.5 -18.5t74.5 -51.5t48 -78t17 -99t-17 -99.5t-48 -78.5t-74.5 -52t-96.5 -19q-54 0 -98 19t-74.5 52t-47 78.5t-16.5 99.5t16.5 99t47 78t74.5 51.5t98 18.5zM271 404q-54 0 -80.5 -43.5t-26.5 -123.5q0 -81 26.5 -124t80.5 -43q52 0 79.5 43t27.5 124
t-27.5 124t-79.5 43zM377 595l-41 -55l-210 103l58 87z" />
    <glyph glyph-name="oacute" unicode="&#xf3;" horiz-adv-x="542" 
d="M271 485q53 0 96.5 -18.5t74.5 -51.5t48 -78t17 -99t-17 -99.5t-48 -78.5t-74.5 -52t-96.5 -19q-54 0 -98 19t-74.5 52t-47 78.5t-16.5 99.5t16.5 99t47 78t74.5 51.5t98 18.5zM271 404q-54 0 -80.5 -43.5t-26.5 -123.5q0 -81 26.5 -124t80.5 -43q52 0 79.5 43t27.5 124
t-27.5 124t-79.5 43zM321 730l58 -87l-210 -103l-41 55z" />
    <glyph glyph-name="ocircumflex" unicode="&#xf4;" horiz-adv-x="542" 
d="M271 485q53 0 96.5 -18.5t74.5 -51.5t48 -78t17 -99t-17 -99.5t-48 -78.5t-74.5 -52t-96.5 -19q-54 0 -98 19t-74.5 52t-47 78.5t-16.5 99.5t16.5 99t47 78t74.5 51.5t98 18.5zM271 404q-54 0 -80.5 -43.5t-26.5 -123.5q0 -81 26.5 -124t80.5 -43q52 0 79.5 43t27.5 124
t-27.5 124t-79.5 43zM227 706h88l122 -117l-54 -47l-112 89l-112 -89l-54 47z" />
    <glyph glyph-name="otilde" unicode="&#xf5;" horiz-adv-x="542" 
d="M271 485q53 0 96.5 -18.5t74.5 -51.5t48 -78t17 -99t-17 -99.5t-48 -78.5t-74.5 -52t-96.5 -19q-54 0 -98 19t-74.5 52t-47 78.5t-16.5 99.5t16.5 99t47 78t74.5 51.5t98 18.5zM271 404q-54 0 -80.5 -43.5t-26.5 -123.5q0 -81 26.5 -124t80.5 -43q52 0 79.5 43t27.5 124
t-27.5 124t-79.5 43zM99 583q4 16 14.5 30.5t25.5 25.5t32.5 17.5t35.5 6.5q19 0 38 -6.5t30 -12.5l27 -13.5t29 -7.5q37 0 56 37l54 -38q-11 -32 -41 -54.5t-68 -22.5q-20 0 -37.5 7t-33.5 15q-11 5 -25 12t-27 7q-17 0 -32 -10.5t-26 -33.5z" />
    <glyph glyph-name="odieresis" unicode="&#xf6;" horiz-adv-x="542" 
d="M271 485q53 0 96.5 -18.5t74.5 -51.5t48 -78t17 -99t-17 -99.5t-48 -78.5t-74.5 -52t-96.5 -19q-54 0 -98 19t-74.5 52t-47 78.5t-16.5 99.5t16.5 99t47 78t74.5 51.5t98 18.5zM271 404q-54 0 -80.5 -43.5t-26.5 -123.5q0 -81 26.5 -124t80.5 -43q52 0 79.5 43t27.5 124
t-27.5 124t-79.5 43zM238 646v-100h-103v100h103zM408 646v-100h-103v100h103z" />
    <glyph glyph-name="divide" unicode="&#xf7;" horiz-adv-x="593" 
d="M347 520v-93h-102v93h102zM347 135v-93h-102v93h102zM505 333v-93h-417v93h417z" />
    <glyph glyph-name="oslash" unicode="&#xf8;" horiz-adv-x="542" 
d="M271 485q36 0 69 -9l21 51h54l-29 -70q57 -30 89 -87t32 -132q0 -54 -17 -99.5t-48 -78.5t-74.5 -52t-96.5 -19q-19 0 -36.5 2.5t-34.5 7.5l-22 -56h-54l30 74q-57 30 -88 88t-31 133q0 54 16.5 99t47 78t74.5 51.5t98 18.5zM378 237q0 84 -30 126l-116 -286q17 -7 39 -7
q52 0 79.5 43t27.5 124zM271 404q-54 0 -80.5 -43.5t-26.5 -123.5q0 -85 28 -126l116 286q-19 7 -37 7z" />
    <glyph glyph-name="ugrave" unicode="&#xf9;" horiz-adv-x="522" 
d="M171 476v-263q0 -29 1 -53.5t8 -42.5q16 -40 68 -40q32 0 53 13.5t32 33.5q9 17 12 36t3 41v275h118v-476h-50l-33 66q-10 -18 -26 -32q-23 -21 -58 -33t-77 -12q-49 0 -81 14t-51 37q-23 30 -30 67t-7 86v283h118zM377 595l-41 -55l-210 103l58 87z" />
    <glyph glyph-name="uacute" unicode="&#xfa;" horiz-adv-x="522" 
d="M171 476v-263q0 -29 1 -53.5t8 -42.5q16 -40 68 -40q32 0 53 13.5t32 33.5q9 17 12 36t3 41v275h118v-476h-50l-33 66q-10 -18 -26 -32q-23 -21 -58 -33t-77 -12q-49 0 -81 14t-51 37q-23 30 -30 67t-7 86v283h118zM321 730l58 -87l-210 -103l-41 55z" />
    <glyph glyph-name="ucircumflex" unicode="&#xfb;" horiz-adv-x="522" 
d="M171 476v-263q0 -29 1 -53.5t8 -42.5q16 -40 68 -40q32 0 53 13.5t32 33.5q9 17 12 36t3 41v275h118v-476h-50l-33 66q-10 -18 -26 -32q-23 -21 -58 -33t-77 -12q-49 0 -81 14t-51 37q-23 30 -30 67t-7 86v283h118zM209 706h88l122 -117l-54 -47l-112 89l-112 -89l-54 47
z" />
    <glyph glyph-name="udieresis" unicode="&#xfc;" horiz-adv-x="522" 
d="M171 476v-263q0 -29 1 -53.5t8 -42.5q16 -40 68 -40q32 0 53 13.5t32 33.5q9 17 12 36t3 41v275h118v-476h-50l-33 66q-10 -18 -26 -32q-23 -21 -58 -33t-77 -12q-49 0 -81 14t-51 37q-23 30 -30 67t-7 86v283h118zM220 646v-100h-103v100h103zM390 646v-100h-103v100
h103z" />
    <glyph glyph-name="yacute" unicode="&#xfd;" horiz-adv-x="497" 
d="M144 476l115 -323l107 323h116l-170 -463q-20 -54 -37 -92.5t-38.5 -64t-49.5 -37.5t-69 -12h-10t-10 1l-24 87h15q15 0 28 1.5t26.5 11t26.5 29.5t28 57l5 15l-188 467h129zM321 730l58 -87l-210 -103l-41 55z" />
    <glyph glyph-name="thorn" unicode="&#xfe;" horiz-adv-x="536" 
d="M174 640v-204q11 13 27.5 23t32.5 15q17 6 34.5 8.5t34.5 2.5q45 0 82 -16t60 -45q23 -30 31 -68.5t8 -100.5v-36q0 -62 -8 -100.5t-31 -68.5q-23 -29 -60 -45t-82 -16q-17 0 -34.5 2.5t-34.5 8.5q-16 5 -32.5 15t-27.5 23v-217h-118v797zM174 215q0 -41 5.5 -65
t20.5 -41q16 -20 37 -27.5t41 -7.5t38.5 7.5t29.5 23.5q14 19 17 44t3 67v43q0 40 -3 65.5t-17 44.5q-11 16 -29.5 23.5t-38.5 7.5t-41 -7.5t-37 -27.5q-15 -17 -20.5 -41t-5.5 -65v-44z" />
    <glyph glyph-name="ydieresis" unicode="&#xff;" horiz-adv-x="497" 
d="M144 476l115 -323l107 323h116l-170 -463q-20 -54 -37 -92.5t-38.5 -64t-49.5 -37.5t-69 -12h-10t-10 1l-24 87h15q15 0 28 1.5t26.5 11t26.5 29.5t28 57l5 15l-188 467h129zM227 646v-100h-103v100h103zM397 646v-100h-103v100h103z" />
    <glyph glyph-name="Amacron" unicode="&#x100;" horiz-adv-x="592" 
d="M336 636l247 -636h-137l-62 166h-201l-62 -166h-112l241 615zM217 261h131l-66 176zM417 790l-10 -86h-260l10 86h260z" />
    <glyph glyph-name="amacron" unicode="&#x101;" horiz-adv-x="505" 
d="M79 450q35 15 79 25t97 10q18 0 39 -3t43 -10t42.5 -19t35.5 -30q19 -22 28 -56t9 -78v-289h-50l-35 62q-23 -41 -65.5 -57t-90.5 -16q-35 0 -67 9t-57 27.5t-40 46.5t-15 66q0 46 24 78t65 52.5t96 30.5t117 12q0 17 -4.5 34t-15.5 28t-30 18.5t-51 7.5t-69 -9t-77 -29z
M334 235q-87 -5 -131 -25.5t-44 -67.5q0 -32 20.5 -49.5t51.5 -17.5q42 0 72.5 21t30.5 72v67zM389 653l-10 -86h-260l10 86h260z" />
    <glyph glyph-name="Abreve" unicode="&#x102;" horiz-adv-x="592" 
d="M336 636l247 -636h-137l-62 166h-201l-62 -166h-112l241 615zM217 261h131l-66 176zM206 821q8 -26 28 -41.5t48 -15.5q29 0 48.5 15.5t27.5 41.5l71 -13q-7 -50 -46 -83t-101 -33t-101 33t-46 83z" />
    <glyph glyph-name="abreve" unicode="&#x103;" horiz-adv-x="505" 
d="M79 450q35 15 79 25t97 10q18 0 39 -3t43 -10t42.5 -19t35.5 -30q19 -22 28 -56t9 -78v-289h-50l-35 62q-23 -41 -65.5 -57t-90.5 -16q-35 0 -67 9t-57 27.5t-40 46.5t-15 66q0 46 24 78t65 52.5t96 30.5t117 12q0 17 -4.5 34t-15.5 28t-30 18.5t-51 7.5t-69 -9t-77 -29z
M334 235q-87 -5 -131 -25.5t-44 -67.5q0 -32 20.5 -49.5t51.5 -17.5q42 0 72.5 21t30.5 72v67zM182 674q8 -26 28 -41.5t48 -15.5q29 0 48.5 15.5t27.5 41.5l71 -13q-7 -50 -46 -83t-101 -33t-101 33t-46 83z" />
    <glyph glyph-name="Aogonek" unicode="&#x104;" horiz-adv-x="592" 
d="M336 636l247 -636h-67q-38 -20 -56.5 -46t-18.5 -49q0 -38 44 -38q8 0 24 2t26 5l-11 -60q-29 -7 -54 -7q-51 0 -78 22.5t-27 63.5q0 25 19.5 55t61.5 52l-62 166h-201l-62 -166h-112l241 615zM217 261h131l-66 176z" />
    <glyph glyph-name="aogonek" unicode="&#x105;" horiz-adv-x="505" 
d="M79 450q35 15 79 25t97 10q18 0 39 -3t43 -10t42.5 -19t35.5 -30q19 -22 28 -56t9 -78v-289h-22q-38 -20 -56.5 -45.5t-18.5 -49.5q0 -38 44 -38q8 0 24 2t26 5l-11 -60q-29 -7 -54 -7q-51 0 -78 22.5t-27 63.5q0 33 28 69t83 59l-23 41q-23 -41 -65.5 -57t-90.5 -16
q-35 0 -67 9t-57 27.5t-40 46.5t-15 66q0 46 24 78t65 52.5t96 30.5t117 12q0 17 -4.5 34t-15.5 28t-30 18.5t-51 7.5t-69 -9t-77 -29zM334 235q-87 -5 -131 -25.5t-44 -67.5q0 -32 20.5 -49.5t51.5 -17.5q42 0 72.5 21t30.5 72v67z" />
    <glyph glyph-name="Cacute" unicode="&#x106;" horiz-adv-x="553" 
d="M496 493q-32 20 -71.5 32t-81.5 12q-32 0 -62 -10t-52 -30q-33 -30 -47.5 -76.5t-14.5 -98.5q0 -109 43.5 -170t132.5 -61q51 0 91 11t74 31l10 -98q-34 -20 -85 -33t-110 -13q-69 0 -123 24.5t-91.5 68t-57 103t-19.5 129.5q0 66 19.5 125t57 103.5t92.5 71t125 26.5
q54 0 102.5 -12.5t74.5 -29.5zM383 878l58 -87l-210 -103l-41 55z" />
    <glyph glyph-name="cacute" unicode="&#x107;" horiz-adv-x="452" 
d="M412 361q-29 20 -60.5 29t-61.5 9q-55 0 -87 -35q-20 -22 -29 -55t-9 -73q0 -37 7.5 -68t23.5 -52q30 -40 90 -40q23 0 55.5 8.5t72.5 28.5l8 -89q-35 -16 -78 -25.5t-81 -9.5q-48 0 -88.5 15t-70.5 44q-33 32 -51 80t-18 105q0 51 15 96t44 79q32 37 78 57t100 20
q47 0 84 -9t64 -26zM311 730l58 -87l-210 -103l-41 55z" />
    <glyph glyph-name="Ccircumflex" unicode="&#x108;" horiz-adv-x="553" 
d="M496 493q-32 20 -71.5 32t-81.5 12q-32 0 -62 -10t-52 -30q-33 -30 -47.5 -76.5t-14.5 -98.5q0 -109 43.5 -170t132.5 -61q51 0 91 11t74 31l10 -98q-34 -20 -85 -33t-110 -13q-69 0 -123 24.5t-91.5 68t-57 103t-19.5 129.5q0 66 19.5 125t57 103.5t92.5 71t125 26.5
q54 0 102.5 -12.5t74.5 -29.5zM272 853h88l122 -117l-54 -47l-112 89l-112 -89l-54 47z" />
    <glyph glyph-name="ccircumflex" unicode="&#x109;" horiz-adv-x="452" 
d="M412 361q-29 20 -60.5 29t-61.5 9q-55 0 -87 -35q-20 -22 -29 -55t-9 -73q0 -37 7.5 -68t23.5 -52q30 -40 90 -40q23 0 55.5 8.5t72.5 28.5l8 -89q-35 -16 -78 -25.5t-81 -9.5q-48 0 -88.5 15t-70.5 44q-33 32 -51 80t-18 105q0 51 15 96t44 79q32 37 78 57t100 20
q47 0 84 -9t64 -26zM219 706h88l122 -117l-54 -47l-112 89l-112 -89l-54 47z" />
    <glyph glyph-name="Cdotaccent" unicode="&#x10a;" horiz-adv-x="553" 
d="M496 493q-32 20 -71.5 32t-81.5 12q-32 0 -62 -10t-52 -30q-33 -30 -47.5 -76.5t-14.5 -98.5q0 -109 43.5 -170t132.5 -61q51 0 91 11t74 31l10 -98q-34 -20 -85 -33t-110 -13q-69 0 -123 24.5t-91.5 68t-57 103t-19.5 129.5q0 66 19.5 125t57 103.5t92.5 71t125 26.5
q54 0 102.5 -12.5t74.5 -29.5zM392 804v-112h-118v112h118z" />
    <glyph glyph-name="cdotaccent" unicode="&#x10b;" horiz-adv-x="452" 
d="M412 361q-29 20 -60.5 29t-61.5 9q-55 0 -87 -35q-20 -22 -29 -55t-9 -73q0 -37 7.5 -68t23.5 -52q30 -40 90 -40q23 0 55.5 8.5t72.5 28.5l8 -89q-35 -16 -78 -25.5t-81 -9.5q-48 0 -88.5 15t-70.5 44q-33 32 -51 80t-18 105q0 51 15 96t44 79q32 37 78 57t100 20
q47 0 84 -9t64 -26zM322 658v-112h-118v112h118z" />
    <glyph glyph-name="Ccaron" unicode="&#x10c;" horiz-adv-x="553" 
d="M496 493q-32 20 -71.5 32t-81.5 12q-32 0 -62 -10t-52 -30q-33 -30 -47.5 -76.5t-14.5 -98.5q0 -109 43.5 -170t132.5 -61q51 0 91 11t74 31l10 -98q-34 -20 -85 -33t-110 -13q-69 0 -123 24.5t-91.5 68t-57 103t-19.5 129.5q0 66 19.5 125t57 103.5t92.5 71t125 26.5
q54 0 102.5 -12.5t74.5 -29.5zM211 856l112 -89l112 89l54 -47l-122 -117h-88l-122 117z" />
    <glyph glyph-name="ccaron" unicode="&#x10d;" horiz-adv-x="452" 
d="M412 361q-29 20 -60.5 29t-61.5 9q-55 0 -87 -35q-20 -22 -29 -55t-9 -73q0 -37 7.5 -68t23.5 -52q30 -40 90 -40q23 0 55.5 8.5t72.5 28.5l8 -89q-35 -16 -78 -25.5t-81 -9.5q-48 0 -88.5 15t-70.5 44q-33 32 -51 80t-18 105q0 51 15 96t44 79q32 37 78 57t100 20
q47 0 84 -9t64 -26zM156 710l112 -89l112 89l54 -47l-123 -117h-87l-122 117z" />
    <glyph glyph-name="Dcaron" unicode="&#x10e;" horiz-adv-x="621" 
d="M238 627q42 0 74.5 -2.5t58 -8t45.5 -13.5t38 -18q66 -40 100.5 -108.5t34.5 -162.5t-35 -163.5t-102 -107.5q-74 -43 -189 -43h-196v627h171zM192 99h65q44 0 80 10.5t67 39.5q27 26 38.5 67t11.5 101q0 42 -13 84t-37 71q-25 30 -63.5 43t-86.5 13h-62v-429zM171 856
l112 -89l112 89l54 -47l-122 -117h-88l-122 117z" />
    <glyph glyph-name="dcaron" unicode="&#x10f;" horiz-adv-x="645" 
d="M476 640v-640h-50l-29 60q-18 -35 -56 -53t-88 -18q-51 0 -91 17.5t-68.5 49t-43.5 76.5t-15 99q0 57 18 104t49 80t71 51.5t85 18.5q59 0 100 -20v153zM358 381q-14 11 -34 17.5t-44 6.5q-41 0 -66 -25.5t-37 -61.5q-7 -20 -10 -42.5t-3 -42.5q0 -42 6 -71t20 -51
q14 -21 34.5 -31t45.5 -10q27 0 45.5 11.5t28.5 28.5q8 12 11 32.5t3 55.5v183zM635 628v-67l-54 -127h-41v194h95z" />
    <glyph glyph-name="Dcroat" unicode="&#x110;" horiz-adv-x="621" 
d="M238 627q42 0 74.5 -2.5t58 -8t45.5 -13.5t38 -18q66 -40 100.5 -108.5t34.5 -162.5t-35 -163.5t-102 -107.5q-74 -43 -189 -43h-196v269h-70v94h70v264h171zM192 363h125v-94h-125v-170h65q44 0 80 10.5t67 39.5q27 26 38.5 67t11.5 101q0 42 -13 84t-37 71
q-25 30 -63.5 43t-86.5 13h-62v-165z" />
    <glyph glyph-name="dcroat" unicode="&#x111;" horiz-adv-x="532" 
d="M358 582v36l118 22v-58h46v-72h-46v-510h-50l-29 60q-18 -35 -56 -53t-88 -18q-51 0 -91 17.5t-68.5 49t-43.5 76.5t-15 99q0 57 18 104t49 80t71 51.5t85 18.5q59 0 100 -20v45h-103v72h103zM358 381q-14 11 -34 17.5t-44 6.5q-41 0 -66 -25.5t-37 -61.5
q-7 -20 -10 -42.5t-3 -42.5q0 -42 6 -71t20 -51q14 -21 34.5 -31t45.5 -10q27 0 45.5 11.5t28.5 28.5q8 12 11 32.5t3 55.5v183z" />
    <glyph glyph-name="Emacron" unicode="&#x112;" horiz-adv-x="489" 
d="M452 627l-30 -99h-230v-172h211l-23 -99h-188v-158h272l-23 -99h-374v627h385zM389 790l-10 -86h-260l10 86h260z" />
    <glyph glyph-name="emacron" unicode="&#x113;" horiz-adv-x="496" 
d="M164 209q5 -63 35.5 -98.5t94.5 -35.5q32 0 69.5 9t77.5 29l8 -89q-35 -15 -79.5 -25t-97.5 -10t-96.5 17t-74.5 50t-48.5 80.5t-17.5 107.5q0 52 16.5 96t46.5 76t71.5 50.5t90.5 18.5q51 0 89 -17t63.5 -46.5t38 -70t12.5 -86.5q0 -6 -0.5 -19.5t-2.5 -36.5h-296z
M341 288v8q0 59 -22.5 85.5t-58.5 26.5q-20 0 -36.5 -9t-31.5 -32q-20 -30 -26 -79h175zM397 653l-10 -86h-260l10 86h260z" />
    <glyph glyph-name="Ebreve" unicode="&#x114;" horiz-adv-x="489" 
d="M452 627l-30 -99h-230v-172h211l-23 -99h-188v-158h272l-23 -99h-374v627h385zM182 821q8 -26 28 -41.5t48 -15.5q29 0 48.5 15.5t27.5 41.5l71 -13q-7 -50 -46 -83t-101 -33t-101 33t-46 83z" />
    <glyph glyph-name="ebreve" unicode="&#x115;" horiz-adv-x="496" 
d="M164 209q5 -63 35.5 -98.5t94.5 -35.5q32 0 69.5 9t77.5 29l8 -89q-35 -15 -79.5 -25t-97.5 -10t-96.5 17t-74.5 50t-48.5 80.5t-17.5 107.5q0 52 16.5 96t46.5 76t71.5 50.5t90.5 18.5q51 0 89 -17t63.5 -46.5t38 -70t12.5 -86.5q0 -6 -0.5 -19.5t-2.5 -36.5h-296z
M341 288v8q0 59 -22.5 85.5t-58.5 26.5q-20 0 -36.5 -9t-31.5 -32q-20 -30 -26 -79h175zM192 674q8 -26 28 -41.5t48 -15.5q29 0 48.5 15.5t27.5 41.5l71 -13q-7 -50 -46 -83t-101 -33t-101 33t-46 83z" />
    <glyph glyph-name="Edotaccent" unicode="&#x116;" horiz-adv-x="489" 
d="M452 627l-30 -99h-230v-172h211l-23 -99h-188v-158h272l-23 -99h-374v627h385zM312 804v-112h-118v112h118z" />
    <glyph glyph-name="edotaccent" unicode="&#x117;" horiz-adv-x="496" 
d="M164 209q5 -63 35.5 -98.5t94.5 -35.5q32 0 69.5 9t77.5 29l8 -89q-35 -15 -79.5 -25t-97.5 -10t-96.5 17t-74.5 50t-48.5 80.5t-17.5 107.5q0 52 16.5 96t46.5 76t71.5 50.5t90.5 18.5q51 0 89 -17t63.5 -46.5t38 -70t12.5 -86.5q0 -6 -0.5 -19.5t-2.5 -36.5h-296z
M341 288v8q0 59 -22.5 85.5t-58.5 26.5q-20 0 -36.5 -9t-31.5 -32q-20 -30 -26 -79h175zM322 658v-112h-118v112h118z" />
    <glyph glyph-name="Eogonek" unicode="&#x118;" horiz-adv-x="489" 
d="M452 627l-30 -99h-230v-172h211l-23 -99h-188v-158h272l-23 -99h-42q-38 -20 -56.5 -46t-18.5 -49q0 -38 44 -38q8 0 24 2t26 5l-11 -60q-29 -7 -54 -7q-51 0 -78 22.5t-27 63.5q0 25 19.5 55t61.5 52h-262v627h385z" />
    <glyph glyph-name="eogonek" unicode="&#x119;" horiz-adv-x="496" 
d="M341 288v8q0 59 -22.5 85.5t-58.5 26.5q-20 0 -36.5 -9t-31.5 -32q-20 -30 -26 -79h175zM164 209q5 -63 35.5 -98.5t94.5 -35.5q32 0 69.5 9t77.5 29l8 -89q-14 -6 -26 -12t-23 -12q-35 -20 -54 -47t-19 -48q0 -38 44 -38q8 0 24 2t26 5l-11 -60q-29 -7 -54 -7
q-51 0 -78 22t-27 61q0 25 18 53t48 48q-11 -2 -21.5 -2h-23.5q-53 0 -96.5 17t-74.5 50t-48.5 80.5t-17.5 107.5q0 52 16.5 96t46.5 76t71.5 50.5t90.5 18.5q51 0 89 -17t63.5 -46.5t38 -70t12.5 -86.5q0 -6 -0.5 -19.5t-2.5 -36.5h-296z" />
    <glyph glyph-name="Ecaron" unicode="&#x11a;" horiz-adv-x="489" 
d="M452 627l-30 -99h-230v-172h211l-23 -99h-188v-158h272l-23 -99h-374v627h385zM141 856l112 -89l112 89l54 -47l-122 -117h-88l-122 117z" />
    <glyph glyph-name="ecaron" unicode="&#x11b;" horiz-adv-x="496" 
d="M164 209q5 -63 35.5 -98.5t94.5 -35.5q32 0 69.5 9t77.5 29l8 -89q-35 -15 -79.5 -25t-97.5 -10t-96.5 17t-74.5 50t-48.5 80.5t-17.5 107.5q0 52 16.5 96t46.5 76t71.5 50.5t90.5 18.5q51 0 89 -17t63.5 -46.5t38 -70t12.5 -86.5q0 -6 -0.5 -19.5t-2.5 -36.5h-296z
M341 288v8q0 59 -22.5 85.5t-58.5 26.5q-20 0 -36.5 -9t-31.5 -32q-20 -30 -26 -79h175zM137 710l112 -89l112 89l54 -47l-123 -117h-87l-122 117z" />
    <glyph glyph-name="Gcircumflex" unicode="&#x11c;" horiz-adv-x="621" 
d="M521 489q-36 25 -77 37t-86 12t-80.5 -17t-60 -47t-37.5 -70t-13 -86q0 -63 17 -106.5t43 -70t57.5 -38.5t60.5 -12q23 0 47 4t46 12v150h-104l30 99h197v-304q-13 -11 -35.5 -22.5t-51 -20.5t-61 -14.5t-64.5 -5.5q-72 0 -130.5 22.5t-100 64.5t-64 103t-22.5 138
q0 61 20.5 119t61 103.5t99.5 73t136 27.5q57 0 106 -12.5t74 -29.5zM280 853h88l122 -117l-54 -47l-112 89l-112 -89l-54 47z" />
    <glyph glyph-name="gcircumflex" unicode="&#x11d;" 
d="M496 476v-50l-75 -24q27 -44 27 -97q0 -39 -14 -72.5t-40 -57.5t-63 -38t-82 -14q-36 0 -63 7l-39 -54q19 -2 46.5 -3t43.5 -2l43 -2q60 -3 95 -14.5t52 -28.5q16 -16 24.5 -41.5t6.5 -54.5q-5 -60 -56.5 -91.5t-167.5 -31.5q-63 0 -112 15q-42 14 -65 38t-23 59
q0 11 2.5 23t7.5 22l51 19q-30 9 -41 23t-11 37q0 29 33 69l41 48q-34 24 -51.5 61t-17.5 84q0 39 14.5 72t41 57t64 37.5t82.5 13.5q70 0 120 -33l21 24h105zM250 410q-36 0 -60 -25t-24 -81q0 -59 21.5 -83.5t62.5 -24.5q35 0 57.5 24.5t22.5 83.5q0 56 -22.5 81t-57.5 25
zM228 -30q-20 2 -41.5 2.5t-39.5 1.5q-4 -7 -6.5 -13.5t-2.5 -14.5q0 -32 25 -50t76 -18q34 0 56 4t35 10.5t18.5 15.5t5.5 19q0 19 -16 29t-64 12zM207 706h88l122 -117l-54 -47l-112 89l-112 -89l-54 47z" />
    <glyph glyph-name="Gbreve" unicode="&#x11e;" horiz-adv-x="621" 
d="M521 489q-36 25 -77 37t-86 12t-80.5 -17t-60 -47t-37.5 -70t-13 -86q0 -63 17 -106.5t43 -70t57.5 -38.5t60.5 -12q23 0 47 4t46 12v150h-104l30 99h197v-304q-13 -11 -35.5 -22.5t-51 -20.5t-61 -14.5t-64.5 -5.5q-72 0 -130.5 22.5t-100 64.5t-64 103t-22.5 138
q0 61 20.5 119t61 103.5t99.5 73t136 27.5q57 0 106 -12.5t74 -29.5zM242 821q8 -26 28 -41.5t48 -15.5q29 0 48.5 15.5t27.5 41.5l71 -13q-7 -50 -46 -83t-101 -33t-101 33t-46 83z" />
    <glyph glyph-name="gbreve" unicode="&#x11f;" 
d="M496 476v-50l-75 -24q27 -44 27 -97q0 -39 -14 -72.5t-40 -57.5t-63 -38t-82 -14q-36 0 -63 7l-39 -54q19 -2 46.5 -3t43.5 -2l43 -2q60 -3 95 -14.5t52 -28.5q16 -16 24.5 -41.5t6.5 -54.5q-5 -60 -56.5 -91.5t-167.5 -31.5q-63 0 -112 15q-42 14 -65 38t-23 59
q0 11 2.5 23t7.5 22l51 19q-30 9 -41 23t-11 37q0 29 33 69l41 48q-34 24 -51.5 61t-17.5 84q0 39 14.5 72t41 57t64 37.5t82.5 13.5q70 0 120 -33l21 24h105zM250 410q-36 0 -60 -25t-24 -81q0 -59 21.5 -83.5t62.5 -24.5q35 0 57.5 24.5t22.5 83.5q0 56 -22.5 81t-57.5 25
zM228 -30q-20 2 -41.5 2.5t-39.5 1.5q-4 -7 -6.5 -13.5t-2.5 -14.5q0 -32 25 -50t76 -18q34 0 56 4t35 10.5t18.5 15.5t5.5 19q0 19 -16 29t-64 12zM173 674q8 -26 28 -41.5t48 -15.5q29 0 48.5 15.5t27.5 41.5l71 -13q-7 -50 -46 -83t-101 -33t-101 33t-46 83z" />
    <glyph glyph-name="Gdotaccent" unicode="&#x120;" horiz-adv-x="621" 
d="M521 489q-36 25 -77 37t-86 12t-80.5 -17t-60 -47t-37.5 -70t-13 -86q0 -63 17 -106.5t43 -70t57.5 -38.5t60.5 -12q23 0 47 4t46 12v150h-104l30 99h197v-304q-13 -11 -35.5 -22.5t-51 -20.5t-61 -14.5t-64.5 -5.5q-72 0 -130.5 22.5t-100 64.5t-64 103t-22.5 138
q0 61 20.5 119t61 103.5t99.5 73t136 27.5q57 0 106 -12.5t74 -29.5zM382 804v-112h-118v112h118z" />
    <glyph glyph-name="gdotaccent" unicode="&#x121;" 
d="M496 476v-50l-75 -24q27 -44 27 -97q0 -39 -14 -72.5t-40 -57.5t-63 -38t-82 -14q-36 0 -63 7l-39 -54q19 -2 46.5 -3t43.5 -2l43 -2q60 -3 95 -14.5t52 -28.5q16 -16 24.5 -41.5t6.5 -54.5q-5 -60 -56.5 -91.5t-167.5 -31.5q-63 0 -112 15q-42 14 -65 38t-23 59
q0 11 2.5 23t7.5 22l51 19q-30 9 -41 23t-11 37q0 29 33 69l41 48q-34 24 -51.5 61t-17.5 84q0 39 14.5 72t41 57t64 37.5t82.5 13.5q70 0 120 -33l21 24h105zM250 410q-36 0 -60 -25t-24 -81q0 -59 21.5 -83.5t62.5 -24.5q35 0 57.5 24.5t22.5 83.5q0 56 -22.5 81t-57.5 25
zM228 -30q-20 2 -41.5 2.5t-39.5 1.5q-4 -7 -6.5 -13.5t-2.5 -14.5q0 -32 25 -50t76 -18q34 0 56 4t35 10.5t18.5 15.5t5.5 19q0 19 -16 29t-64 12zM307 658v-112h-118v112h118z" />
    <glyph glyph-name="Gcommaaccent" unicode="&#x122;" horiz-adv-x="621" 
d="M521 489q-36 25 -77 37t-86 12t-80.5 -17t-60 -47t-37.5 -70t-13 -86q0 -63 17 -106.5t43 -70t57.5 -38.5t60.5 -12q23 0 47 4t46 12v150h-104l30 99h197v-304q-13 -11 -35.5 -22.5t-51 -20.5t-61 -14.5t-64.5 -5.5q-72 0 -130.5 22.5t-100 64.5t-64 103t-22.5 138
q0 61 20.5 119t61 103.5t99.5 73t136 27.5q57 0 106 -12.5t74 -29.5zM403 -56v-67l-54 -127h-41v194h95z" />
    <glyph glyph-name="gcommaaccent" unicode="&#x123;" 
d="M496 476v-50l-75 -24q27 -44 27 -97q0 -39 -14 -72.5t-40 -57.5t-63 -38t-82 -14q-36 0 -63 7l-39 -54q19 -2 46.5 -3t43.5 -2l43 -2q60 -3 95 -14.5t52 -28.5q16 -16 24.5 -41.5t6.5 -54.5q-5 -60 -56.5 -91.5t-167.5 -31.5q-63 0 -112 15q-42 14 -65 38t-23 59
q0 11 2.5 23t7.5 22l51 19q-30 9 -41 23t-11 37q0 29 33 69l41 48q-34 24 -51.5 61t-17.5 84q0 39 14.5 72t41 57t64 37.5t82.5 13.5q70 0 120 -33l21 24h105zM250 410q-36 0 -60 -25t-24 -81q0 -59 21.5 -83.5t62.5 -24.5q35 0 57.5 24.5t22.5 83.5q0 56 -22.5 81t-57.5 25
zM228 -30q-20 2 -41.5 2.5t-39.5 1.5q-4 -7 -6.5 -13.5t-2.5 -14.5q0 -32 25 -50t76 -18q34 0 56 4t35 10.5t18.5 15.5t5.5 19q0 19 -16 29t-64 12zM195.019 533.996v66.9961l53.9971 126.992h40.9971v-193.988h-94.9941z" />
    <glyph glyph-name="Hcircumflex" unicode="&#x124;" horiz-adv-x="626" 
d="M192 627v-271h242v271h125v-627h-125v257h-242v-257h-125v627h125zM269 853h88l122 -117l-54 -47l-112 89l-112 -89l-54 47z" />
    <glyph glyph-name="hcircumflex" unicode="&#x125;" horiz-adv-x="536" 
d="M174 640v-204q11 13 27.5 23t32.5 15q17 6 34.5 8.5t34.5 2.5q45 0 82 -16t60 -45q23 -30 30.5 -68.5t7.5 -100.5v-255h-118v258q0 42 -2.5 67t-16.5 44q-11 16 -29.5 23.5t-38.5 7.5t-41 -7.5t-37 -27.5q-15 -17 -20.5 -41t-5.5 -65v-259h-118v618zM70 822h88l122 -117
l-54 -47l-112 89l-112 -89l-54 47z" />
    <glyph glyph-name="Hbar" unicode="&#x126;" horiz-adv-x="626" 
d="M192 627v-81h242v81h125v-81h59v-94h-59v-452h-125v257h-242v-257h-125v452h-61v94h61v81h125zM192 356h242v96h-242v-96z" />
    <glyph glyph-name="hbar" unicode="&#x127;" horiz-adv-x="536" 
d="M56 582v36l118 22v-58h103v-72h-103v-74q11 13 27.5 23t32.5 15q17 6 34.5 8.5t34.5 2.5q45 0 82 -16t60 -45q23 -30 30.5 -68.5t7.5 -100.5v-255h-118v258q0 42 -2.5 67t-16.5 44q-11 16 -29.5 23.5t-38.5 7.5t-41 -7.5t-37 -27.5q-15 -17 -20.5 -41t-5.5 -65v-259h-118
v510h-46v72h46z" />
    <glyph glyph-name="Itilde" unicode="&#x128;" horiz-adv-x="263" 
d="M194 627v-627h-125v627h125zM-35 730q4 16 14.5 30.5t25.5 25.5t32.5 17.5t35.5 6.5q19 0 37 -6.5t29 -12.5q12 -6 25.5 -13.5t27.5 -7.5q37 0 56 37l54 -38q-11 -32 -41 -54.5t-68 -22.5q-20 0 -36 7t-32 15q-11 5 -24 12t-26 7q-17 0 -32 -10.5t-26 -33.5z" />
    <glyph glyph-name="itilde" unicode="&#x129;" horiz-adv-x="234" 
d="M176 476v-476h-118v476h118zM-54 583q4 16 14.5 30.5t25.5 25.5t32.5 17.5t35.5 6.5q19 0 38 -6.5t30 -12.5l27 -13.5t29 -7.5q37 0 56 37l54 -38q-11 -32 -41 -54.5t-68 -22.5q-20 0 -37.5 7t-33.5 15q-11 5 -25 12t-27 7q-17 0 -32 -10.5t-26 -33.5z" />
    <glyph glyph-name="Imacron" unicode="&#x12a;" horiz-adv-x="263" 
d="M194 627v-627h-125v627h125zM268 790l-10 -86h-260l10 86h260z" />
    <glyph glyph-name="imacron" unicode="&#x12b;" horiz-adv-x="234" 
d="M176 476v-476h-118v476h118zM253 653l-10 -86h-260l10 86h260z" />
    <glyph glyph-name="Ibreve" unicode="&#x12c;" horiz-adv-x="263" 
d="M194 627v-627h-125v627h125zM57 821q8 -26 28 -41.5t48 -15.5q29 0 48.5 15.5t27.5 41.5l71 -13q-7 -50 -46 -83t-101 -33t-101 33t-46 83z" />
    <glyph glyph-name="ibreve" unicode="&#x12d;" horiz-adv-x="234" 
d="M176 476v-476h-118v476h118zM42 674q8 -26 28 -41.5t48 -15.5q29 0 48.5 15.5t27.5 41.5l71 -13q-7 -50 -46 -83t-101 -33t-101 33t-46 83z" />
    <glyph glyph-name="Iogonek" unicode="&#x12e;" horiz-adv-x="263" 
d="M194 627v-627q-38 -20 -56.5 -46t-18.5 -49q0 -38 44 -38q8 0 24 2t26 5l-11 -60q-29 -7 -54 -7q-51 0 -78 22.5t-27 63.5q0 25 19.5 55t61.5 52h-55v627h125z" />
    <glyph glyph-name="iogonek" unicode="&#x12f;" horiz-adv-x="234" 
d="M176 640v-106h-118v84zM176 485v-485q-38 -20 -56.5 -45.5t-18.5 -49.5q0 -38 44 -38q8 0 24 2t26 5l-11 -60q-29 -7 -54 -7q-51 0 -78 22.5t-27 63.5q0 25 19.5 55t61.5 52h-48v485h118z" />
    <glyph glyph-name="Idotaccent" unicode="&#x130;" horiz-adv-x="263" 
d="M194 627v-627h-125v627h125zM192 804v-112h-118v112h118z" />
    <glyph glyph-name="dotlessi" unicode="&#x131;" horiz-adv-x="234" 
d="M176 476v-476h-118v476h118z" />
    <glyph glyph-name="IJ" unicode="&#x132;" horiz-adv-x="606" 
d="M194 627v-627h-125v627h125zM541 627v-449q0 -95 -40.5 -142t-131.5 -47q-11 0 -24 2t-26.5 5t-25 6.5t-18.5 6.5l-17 95q34 -10 55.5 -13.5t43.5 -3.5q30 0 44.5 16t14.5 53v471h125z" />
    <glyph glyph-name="ij" unicode="&#x133;" horiz-adv-x="446" 
d="M176 476v-476h-118v476h118zM176 640v-106h-118v84zM392 476v-373q0 -48 -1.5 -81t-4.5 -56.5t-7.5 -40t-11.5 -30.5q-20 -42 -61 -65t-107 -23h-10.5t-10.5 1l-23 83h20q81 0 94 57q2 8 3 20t2 30t1 43.5v60.5v374h117zM392 640v-106h-118v84z" />
    <glyph glyph-name="Jcircumflex" unicode="&#x134;" horiz-adv-x="372" 
d="M307 627v-449q0 -95 -40.5 -142t-131.5 -47q-11 0 -24 2t-26.5 5t-25 6.5t-18.5 6.5l-17 95q34 -10 55.5 -13.5t43.5 -3.5q30 0 44.5 16t14.5 53v471h125zM201 853h88l122 -117l-54 -47l-112 89l-112 -89l-54 47z" />
    <glyph glyph-name="jcircumflex" unicode="&#x135;" horiz-adv-x="238" 
d="M184 485v-382q0 -48 -1.5 -81t-4.5 -56.5t-7.5 -40t-11.5 -30.5q-20 -42 -61 -65t-107 -23h-10.5t-10.5 1l-23 83h20q81 0 94 57q2 8 3 20t2 30t1 43.5v60.5v383h117zM78 706h88l122 -117l-54 -47l-112 89l-112 -89l-54 47z" />
    <glyph glyph-name="Kcommaaccent" unicode="&#x136;" horiz-adv-x="549" 
d="M192 627v-286l207 286h124l-205 -283l226 -344h-139l-169 255h-44v-255h-125v627h125zM342 -56v-67l-54 -127h-41v194h95z" />
    <glyph glyph-name="kcommaaccent" unicode="&#x137;" horiz-adv-x="467" 
d="M174 640v-361l153 197h123l-147 -187l155 -289h-133l-114 222h-37v-222h-118v618zM302 -56v-67l-54 -127h-41v194h95z" />
    <glyph glyph-name="Lacute" unicode="&#x139;" horiz-adv-x="470" 
d="M192 627v-528h259l-23 -99h-361v627h125zM233 878l58 -87l-210 -103l-41 55z" />
    <glyph glyph-name="lacute" unicode="&#x13a;" horiz-adv-x="234" 
d="M176 640v-640h-118v618zM181 877l58 -87l-210 -103l-41 55z" />
    <glyph glyph-name="Lcommaaccent" unicode="&#x13b;" horiz-adv-x="470" 
d="M192 627v-528h259l-23 -99h-361v627h125zM304 -56v-67l-54 -127h-41v194h95z" />
    <glyph glyph-name="lcommaaccent" unicode="&#x13c;" horiz-adv-x="234" 
d="M176 640v-640h-118v618zM170 -56v-67l-54 -127h-41v194h95z" />
    <glyph glyph-name="Lcaron" unicode="&#x13d;" horiz-adv-x="470" 
d="M192 627v-528h259l-23 -99h-361v627h125zM355 608v-67l-54 -127h-41v194h95z" />
    <glyph glyph-name="lcaron" unicode="&#x13e;" horiz-adv-x="345" 
d="M176 640v-640h-118v618zM335 628v-67l-54 -127h-41v194h95z" />
    <glyph glyph-name="Ldot" unicode="&#x13f;" horiz-adv-x="470" 
d="M192 627v-528h259l-23 -99h-361v627h125zM370 609v-112h-118v112h118z" />
    <glyph glyph-name="ldot" unicode="&#x140;" horiz-adv-x="365" 
d="M176 640v-640h-118v618zM354 399v-112h-118v112h118z" />
    <glyph glyph-name="Lslash" unicode="&#x141;" horiz-adv-x="471" 
d="M199 627v-223l98 35v-103l-98 -36v-201h259l-23 -99h-361v255l-82 -30v105l82 29v268h125z" />
    <glyph glyph-name="lslash" unicode="&#x142;" horiz-adv-x="285" 
d="M199 640v-204l93 37v-105l-93 -37v-331h-118v283l-88 -35v105l88 35v230z" />
    <glyph glyph-name="Nacute" unicode="&#x143;" horiz-adv-x="635" 
d="M153 627l308 -418v418h107v-627h-91l-303 396v-396h-107v627h86zM390 878l58 -87l-210 -103l-41 55z" />
    <glyph glyph-name="nacute" unicode="&#x144;" horiz-adv-x="536" 
d="M106 476l33 -71h1q8 13 20 25.5t24 20.5q26 18 56.5 26t62.5 8q45 0 82 -16t60 -45q23 -30 30.5 -68.5t7.5 -100.5v-255h-118v258q0 42 -2.5 67t-16.5 44q-11 16 -29.5 23.5t-38.5 7.5t-41 -7.5t-37 -27.5q-17 -20 -21.5 -48.5t-4.5 -81.5v-235h-118v476h50zM341 730
l58 -87l-210 -103l-41 55z" />
    <glyph glyph-name="Ncommaaccent" unicode="&#x145;" horiz-adv-x="635" 
d="M153 627l308 -418v418h107v-627h-91l-303 396v-396h-107v627h86zM375 -56v-67l-54 -127h-41v194h95z" />
    <glyph glyph-name="ncommaaccent" unicode="&#x146;" horiz-adv-x="536" 
d="M106 476l33 -71h1q8 13 20 25.5t24 20.5q26 18 56.5 26t62.5 8q45 0 82 -16t60 -45q23 -30 30.5 -68.5t7.5 -100.5v-255h-118v258q0 42 -2.5 67t-16.5 44q-11 16 -29.5 23.5t-38.5 7.5t-41 -7.5t-37 -27.5q-17 -20 -21.5 -48.5t-4.5 -81.5v-235h-118v476h50zM323 -56v-67
l-54 -127h-41v194h95z" />
    <glyph glyph-name="Ncaron" unicode="&#x147;" horiz-adv-x="635" 
d="M153 627l308 -418v418h107v-627h-91l-303 396v-396h-107v627h86zM211 856l112 -89l112 89l54 -47l-122 -117h-88l-122 117z" />
    <glyph glyph-name="ncaron" unicode="&#x148;" horiz-adv-x="536" 
d="M106 476l33 -71h1q8 13 20 25.5t24 20.5q26 18 56.5 26t62.5 8q45 0 82 -16t60 -45q23 -30 30.5 -68.5t7.5 -100.5v-255h-118v258q0 42 -2.5 67t-16.5 44q-11 16 -29.5 23.5t-38.5 7.5t-41 -7.5t-37 -27.5q-17 -20 -21.5 -48.5t-4.5 -81.5v-235h-118v476h50zM161 710
l112 -89l112 89l54 -47l-123 -117h-87l-122 117z" />
    <glyph glyph-name="napostrophe" unicode="&#x149;" horiz-adv-x="536" 
d="M106 476l33 -71h1q8 13 20 25.5t24 20.5q26 18 56.5 26t62.5 8q45 0 82 -16t60 -45q23 -30 30.5 -68.5t7.5 -100.5v-255h-118v258q0 42 -2.5 67t-16.5 44q-11 16 -29.5 23.5t-38.5 7.5t-41 -7.5t-37 -27.5q-17 -20 -21.5 -48.5t-4.5 -81.5v-235h-118v476h50zM68 701v-67
l-54 -127h-41v194h95z" />
    <glyph glyph-name="Eng" unicode="&#x14a;" horiz-adv-x="635" 
d="M153 627l308 -418v418h107v-631q0 -101 -43.5 -145t-128.5 -44q-11 0 -24 2t-26.5 5t-25 6.5t-18.5 6.5l-17 95q34 -10 55.5 -13.5t43.5 -3.5q30 0 53.5 16t23.5 53v47l-287 375v-396h-107v627h86z" />
    <glyph glyph-name="eng" unicode="&#x14b;" horiz-adv-x="536" 
d="M106 476l33 -71h1q8 13 20 25.5t24 20.5q26 18 56.5 26t62.5 8q45 0 82 -16t60 -45q23 -30 30.5 -68.5t7.5 -100.5v-153q0 -48 -1.5 -81t-4.5 -56t-8 -39.5t-12 -30.5q-20 -42 -61 -65t-107 -23h-10.5t-10.5 1l-23 83h20q81 0 94 57q4 17 5 51t1 103v156q0 42 -2.5 67
t-16.5 44q-11 16 -29.5 23.5t-38.5 7.5t-41 -7.5t-37 -27.5q-17 -20 -21.5 -48.5t-4.5 -81.5v-235h-118v476h50z" />
    <glyph glyph-name="Omacron" unicode="&#x14c;" horiz-adv-x="634" 
d="M317 538q-37 0 -65 -16.5t-47 -46.5t-28.5 -71t-9.5 -90t9.5 -90t28.5 -70.5t47 -46t65 -16.5t65 16.5t47 46t28.5 70.5t9.5 90t-9.5 90t-28.5 71t-47 46.5t-65 16.5zM317 640q69 0 122.5 -26t89.5 -70t54.5 -103.5t18.5 -126.5t-18.5 -126t-54.5 -103.5t-89.5 -70
t-122.5 -25.5t-122.5 25.5t-89.5 70t-54.5 103.5t-18.5 126t18.5 126.5t54.5 103.5t89.5 70t122.5 26zM451 790l-10 -86h-260l10 86h260z" />
    <glyph glyph-name="omacron" unicode="&#x14d;" horiz-adv-x="542" 
d="M271 485q53 0 96.5 -18.5t74.5 -51.5t48 -78t17 -99t-17 -99.5t-48 -78.5t-74.5 -52t-96.5 -19q-54 0 -98 19t-74.5 52t-47 78.5t-16.5 99.5t16.5 99t47 78t74.5 51.5t98 18.5zM271 404q-54 0 -80.5 -43.5t-26.5 -123.5q0 -81 26.5 -124t80.5 -43q52 0 79.5 43t27.5 124
t-27.5 124t-79.5 43zM406 653l-10 -86h-260l10 86h260z" />
    <glyph glyph-name="Obreve" unicode="&#x14e;" horiz-adv-x="634" 
d="M317 538q-37 0 -65 -16.5t-47 -46.5t-28.5 -71t-9.5 -90t9.5 -90t28.5 -70.5t47 -46t65 -16.5t65 16.5t47 46t28.5 70.5t9.5 90t-9.5 90t-28.5 71t-47 46.5t-65 16.5zM317 640q69 0 122.5 -26t89.5 -70t54.5 -103.5t18.5 -126.5t-18.5 -126t-54.5 -103.5t-89.5 -70
t-122.5 -25.5t-122.5 25.5t-89.5 70t-54.5 103.5t-18.5 126t18.5 126.5t54.5 103.5t89.5 70t122.5 26zM241 821q8 -26 28 -41.5t48 -15.5q29 0 48.5 15.5t27.5 41.5l71 -13q-7 -50 -46 -83t-101 -33t-101 33t-46 83z" />
    <glyph glyph-name="obreve" unicode="&#x14f;" horiz-adv-x="542" 
d="M271 485q53 0 96.5 -18.5t74.5 -51.5t48 -78t17 -99t-17 -99.5t-48 -78.5t-74.5 -52t-96.5 -19q-54 0 -98 19t-74.5 52t-47 78.5t-16.5 99.5t16.5 99t47 78t74.5 51.5t98 18.5zM271 404q-54 0 -80.5 -43.5t-26.5 -123.5q0 -81 26.5 -124t80.5 -43q52 0 79.5 43t27.5 124
t-27.5 124t-79.5 43zM194 674q8 -26 28 -41.5t48 -15.5q29 0 48.5 15.5t27.5 41.5l71 -13q-7 -50 -46 -83t-101 -33t-101 33t-46 83z" />
    <glyph glyph-name="Ohungarumlaut" unicode="&#x150;" horiz-adv-x="634" 
d="M317 538q-37 0 -65 -16.5t-47 -46.5t-28.5 -71t-9.5 -90t9.5 -90t28.5 -70.5t47 -46t65 -16.5t65 16.5t47 46t28.5 70.5t9.5 90t-9.5 90t-28.5 71t-47 46.5t-65 16.5zM317 640q69 0 122.5 -26t89.5 -70t54.5 -103.5t18.5 -126.5t-18.5 -126t-54.5 -103.5t-89.5 -70
t-122.5 -25.5t-122.5 25.5t-89.5 70t-54.5 103.5t-18.5 126t18.5 126.5t54.5 103.5t89.5 70t122.5 26zM345 836l-142 -144l-55 40l115 169zM543 812l-148 -127l-53 43l122 152z" />
    <glyph glyph-name="ohungarumlaut" unicode="&#x151;" horiz-adv-x="542" 
d="M271 485q53 0 96.5 -18.5t74.5 -51.5t48 -78t17 -99t-17 -99.5t-48 -78.5t-74.5 -52t-96.5 -19q-54 0 -98 19t-74.5 52t-47 78.5t-16.5 99.5t16.5 99t47 78t74.5 51.5t98 18.5zM271 404q-54 0 -80.5 -43.5t-26.5 -123.5q0 -81 26.5 -124t80.5 -43q52 0 79.5 43t27.5 124
t-27.5 124t-79.5 43zM295 686l-142 -144l-55 40l115 169zM493 662l-148 -127l-53 43l122 152z" />
    <glyph glyph-name="OE" unicode="&#x152;" horiz-adv-x="872" 
d="M842 627l-30 -99h-231v-172h212l-23 -99h-189v-158h273l-23 -99h-363v63q-26 -35 -69 -54.5t-92 -19.5q-66 0 -117 25.5t-85.5 70t-52 103.5t-17.5 126t17.5 126.5t52 103.5t85.5 70t117 26q50 0 93 -19.5t68 -54.5v61h374zM317 538q-37 0 -65.5 -16.5t-47.5 -46.5
t-29 -71t-10 -90t10 -90t29 -70.5t47.5 -46t65.5 -16.5q69 0 109.5 58.5t40.5 164.5t-40.5 165t-109.5 59z" />
    <glyph glyph-name="oe" unicode="&#x153;" horiz-adv-x="839" 
d="M378 244q-2 77 -28 118.5t-77 41.5q-52 0 -80.5 -43t-28.5 -123q0 -81 26.5 -125t80.5 -44q52 0 79.5 44t27.5 125v6zM684 288v8q0 59 -22.5 85.5t-58.5 26.5q-20 0 -36.5 -9t-31.5 -32q-20 -30 -26 -79h175zM507 209q10 -75 44.5 -104.5t93.5 -29.5q29 0 61 9t74 29
l8 -84q-35 -20 -77.5 -30t-86.5 -10q-64 0 -106 18t-77 52q-32 -33 -74.5 -51.5t-95.5 -18.5q-54 0 -98 18t-74.5 51t-47 79t-16.5 102q0 54 18 99t49.5 77.5t75 51t95.5 18.5t94.5 -18t74.5 -50q30 32 71 50t90 18q51 0 89 -17t63.5 -46.5t38 -70t12.5 -86.5
q0 -6 -0.5 -19.5t-2.5 -36.5h-296z" />
    <glyph glyph-name="Racute" unicode="&#x154;" horiz-adv-x="564" 
d="M229 627q144 0 208.5 -46t64.5 -143q0 -57 -24 -98t-75 -72l148 -268h-136l-122 236h-101v-236h-125v627h162zM192 330h63q57 0 86 22.5t29 76.5t-29 76.5t-86 22.5h-63v-198zM342 878l58 -87l-210 -103l-41 55z" />
    <glyph glyph-name="racute" unicode="&#x155;" horiz-adv-x="324" 
d="M106 476l33 -71h1q8 13 20 26.5t24 21.5q26 18 52.5 25t58.5 7q4 0 10.5 -0.5t9.5 -1.5l-8 -90q-7 1 -13 1.5t-14 0.5q-20 0 -42 -7t-38 -27q-8 -10 -13 -21t-8 -26t-4 -34.5t-1 -45.5v-234h-118v476h50zM250 730l58 -87l-210 -103l-41 55z" />
    <glyph glyph-name="Rcommaaccent" unicode="&#x156;" horiz-adv-x="564" 
d="M229 627q144 0 208.5 -46t64.5 -143q0 -57 -24 -98t-75 -72l148 -268h-136l-122 236h-101v-236h-125v627h162zM192 330h63q57 0 86 22.5t29 76.5t-29 76.5t-86 22.5h-63v-198zM349 -56v-67l-54 -127h-41v194h95z" />
    <glyph glyph-name="rcommaaccent" unicode="&#x157;" horiz-adv-x="324" 
d="M106 476l33 -71h1q8 13 20 26.5t24 21.5q26 18 52.5 25t58.5 7q4 0 10.5 -0.5t9.5 -1.5l-8 -90q-7 1 -13 1.5t-14 0.5q-20 0 -42 -7t-38 -27q-8 -10 -13 -21t-8 -26t-4 -34.5t-1 -45.5v-234h-118v476h50zM167 -56v-67l-54 -127h-41v194h95z" />
    <glyph glyph-name="Rcaron" unicode="&#x158;" horiz-adv-x="564" 
d="M229 627q144 0 208.5 -46t64.5 -143q0 -57 -24 -98t-75 -72l148 -268h-136l-122 236h-101v-236h-125v627h162zM192 330h63q57 0 86 22.5t29 76.5t-29 76.5t-86 22.5h-63v-198zM170 856l112 -89l112 89l54 -47l-122 -117h-88l-122 117z" />
    <glyph glyph-name="rcaron" unicode="&#x159;" horiz-adv-x="324" 
d="M106 476l33 -71h1q8 13 20 26.5t24 21.5q26 18 52.5 25t58.5 7q4 0 10.5 -0.5t9.5 -1.5l-8 -90q-7 1 -13 1.5t-14 0.5q-20 0 -42 -7t-38 -27q-8 -10 -13 -21t-8 -26t-4 -34.5t-1 -45.5v-234h-118v476h50zM63 710l112 -89l112 89l54 -47l-123 -117h-87l-122 117z" />
    <glyph glyph-name="Sacute" unicode="&#x15a;" horiz-adv-x="494" 
d="M408 502q-30 18 -68 28.5t-72 10.5q-45 0 -71 -18.5t-26 -51.5q0 -21 17 -38q12 -12 30.5 -22t41.5 -21l40 -19q86 -41 120.5 -87t34.5 -107q0 -48 -17 -83.5t-48 -58.5t-73 -34.5t-91 -11.5q-50 0 -94 10.5t-87 29.5l8 114q39 -23 83.5 -38t86.5 -15q47 0 79 18.5
t32 56.5t-28.5 60.5t-71.5 41.5l-23 10q-30 13 -60 28t-54 36.5t-39.5 51t-15.5 70.5q0 44 17.5 77t47 55.5t68 33.5t79.5 11q44 0 87 -10t76 -27zM311 878l58 -87l-210 -103l-41 55z" />
    <glyph glyph-name="sacute" unicode="&#x15b;" horiz-adv-x="409" 
d="M342 370q-32 19 -63 27t-56 8q-26 0 -46 -9t-20 -34q0 -14 11 -24.5t28.5 -20.5t39.5 -20.5t44 -23.5q19 -11 37 -24t31.5 -29.5t21.5 -37t8 -45.5q0 -26 -8 -50t-23 -43q-23 -27 -58 -41t-78 -14q-52 0 -89.5 9t-66.5 21l3 88q35 -17 70.5 -26.5t68.5 -9.5q32 0 52.5 11
t22.5 36q2 22 -16 38t-65 39l-50 25t-47 30t-35 40.5t-14 56.5q0 29 11.5 54t32.5 44t51 29.5t68 10.5q40 0 75.5 -8t62.5 -22zM268 730l58 -87l-210 -103l-41 55z" />
    <glyph glyph-name="Scircumflex" unicode="&#x15c;" horiz-adv-x="494" 
d="M408 502q-30 18 -68 28.5t-72 10.5q-45 0 -71 -18.5t-26 -51.5q0 -21 17 -38q12 -12 30.5 -22t41.5 -21l40 -19q86 -41 120.5 -87t34.5 -107q0 -48 -17 -83.5t-48 -58.5t-73 -34.5t-91 -11.5q-50 0 -94 10.5t-87 29.5l8 114q39 -23 83.5 -38t86.5 -15q47 0 79 18.5
t32 56.5t-28.5 60.5t-71.5 41.5l-23 10q-30 13 -60 28t-54 36.5t-39.5 51t-15.5 70.5q0 44 17.5 77t47 55.5t68 33.5t79.5 11q44 0 87 -10t76 -27zM208 853h88l122 -117l-54 -47l-112 89l-112 -89l-54 47z" />
    <glyph glyph-name="scircumflex" unicode="&#x15d;" horiz-adv-x="409" 
d="M342 370q-32 19 -63 27t-56 8q-26 0 -46 -9t-20 -34q0 -14 11 -24.5t28.5 -20.5t39.5 -20.5t44 -23.5q19 -11 37 -24t31.5 -29.5t21.5 -37t8 -45.5q0 -26 -8 -50t-23 -43q-23 -27 -58 -41t-78 -14q-52 0 -89.5 9t-66.5 21l3 88q35 -17 70.5 -26.5t68.5 -9.5q32 0 52.5 11
t22.5 36q2 22 -16 38t-65 39l-50 25t-47 30t-35 40.5t-14 56.5q0 29 11.5 54t32.5 44t51 29.5t68 10.5q40 0 75.5 -8t62.5 -22zM164 706h88l122 -117l-54 -47l-112 89l-112 -89l-54 47z" />
    <glyph glyph-name="Scedilla" unicode="&#x15e;" horiz-adv-x="494" 
d="M408 502q-30 18 -68 28.5t-72 10.5q-45 0 -71 -18.5t-26 -51.5q0 -21 17 -38q12 -12 30.5 -22t41.5 -21l40 -19q86 -41 120.5 -87t34.5 -107q0 -45 -15 -78.5t-42 -57t-64.5 -36t-81.5 -15.5l-4 -22q49 -5 74.5 -27t25.5 -54q0 -35 -30 -57.5t-87 -22.5q-10 0 -26.5 1.5
t-33.5 6.5l-11 59q20 -6 36 -8t22 -2q32 0 42.5 8t10.5 20q0 14 -10 22.5t-34 11.5q-18 2 -28 0l-13 17l9 47q-41 3 -77.5 13t-72.5 26l8 114q39 -23 83.5 -38t86.5 -15q47 0 79 18.5t32 56.5t-28.5 60.5t-71.5 41.5l-23 10q-30 13 -60 28t-54 36.5t-39.5 51t-15.5 70.5
q0 44 17.5 77t47 55.5t68 33.5t79.5 11q44 0 87 -10t76 -27z" />
    <glyph glyph-name="scedilla" unicode="&#x15f;" horiz-adv-x="409" 
d="M342 370q-32 19 -63 27t-56 8q-26 0 -46 -9t-20 -34q0 -14 11 -24.5t28.5 -20.5t39.5 -20.5t44 -23.5q19 -11 37 -24t31.5 -29.5t21.5 -37t8 -45.5q0 -26 -8 -50t-23 -43q-23 -27 -58 -41t-77 -14l-4 -21q49 -5 74.5 -27t25.5 -54q0 -35 -30 -57.5t-87 -22.5
q-10 0 -26.5 1.5t-33.5 6.5l-11 59q20 -6 36 -8t22 -2q32 0 42.5 8t10.5 20q0 14 -10 22.5t-34 11.5q-18 2 -28 0l-13 17l9 50q-31 4 -55.5 10.5t-44.5 15.5l3 88q35 -17 70.5 -26.5t68.5 -9.5q32 0 52.5 11t22.5 36q2 22 -16 38t-65 39l-50 25t-47 30t-35 40.5t-14 56.5
q0 29 11.5 54t32.5 44t51 29.5t68 10.5q40 0 75.5 -8t62.5 -22z" />
    <glyph glyph-name="Scaron" unicode="&#x160;" horiz-adv-x="494" 
d="M408 502q-30 18 -68 28.5t-72 10.5q-45 0 -71 -18.5t-26 -51.5q0 -21 17 -38q12 -12 30.5 -22t41.5 -21l40 -19q86 -41 120.5 -87t34.5 -107q0 -48 -17 -83.5t-48 -58.5t-73 -34.5t-91 -11.5q-50 0 -94 10.5t-87 29.5l8 114q39 -23 83.5 -38t86.5 -15q47 0 79 18.5
t32 56.5t-28.5 60.5t-71.5 41.5l-23 10q-30 13 -60 28t-54 36.5t-39.5 51t-15.5 70.5q0 44 17.5 77t47 55.5t68 33.5t79.5 11q44 0 87 -10t76 -27zM141 856l112 -89l112 89l54 -47l-122 -117h-88l-122 117z" />
    <glyph glyph-name="scaron" unicode="&#x161;" horiz-adv-x="409" 
d="M342 370q-32 19 -63 27t-56 8q-26 0 -46 -9t-20 -34q0 -14 11 -24.5t28.5 -20.5t39.5 -20.5t44 -23.5q19 -11 37 -24t31.5 -29.5t21.5 -37t8 -45.5q0 -26 -8 -50t-23 -43q-23 -27 -58 -41t-78 -14q-52 0 -89.5 9t-66.5 21l3 88q35 -17 70.5 -26.5t68.5 -9.5q32 0 52.5 11
t22.5 36q2 22 -16 38t-65 39l-50 25t-47 30t-35 40.5t-14 56.5q0 29 11.5 54t32.5 44t51 29.5t68 10.5q40 0 75.5 -8t62.5 -22zM93 710l112 -89l112 89l54 -47l-123 -117h-87l-122 117z" />
    <glyph glyph-name="Tcommaaccent" unicode="&#x162;" horiz-adv-x="533" 
d="M520 627l-13 -99h-179v-528h-125v528h-188l13 99h492zM318 -56v-67l-54 -127h-41v194h95z" />
    <glyph glyph-name="tcommaaccent" unicode="&#x163;" horiz-adv-x="380" 
d="M198 607v-131h144l-22 -76h-122v-248q0 -37 15.5 -57t51.5 -20q17 0 41.5 5.5t50.5 16.5l8 -84q-9 -5 -24 -9t-32 -7.5t-34.5 -5.5t-33.5 -2q-84 0 -122.5 42t-38.5 123v248l-77 24v50h77v108zM274 -56v-67l-54 -127h-41v194h95z" />
    <glyph glyph-name="Tcaron" unicode="&#x164;" horiz-adv-x="533" 
d="M520 627l-13 -99h-179v-528h-125v528h-188l13 99h492zM152 856l112 -89l112 89l54 -47l-122 -117h-88l-122 117z" />
    <glyph glyph-name="tcaron" unicode="&#x165;" horiz-adv-x="380" 
d="M198 607v-131h144l-22 -76h-122v-248q0 -37 15.5 -57t51.5 -20q17 0 41.5 5.5t50.5 16.5l8 -84q-9 -5 -24 -9t-32 -7.5t-34.5 -5.5t-33.5 -2q-84 0 -122.5 42t-38.5 123v248l-77 24v50h77v108zM358 701v-67l-54 -127h-41v194h95z" />
    <glyph glyph-name="Tbar" unicode="&#x166;" horiz-adv-x="533" 
d="M520 627l-13 -99h-179v-154h135v-94h-135v-280h-125v280h-137v94h137v154h-188l13 99h492z" />
    <glyph glyph-name="tbar" unicode="&#x167;" horiz-adv-x="380" 
d="M198 607v-131h144l-22 -76h-122v-99h91v-76h-91v-73q0 -37 15.5 -57t51.5 -20q17 0 41.5 5.5t50.5 16.5l8 -84q-9 -5 -24 -9t-32 -7.5t-34.5 -5.5t-33.5 -2q-84 0 -122.5 42t-38.5 123v71h-64v76h64v101l-77 24v50h77v108z" />
    <glyph glyph-name="Utilde" unicode="&#x168;" horiz-adv-x="625" 
d="M189 627v-389q0 -38 6 -63.5t19 -42.5t39.5 -29t61.5 -12q36 0 61 10.5t39 26.5q20 22 25 50.5t5 58.5v390h116v-391q0 -52 -10 -94.5t-35 -71.5q-29 -35 -80.5 -58t-124.5 -23q-67 0 -115 18t-79 50q-28 30 -40.5 72t-12.5 104v394h125zM133 730q4 16 14.5 30.5
t25.5 25.5t32.5 17.5t35.5 6.5q19 0 37 -6.5t29 -12.5q12 -6 25.5 -13.5t27.5 -7.5q37 0 56 37l54 -38q-11 -32 -41 -54.5t-68 -22.5q-20 0 -36 7t-32 15q-11 5 -24 12t-26 7q-17 0 -32 -10.5t-26 -33.5z" />
    <glyph glyph-name="utilde" unicode="&#x169;" horiz-adv-x="522" 
d="M171 476v-263q0 -29 1 -53.5t8 -42.5q16 -40 68 -40q32 0 53 13.5t32 33.5q9 17 12 36t3 41v275h118v-476h-50l-33 66q-10 -18 -26 -32q-23 -21 -58 -33t-77 -12q-49 0 -81 14t-51 37q-23 30 -30 67t-7 86v283h118zM82 583q4 16 14.5 30.5t25.5 25.5t32.5 17.5t35.5 6.5
q19 0 38 -6.5t30 -12.5l27 -13.5t29 -7.5q37 0 56 37l54 -38q-11 -32 -41 -54.5t-68 -22.5q-20 0 -37.5 7t-33.5 15q-11 5 -25 12t-27 7q-17 0 -32 -10.5t-26 -33.5z" />
    <glyph glyph-name="Umacron" unicode="&#x16a;" horiz-adv-x="625" 
d="M189 627v-389q0 -38 6 -63.5t19 -42.5t39.5 -29t61.5 -12q36 0 61 10.5t39 26.5q20 22 25 50.5t5 58.5v390h116v-391q0 -52 -10 -94.5t-35 -71.5q-29 -35 -80.5 -58t-124.5 -23q-67 0 -115 18t-79 50q-28 30 -40.5 72t-12.5 104v394h125zM449 790l-10 -86h-260l10 86h260
z" />
    <glyph glyph-name="umacron" unicode="&#x16b;" horiz-adv-x="522" 
d="M171 476v-263q0 -29 1 -53.5t8 -42.5q16 -40 68 -40q32 0 53 13.5t32 33.5q9 17 12 36t3 41v275h118v-476h-50l-33 66q-10 -18 -26 -32q-23 -21 -58 -33t-77 -12q-49 0 -81 14t-51 37q-23 30 -30 67t-7 86v283h118zM389 653l-10 -86h-260l10 86h260z" />
    <glyph glyph-name="Ubreve" unicode="&#x16c;" horiz-adv-x="625" 
d="M189 627v-389q0 -38 6 -63.5t19 -42.5t39.5 -29t61.5 -12q36 0 61 10.5t39 26.5q20 22 25 50.5t5 58.5v390h116v-391q0 -52 -10 -94.5t-35 -71.5q-29 -35 -80.5 -58t-124.5 -23q-67 0 -115 18t-79 50q-28 30 -40.5 72t-12.5 104v394h125zM236 821q8 -26 28 -41.5
t48 -15.5q29 0 48.5 15.5t27.5 41.5l71 -13q-7 -50 -46 -83t-101 -33t-101 33t-46 83z" />
    <glyph glyph-name="ubreve" unicode="&#x16d;" horiz-adv-x="522" 
d="M171 476v-263q0 -29 1 -53.5t8 -42.5q16 -40 68 -40q32 0 53 13.5t32 33.5q9 17 12 36t3 41v275h118v-476h-50l-33 66q-10 -18 -26 -32q-23 -21 -58 -33t-77 -12q-49 0 -81 14t-51 37q-23 30 -30 67t-7 86v283h118zM182 674q8 -26 28 -41.5t48 -15.5q29 0 48.5 15.5
t27.5 41.5l71 -13q-7 -50 -46 -83t-101 -33t-101 33t-46 83z" />
    <glyph glyph-name="Uring" unicode="&#x16e;" horiz-adv-x="625" 
d="M189 627v-389q0 -38 6 -63.5t19 -42.5t39.5 -29t61.5 -12q36 0 61 10.5t39 26.5q20 22 25 50.5t5 58.5v390h116v-391q0 -52 -10 -94.5t-35 -71.5q-29 -35 -80.5 -58t-124.5 -23q-67 0 -115 18t-79 50q-28 30 -40.5 72t-12.5 104v394h125zM314 823q-44 0 -44 -45
q0 -21 11.5 -33t32.5 -12q20 0 32 12t12 33q0 22 -12 33.5t-32 11.5zM215 778q0 44 27 71t72 27t72 -27t27 -71t-27 -71t-72 -27t-72 27t-27 71z" />
    <glyph glyph-name="uring" unicode="&#x16f;" horiz-adv-x="522" 
d="M171 476v-263q0 -29 1 -53.5t8 -42.5q16 -40 68 -40q32 0 53 13.5t32 33.5q9 17 12 36t3 41v275h118v-476h-50l-33 66q-10 -18 -26 -32q-23 -21 -58 -33t-77 -12q-49 0 -81 14t-51 37q-23 30 -30 67t-7 86v283h118zM253 678q-44 0 -44 -45q0 -21 11.5 -33t32.5 -12
q20 0 32 12t12 33q0 22 -12 33.5t-32 11.5zM154 633q0 44 27 71t72 27t72 -27t27 -71t-27 -71t-72 -27t-72 27t-27 71z" />
    <glyph glyph-name="Uhungarumlaut" unicode="&#x170;" horiz-adv-x="625" 
d="M189 627v-389q0 -38 6 -63.5t19 -42.5t39.5 -29t61.5 -12q36 0 61 10.5t39 26.5q20 22 25 50.5t5 58.5v390h116v-391q0 -52 -10 -94.5t-35 -71.5q-29 -35 -80.5 -58t-124.5 -23q-67 0 -115 18t-79 50q-28 30 -40.5 72t-12.5 104v394h125zM334 836l-142 -144l-55 40
l115 169zM532 812l-148 -127l-53 43l122 152z" />
    <glyph glyph-name="uhungarumlaut" unicode="&#x171;" horiz-adv-x="522" 
d="M171 476v-263q0 -29 1 -53.5t8 -42.5q16 -40 68 -40q32 0 53 13.5t32 33.5q9 17 12 36t3 41v275h118v-476h-50l-33 66q-10 -18 -26 -32q-23 -21 -58 -33t-77 -12q-49 0 -81 14t-51 37q-23 30 -30 67t-7 86v283h118zM285 686l-142 -144l-55 40l115 169zM483 662l-148 -127
l-53 43l122 152z" />
    <glyph glyph-name="Uogonek" unicode="&#x172;" horiz-adv-x="625" 
d="M189 627v-389q0 -38 6 -63.5t19 -42.5t39.5 -29t61.5 -12q36 0 61 10.5t39 26.5q20 22 25 50.5t5 58.5v390h116v-391q0 -52 -10 -94.5t-35 -71.5q-23 -29 -60.5 -49t-88.5 -28q-32 -20 -47.5 -43.5t-15.5 -44.5q0 -38 44 -38q8 0 24 2t26 5l-11 -60q-29 -7 -54 -7
q-51 0 -78 22.5t-27 63.5q0 22 15 48.5t47 48.5q-59 2 -101.5 19.5t-71.5 47.5q-28 30 -40.5 72t-12.5 104v394h125z" />
    <glyph glyph-name="uogonek" unicode="&#x173;" horiz-adv-x="522" 
d="M171 476v-263q0 -29 1 -53.5t8 -42.5q16 -40 68 -40q32 0 53 13.5t32 33.5q9 17 12 36t3 41v275h118v-476h-22q-38 -20 -56.5 -45.5t-18.5 -49.5q0 -38 44 -38q8 0 24 2t26 5l-11 -60q-29 -7 -54 -7q-51 0 -78 22.5t-27 63.5q0 33 28 69t83 59l-21 45q-10 -18 -26 -32
q-23 -21 -58 -33t-77 -12q-49 0 -81 14t-51 37q-23 30 -30 67t-7 86v283h118z" />
    <glyph glyph-name="Wcircumflex" unicode="&#x174;" horiz-adv-x="844" 
d="M149 627l121 -414l114 295l-40 119h137l127 -414l120 414h112l-198 -627h-86l-124 355l-142 -355h-86l-192 627h137zM388 853h88l122 -117l-54 -47l-112 89l-112 -89l-54 47z" />
    <glyph glyph-name="wcircumflex" unicode="&#x175;" horiz-adv-x="705" 
d="M139 476l90 -289l95 289h77l105 -288l81 288h105l-152 -476h-74l-110 293l-99 -293h-73l-171 476h126zM311 706h88l122 -117l-54 -47l-112 89l-112 -89l-54 47z" />
    <glyph glyph-name="Ycircumflex" unicode="&#x176;" horiz-adv-x="533" 
d="M145 627l138 -269l134 269h112l-197 -382v-245h-125v250l-200 377h138zM222 853h88l122 -117l-54 -47l-112 89l-112 -89l-54 47z" />
    <glyph glyph-name="ycircumflex" unicode="&#x177;" horiz-adv-x="497" 
d="M144 476l115 -323l107 323h116l-170 -463q-20 -54 -37 -92.5t-38.5 -64t-49.5 -37.5t-69 -12h-10t-10 1l-24 87h15q15 0 28 1.5t26.5 11t26.5 29.5t28 57l5 15l-188 467h129zM216 706h88l122 -117l-54 -47l-112 89l-112 -89l-54 47z" />
    <glyph glyph-name="Ydieresis" unicode="&#x178;" horiz-adv-x="538" 
d="M150 627l138 -269l134 269h112l-197 -382v-245h-125v250l-200 377h138zM254 792v-100h-103v100h103zM424 792v-100h-103v100h103z" />
    <glyph glyph-name="Zacute" unicode="&#x179;" horiz-adv-x="494" 
d="M454 627v-53l-272 -475h287l-23 -99h-419v53l263 475h-248v99h412zM311 878l58 -87l-210 -103l-41 55z" />
    <glyph glyph-name="zacute" unicode="&#x17a;" horiz-adv-x="420" 
d="M386 476v-48l-208 -344h219l-23 -84h-339v48l207 344h-197v84h341zM302 730l58 -87l-210 -103l-41 55z" />
    <glyph glyph-name="Zdotaccent" unicode="&#x17b;" horiz-adv-x="494" 
d="M454 627v-53l-272 -475h287l-23 -99h-419v53l263 475h-248v99h412zM312 804v-112h-118v112h118z" />
    <glyph glyph-name="zdotaccent" unicode="&#x17c;" horiz-adv-x="420" 
d="M386 476v-48l-208 -344h219l-23 -84h-339v48l207 344h-197v84h341zM283 658v-112h-118v112h118z" />
    <glyph glyph-name="Zcaron" unicode="&#x17d;" horiz-adv-x="494" 
d="M454 627v-53l-272 -475h287l-23 -99h-419v53l263 475h-248v99h412zM141 856l112 -89l112 89l54 -47l-122 -117h-88l-122 117z" />
    <glyph glyph-name="zcaron" unicode="&#x17e;" horiz-adv-x="420" 
d="M386 476v-48l-208 -344h219l-23 -84h-339v48l207 344h-197v84h341zM122 710l112 -89l112 89l54 -47l-123 -117h-87l-122 117z" />
    <glyph glyph-name="florin" unicode="&#x192;" horiz-adv-x="488" 
d="M202 451l15 54q17 62 54.5 98.5t109.5 36.5q31 0 58.5 -5.5t45.5 -13.5l-8 -84q-21 10 -38 13.5t-34 3.5q-35 0 -56 -16.5t-31 -57.5l-7 -29h121l-22 -71h-117l-68 -385q-9 -48 -21.5 -83.5t-32.5 -58.5t-49 -34.5t-70 -11.5h-10t-10 1l-24 87h15q15 0 29 1.5t26 10.5
t22 29t17 58l68 388h-74l22 69h69z" />
    <glyph glyph-name="Aringacute" unicode="&#x1fa;" horiz-adv-x="592" 
d="M336 636l247 -636h-137l-62 166h-201l-62 -166h-112l241 615zM217 261h131l-66 176zM341 1075l58 -87l-210 -103l-41 55zM283 823q-44 0 -44 -45q0 -21 11.5 -33t32.5 -12q20 0 32 12t12 33q0 22 -12 33.5t-32 11.5zM184 778q0 44 27 71t72 27t72 -27t27 -71t-27 -71
t-72 -27t-72 27t-27 71z" />
    <glyph glyph-name="aringacute" unicode="&#x1fb;" horiz-adv-x="505" 
d="M79 450q35 15 79 25t97 10q18 0 39 -3t43 -10t42.5 -19t35.5 -30q19 -22 28 -56t9 -78v-289h-50l-35 62q-23 -41 -65.5 -57t-90.5 -16q-35 0 -67 9t-57 27.5t-40 46.5t-15 66q0 46 24 78t65 52.5t96 30.5t117 12q0 17 -4.5 34t-15.5 28t-30 18.5t-51 7.5t-69 -9t-77 -29z
M334 235q-87 -5 -131 -25.5t-44 -67.5q0 -32 20.5 -49.5t51.5 -17.5q42 0 72.5 21t30.5 72v67zM253 678q-44 0 -44 -45q0 -21 11.5 -33t32.5 -12q20 0 32 12t12 33q0 22 -12 33.5t-32 11.5zM154 633q0 44 27 71t72 27t72 -27t27 -71t-27 -71t-72 -27t-72 27t-27 71zM311 930
l58 -87l-210 -103l-41 55z" />
    <glyph glyph-name="AEacute" unicode="&#x1fc;" horiz-adv-x="786" 
d="M756 627l-30 -99h-229v-172h210l-23 -99h-187v-158h271l-23 -99h-364v185h-167l-89 -185h-112l304 627h439zM258 280h123v248h-10zM592 878l58 -87l-210 -103l-41 55z" />
    <glyph glyph-name="aeacute" unicode="&#x1fd;" horiz-adv-x="780" 
d="M79 455q29 12 75 21t93 9q109 0 156 -65q29 32 67 48.5t81 16.5q97 0 146.5 -57t49.5 -150q0 -6 -0.5 -19.5t-2.5 -36.5h-294q6 -75 45 -111t94 -36q29 0 61 9t74 29l8 -84q-35 -20 -77.5 -30t-86.5 -10q-60 0 -105 19.5t-77 54.5q-59 -74 -177 -74q-35 0 -66.5 9
t-56.5 27.5t-39.5 46.5t-14.5 66q0 36 16.5 65.5t51 51.5t87 34t123.5 12h22q0 55 -26 76.5t-81 21.5q-27 0 -65 -8t-73 -20zM308 222q-80 0 -114.5 -20.5t-34.5 -59.5q0 -32 19.5 -49.5t50.5 -17.5q42 0 72.5 21t30.5 72v54h-24zM625 301v8q0 53 -19.5 76t-59.5 23
q-33 0 -60 -26.5t-34 -80.5h173zM465 730l58 -87l-210 -103l-41 55z" />
    <glyph glyph-name="Oslashacute" unicode="&#x1fe;" horiz-adv-x="636" 
d="M317 640q51 0 97 -16l29 70h66l-40 -96q66 -42 99.5 -117.5t33.5 -166.5q0 -67 -18.5 -126t-54.5 -103.5t-89.5 -70t-122.5 -25.5q-53 0 -96 15l-33 -79h-66l44 105q-66 42 -100 117t-34 167q0 67 18.5 126.5t54.5 103.5t89.5 70t122.5 26zM317 538q-37 0 -65 -16.5
t-47 -46.5t-28.5 -71t-9.5 -90q0 -54 11.5 -98t34.5 -74l160 384q-26 12 -56 12zM467 314q0 54 -11 97.5t-34 73.5l-160 -383q22 -11 55 -11q37 0 65 16.5t47 46t28.5 70.5t9.5 90zM381 878l58 -87l-210 -103l-41 55z" />
    <glyph glyph-name="oslashacute" unicode="&#x1ff;" horiz-adv-x="542" 
d="M271 485q36 0 69 -9l21 51h54l-29 -70q57 -30 89 -87t32 -132q0 -54 -17 -99.5t-48 -78.5t-74.5 -52t-96.5 -19q-19 0 -36.5 2.5t-34.5 7.5l-22 -56h-54l30 74q-57 30 -88 88t-31 133q0 54 16.5 99t47 78t74.5 51.5t98 18.5zM378 237q0 84 -30 126l-116 -286q17 -7 39 -7
q52 0 79.5 43t27.5 124zM271 404q-54 0 -80.5 -43.5t-26.5 -123.5q0 -85 28 -126l116 286q-19 7 -37 7zM321 730l58 -87l-210 -103l-41 55z" />
    <glyph glyph-name="Scommaaccent" unicode="&#x218;" horiz-adv-x="494" 
d="M408 502q-30 18 -68 28.5t-72 10.5q-45 0 -71 -18.5t-26 -51.5q0 -21 17 -38q12 -12 30.5 -22t41.5 -21l40 -19q86 -41 120.5 -87t34.5 -107q0 -48 -17 -83.5t-48 -58.5t-73 -34.5t-91 -11.5q-50 0 -94 10.5t-87 29.5l8 114q39 -23 83.5 -38t86.5 -15q47 0 79 18.5
t32 56.5t-28.5 60.5t-71.5 41.5l-23 10q-30 13 -60 28t-54 36.5t-39.5 51t-15.5 70.5q0 44 17.5 77t47 55.5t68 33.5t79.5 11q44 0 87 -10t76 -27zM303 -56v-67l-54 -127h-41v194h95z" />
    <glyph glyph-name="scommaaccent" unicode="&#x219;" horiz-adv-x="409" 
d="M342 370q-32 19 -63 27t-56 8q-26 0 -46 -9t-20 -34q0 -14 11 -24.5t28.5 -20.5t39.5 -20.5t44 -23.5q19 -11 37 -24t31.5 -29.5t21.5 -37t8 -45.5q0 -26 -8 -50t-23 -43q-23 -27 -58 -41t-78 -14q-52 0 -89.5 9t-66.5 21l3 88q35 -17 70.5 -26.5t68.5 -9.5q32 0 52.5 11
t22.5 36q2 22 -16 38t-65 39l-50 25t-47 30t-35 40.5t-14 56.5q0 29 11.5 54t32.5 44t51 29.5t68 10.5q40 0 75.5 -8t62.5 -22zM263 -56v-67l-54 -127h-41v194h95z" />
    <glyph glyph-name="uni021A" unicode="&#x21a;" horiz-adv-x="533" 
d="M520 627l-13 -99h-179v-528h-125v528h-188l13 99h492zM318 -56v-67l-54 -127h-41v194h95z" />
    <glyph glyph-name="uni021B" unicode="&#x21b;" horiz-adv-x="380" 
d="M198 607v-131h144l-22 -76h-122v-248q0 -37 15.5 -57t51.5 -20q17 0 41.5 5.5t50.5 16.5l8 -84q-9 -5 -24 -9t-32 -7.5t-34.5 -5.5t-33.5 -2q-84 0 -122.5 42t-38.5 123v248l-77 24v50h77v108zM274 -56v-67l-54 -127h-41v194h95z" />
    <glyph glyph-name="circumflex" unicode="&#x2c6;" 
d="M209 706h88l122 -117l-54 -47l-112 89l-112 -89l-54 47z" />
    <glyph glyph-name="caron" unicode="&#x2c7;" 
d="M141 710l112 -89l112 89l54 -47l-123 -117h-87l-122 117z" />
    <glyph glyph-name="breve" unicode="&#x2d8;" 
d="M182 674q8 -26 28 -41.5t48 -15.5q29 0 48.5 15.5t27.5 41.5l71 -13q-7 -50 -46 -83t-101 -33t-101 33t-46 83z" />
    <glyph glyph-name="dotaccent" unicode="&#x2d9;" 
d="M312 658v-112h-118v112h118z" />
    <glyph glyph-name="ring" unicode="&#x2da;" 
d="M253 678q-44 0 -44 -45q0 -21 11.5 -33t32.5 -12q20 0 32 12t12 33q0 22 -12 33.5t-32 11.5zM154 633q0 44 27 71t72 27t72 -27t27 -71t-27 -71t-72 -27t-72 27t-27 71z" />
    <glyph glyph-name="ogonek" unicode="&#x2db;" 
d="M289 0q-38 -20 -56.5 -45.5t-18.5 -49.5q0 -38 44 -38q8 0 24 2t26 5l-11 -60q-29 -7 -54 -7q-51 0 -78 22.5t-27 63.5q0 33 28 69t83 59z" />
    <glyph glyph-name="tilde" unicode="&#x2dc;" 
d="M82 583q4 16 14.5 30.5t25.5 25.5t32.5 17.5t35.5 6.5q19 0 38 -6.5t30 -12.5l27 -13.5t29 -7.5q37 0 56 37l54 -38q-11 -32 -41 -54.5t-68 -22.5q-20 0 -37.5 7t-33.5 15q-11 5 -25 12t-27 7q-17 0 -32 -10.5t-26 -33.5z" />
    <glyph glyph-name="hungarumlaut" unicode="&#x2dd;" 
d="M265 686l-142 -144l-55 40l115 169zM463 662l-148 -127l-53 43l122 152z" />
    <glyph glyph-name="commaaccent" unicode="&#x326;" 
d="M305 -56v-67l-54 -127h-41v194h95z" />
    <glyph glyph-name="Omega" unicode="&#x3a9;" horiz-adv-x="776" 
d="M194 93q-47 45 -74.5 108.5t-27.5 136.5q0 58 20 112.5t58.5 96.5t93.5 67.5t124 25.5t124 -25.5t93.5 -67.5t58.5 -96.5t20 -112.5q0 -70 -28 -134.5t-75 -110.5h122l-27 -93h-231v50q48 38 77 108t29 161q0 49 -11 90t-32 70.5t-51.5 46t-68.5 16.5t-68.5 -16.5
t-51.5 -46t-32 -70.5t-11 -90q0 -91 29 -161t77 -108v-50h-231l-27 93h121z" />
    <glyph glyph-name="pi" unicode="&#x3c0;" horiz-adv-x="754" 
d="M681 475l-13 -98h-102v-377h-108v377h-170v-377h-108v377h-107l13 98h595z" />
    <glyph glyph-name="uni0400" unicode="&#x400;" horiz-adv-x="489" 
d="M452 627l-30 -99h-230v-172h211l-23 -99h-188v-158h272l-23 -99h-374v627h385zM371 759l-41 -55l-210 103l58 87z" />
    <glyph glyph-name="afii10023" unicode="&#x401;" horiz-adv-x="489" 
d="M452 627l-30 -99h-230v-172h211l-23 -99h-188v-158h272l-23 -99h-374v627h385zM217 792v-100h-103v100h103zM387 792v-100h-103v100h103z" />
    <glyph glyph-name="afii10051" unicode="&#x402;" horiz-adv-x="672" 
d="M520 627l-13 -99h-199v-155q20 3 47 5t51 2q57 0 100 -9t72 -32.5t44 -64t15 -103.5v-87q0 -56 -4.5 -87t-17.5 -51q-23 -35 -60 -53.5t-108 -18.5l-8 101q44 0 58.5 23t14.5 73v105q0 64 -29 87t-95 23q-20 0 -43 -2t-37 -5v-279h-125v528h-168l13 99h492z" />
    <glyph glyph-name="afii10052" unicode="&#x403;" horiz-adv-x="474" 
d="M451 627l-23 -99h-236v-528h-125v627h384zM311 878l58 -87l-210 -103l-41 55z" />
    <glyph glyph-name="afii10053" unicode="&#x404;" horiz-adv-x="553" 
d="M369 368v-99h-200q10 -85 53 -131.5t121 -46.5q51 0 91 11t74 31l10 -98q-34 -20 -85 -33t-110 -13q-69 0 -123 24.5t-91.5 68t-57 103t-19.5 129.5q0 66 19.5 125t57 103.5t92.5 71t125 26.5q54 0 102.5 -12.5t74.5 -29.5l-7 -105q-32 20 -71.5 32t-81.5 12
q-32 0 -62 -10t-52 -30q-26 -23 -40.5 -57t-19.5 -72h200z" />
    <glyph glyph-name="afii10054" unicode="&#x405;" horiz-adv-x="494" 
d="M408 500q-30 18 -68 28.5t-72 10.5q-45 0 -71 -18.5t-26 -51.5q0 -21 17 -38q12 -12 30.5 -22t41.5 -21l40 -19q86 -41 120.5 -85.5t34.5 -105.5q0 -48 -17 -83.5t-48 -58.5t-73 -34.5t-91 -11.5q-50 0 -94 10.5t-87 29.5l8 114q39 -23 83.5 -38t86.5 -15q47 0 79 18.5
t32 56.5q0 37 -28.5 58.5t-71.5 40.5l-23 10q-30 13 -60 28t-54 36.5t-39.5 51t-15.5 70.5q0 44 17.5 77t47 55.5t68 33.5t79.5 11q44 0 87 -10t76 -27z" />
    <glyph glyph-name="afii10055" unicode="&#x406;" horiz-adv-x="263" 
d="M194 627v-627h-125v627h125z" />
    <glyph glyph-name="afii10056" unicode="&#x407;" horiz-adv-x="282" 
d="M204 627v-627h-125v627h125zM108 792v-100h-103v100h103zM278 792v-100h-103v100h103z" />
    <glyph glyph-name="afii10057" unicode="&#x408;" horiz-adv-x="372" 
d="M307 627v-449q0 -95 -40.5 -142t-131.5 -47q-11 0 -24 2t-26.5 5t-25 6.5t-18.5 6.5l-17 95q34 -10 55.5 -13.5t43.5 -3.5q30 0 44.5 16t14.5 53v471h125z" />
    <glyph glyph-name="afii10058" unicode="&#x409;" horiz-adv-x="915" 
d="M559 627v-247h48q58 0 109 -7.5t89 -29t59.5 -59.5t21.5 -99q0 -40 -13 -74t-43 -58.5t-78.5 -38.5t-119.5 -14h-198v528h-164l-16 -289q-5 -90 -22 -140t-40 -74t-49 -29t-50 -5q-15 0 -34.5 3t-35.5 9l11 101q11 -5 22 -6.5t18 -1.5q10 0 20 3.5t18.5 17.5t14.5 42.5
t9 79.5l16 289h-65v99h472zM559 99h74q63 0 90.5 22.5t27.5 67.5t-28 67.5t-95 22.5h-69v-180z" />
    <glyph glyph-name="afii10059" unicode="&#x40a;" horiz-adv-x="915" 
d="M192 627v-271h242v271h125v-267h48q58 0 109 -6t89 -25t59.5 -55.5t21.5 -97.5q0 -40 -13 -72.5t-43 -55.5t-78.5 -35.5t-119.5 -12.5h-198v257h-242v-257h-125v627h125zM559 99h74q63 0 90.5 18t27.5 63t-28 62t-95 17h-69v-160z" />
    <glyph glyph-name="afii10060" unicode="&#x40b;" horiz-adv-x="672" 
d="M520 627l-13 -99h-199v-155q20 3 47 5t51 2q60 0 104 -10.5t72 -34.5t41.5 -64t13.5 -100v-171h-125v175q0 62 -28.5 86.5t-95.5 24.5q-20 0 -43 -2t-37 -5v-279h-125v528h-168l13 99h492z" />
    <glyph glyph-name="afii10061" unicode="&#x40c;" horiz-adv-x="555" 
d="M192 627v-286l207 286h124l-205 -283l226 -344h-139l-169 255h-44v-255h-125v627h125zM321 878l58 -87l-210 -103l-41 55z" />
    <glyph glyph-name="uni040D" unicode="&#x40d;" horiz-adv-x="633" 
d="M192 627v-418l266 418h108v-627h-125v396l-261 -396h-113v627h125zM442 759l-41 -55l-210 103l58 87z" />
    <glyph glyph-name="afii10062" unicode="&#x40e;" horiz-adv-x="548" 
d="M158 627l132 -309l123 309h134l-197 -446q-27 -60 -50 -97.5t-48 -58.5t-55 -28.5t-70 -7.5h-22l-28 84h12q54 0 82.5 20t48.5 72l6 15l-217 447h149zM174 884q12 -35 37.5 -55t62.5 -20q38 0 63 20t37 55l67 -16q-2 -30 -15 -56t-34.5 -45.5t-51.5 -30.5t-66 -11t-66 11
t-51.5 30.5t-34.5 45.5t-15 56z" />
    <glyph glyph-name="afii10145" unicode="&#x40f;" horiz-adv-x="626" 
d="M192 627v-528h242v528h125v-627h-189v-132h-115v132h-188v627h125z" />
    <glyph glyph-name="afii10017" unicode="&#x410;" horiz-adv-x="590" 
d="M331 636l247 -636h-137l-62 166h-201l-62 -166h-112l241 615zM212 261h131l-66 176z" />
    <glyph glyph-name="afii10018" unicode="&#x411;" horiz-adv-x="578" 
d="M450 627v-99h-237v-148h57q58 0 109 -7.5t89 -29t59.5 -59.5t21.5 -99q0 -40 -13 -74t-43 -58.5t-78.5 -38.5t-119.5 -14h-207v529h-65v98h427zM213 99h83q63 0 90.5 22.5t27.5 67.5t-28 67.5t-95 22.5h-78v-180z" />
    <glyph glyph-name="afii10019" unicode="&#x412;" horiz-adv-x="557" 
d="M252 627q64 0 107.5 -10.5t70.5 -30t38.5 -49t11.5 -66.5q0 -49 -27 -82.5t-81 -43.5v-4q75 -4 115.5 -48.5t40.5 -108.5q0 -40 -13 -74t-43 -58.5t-78.5 -38t-119.5 -13.5h-207v627h185zM192 380h52q60 0 84 20t24 55t-24 54t-84 19h-52v-148zM192 99h83q63 0 90.5 22.5
t27.5 67.5t-28 67.5t-95 22.5h-78v-180z" />
    <glyph glyph-name="afii10020" unicode="&#x413;" horiz-adv-x="474" 
d="M451 627l-23 -99h-236v-528h-125v627h384z" />
    <glyph glyph-name="afii10021" unicode="&#x414;" horiz-adv-x="659" 
d="M563 627v-528h79v-231h-115v132h-395v-132h-115v231h31q29 32 51.5 95.5t27.5 146.5l9 187h-65v99h492zM246 375q-6 -115 -27 -181t-47 -95h266v429h-184z" />
    <glyph glyph-name="afii10022" unicode="&#x415;" horiz-adv-x="489" 
d="M452 627l-30 -99h-230v-172h211l-23 -99h-188v-158h272l-23 -99h-374v627h385z" />
    <glyph glyph-name="afii10024" unicode="&#x416;" horiz-adv-x="845" 
d="M156 627l207 -286v286h119v-286l207 286h124l-205 -283l226 -344h-139l-169 255h-44v-255h-119v255h-44l-169 -255h-139l226 344l-205 283h124z" />
    <glyph glyph-name="afii10025" unicode="&#x417;" horiz-adv-x="509" 
d="M29 518q28 59 75.5 90.5t125.5 31.5q48 0 85.5 -13t64 -35t40.5 -51t14 -62q0 -43 -20.5 -78.5t-67.5 -57.5q27 -6 49.5 -21t38 -36.5t24.5 -48.5t9 -57q0 -45 -19 -83t-56 -65q-26 -20 -68 -31.5t-101 -11.5q-45 0 -94 13t-81 38l8 107q16 -12 35.5 -22.5t39.5 -18
t39.5 -12t35.5 -4.5q62 0 89.5 25.5t27.5 64.5q0 47 -27.5 71.5t-96.5 24.5h-41v100h41q53 0 75.5 23.5t22.5 63.5q0 30 -21 49t-59 19q-30 0 -53.5 -14.5t-37.5 -44.5z" />
    <glyph glyph-name="afii10026" unicode="&#x418;" horiz-adv-x="633" 
d="M192 627v-418l266 418h108v-627h-125v396l-261 -396h-113v627h125z" />
    <glyph glyph-name="afii10027" unicode="&#x419;" horiz-adv-x="633" 
d="M192 627v-418l266 418h108v-627h-125v396l-261 -396h-113v627h125zM213 811q12 -35 37.5 -55t62.5 -20q38 0 63 20t37 55l67 -16q-2 -30 -15 -56t-34.5 -45.5t-51.5 -30.5t-66 -11t-66 11t-51.5 30.5t-34.5 45.5t-15 56z" />
    <glyph glyph-name="afii10028" unicode="&#x41a;" horiz-adv-x="555" 
d="M192 627v-286l207 286h124l-205 -283l226 -344h-139l-169 255h-44v-255h-125v627h125z" />
    <glyph glyph-name="afii10029" unicode="&#x41b;" horiz-adv-x="646" 
d="M579 627v-627h-125v528h-184l-16 -289q-5 -90 -22 -140t-40 -74t-49 -29t-50 -5q-15 0 -34.5 3t-35.5 9l11 101q11 -5 22 -6.5t18 -1.5q10 0 20 3.5t18.5 17.5t14.5 42.5t9 79.5l16 289h-65v99h492z" />
    <glyph glyph-name="afii10030" unicode="&#x41c;" horiz-adv-x="752" 
d="M201 627l177 -345l177 345h108l30 -627h-122l-16 418l-164 -324h-43l-175 331l-16 -425h-98l25 627h117z" />
    <glyph glyph-name="afii10031" unicode="&#x41d;" horiz-adv-x="626" 
d="M192 627v-271h242v271h125v-627h-125v257h-242v-257h-125v627h125z" />
    <glyph glyph-name="afii10032" unicode="&#x41e;" horiz-adv-x="634" 
d="M317 538q-37 0 -65 -16.5t-47 -46.5t-28.5 -71t-9.5 -90t9.5 -90t28.5 -70.5t47 -46t65 -16.5t65 16.5t47 46t28.5 70.5t9.5 90t-9.5 90t-28.5 71t-47 46.5t-65 16.5zM317 640q69 0 122.5 -26t89.5 -70t54.5 -103.5t18.5 -126.5t-18.5 -126t-54.5 -103.5t-89.5 -70
t-122.5 -25.5t-122.5 25.5t-89.5 70t-54.5 103.5t-18.5 126t18.5 126.5t54.5 103.5t89.5 70t122.5 26z" />
    <glyph glyph-name="afii10033" unicode="&#x41f;" horiz-adv-x="626" 
d="M559 627v-627h-125v528h-242v-528h-125v627h492z" />
    <glyph glyph-name="afii10034" unicode="&#x420;" horiz-adv-x="539" 
d="M251 627q65 0 106 -10t73 -30q38 -26 60 -67t22 -95q0 -99 -60 -150.5t-175 -51.5h-85v-223h-125v627h184zM192 317h67q60 0 90.5 24.5t30.5 81.5t-30 81t-88 24h-70v-211z" />
    <glyph glyph-name="afii10035" unicode="&#x421;" horiz-adv-x="553" 
d="M496 493q-32 20 -71.5 32t-81.5 12q-32 0 -62 -10t-52 -30q-33 -30 -47.5 -76.5t-14.5 -98.5q0 -109 43.5 -170t132.5 -61q51 0 91 11t74 31l10 -98q-34 -20 -85 -33t-110 -13q-69 0 -123 24.5t-91.5 68t-57 103t-19.5 129.5q0 66 19.5 125t57 103.5t92.5 71t125 26.5
q54 0 102.5 -12.5t74.5 -29.5z" />
    <glyph glyph-name="afii10036" unicode="&#x422;" horiz-adv-x="533" 
d="M520 627l-13 -99h-179v-528h-125v528h-188l13 99h492z" />
    <glyph glyph-name="afii10037" unicode="&#x423;" horiz-adv-x="548" 
d="M158 628l132 -310l123 310h134l-196 -444q-22 -52 -42 -89t-45 -60.5t-57.5 -34.5t-79.5 -11h-11t-11 1l-28 83h17q17 0 32.5 1t30.5 9.5t30.5 27t32.5 54.5l6 15l-217 448h149z" />
    <glyph glyph-name="afii10038" unicode="&#x424;" horiz-adv-x="697" 
d="M289 477q-55 -7 -88.5 -47t-33.5 -116q0 -77 34 -116.5t88 -46.5v326zM408 -40h-119v88q-57 3 -104.5 22.5t-81.5 54t-52.5 82t-18.5 107.5t18.5 107.5t52.5 81.5t81.5 53.5t104.5 22.5v88h119v-88q57 -3 104.5 -22.5t81.5 -53.5t52.5 -81.5t18.5 -107.5t-18.5 -107.5
t-52.5 -82t-81.5 -54t-104.5 -22.5v-88zM408 151q54 7 88 46.5t34 116.5q0 76 -33.5 116t-88.5 47v-326z" />
    <glyph glyph-name="afii10039" unicode="&#x425;" horiz-adv-x="556" 
d="M168 627l130 -221l123 221h117l-181 -309l190 -318h-142l-142 235l-131 -235h-117l191 328l-180 299h142z" />
    <glyph glyph-name="afii10040" unicode="&#x426;" horiz-adv-x="655" 
d="M192 627v-528h242v528h125v-528h79v-231h-115v132h-456v627h125z" />
    <glyph glyph-name="afii10041" unicode="&#x427;" horiz-adv-x="560" 
d="M164 627v-183q0 -62 30.5 -87.5t93.5 -25.5q20 0 43 2t37 5v289h125v-627h-125v244q-20 -3 -47 -5t-51 -2q-61 0 -105 11t-72 36t-41 65.5t-13 98.5v179h125z" />
    <glyph glyph-name="afii10042" unicode="&#x428;" horiz-adv-x="823" 
d="M192 627v-528h157v528h125v-528h157v528h125v-627h-689v627h125z" />
    <glyph glyph-name="afii10043" unicode="&#x429;" horiz-adv-x="852" 
d="M192 627v-528h157v528h125v-528h157v528h125v-528h79v-231h-115v132h-653v627h125z" />
    <glyph glyph-name="afii10044" unicode="&#x42a;" horiz-adv-x="634" 
d="M278 627v-247h48q58 0 109 -7.5t89 -29t59.5 -59.5t21.5 -99q0 -40 -13 -74t-43 -58.5t-78.5 -38.5t-119.5 -14h-198v529h-134v98h259zM278 99h74q63 0 90.5 22.5t27.5 67.5t-28 67.5t-95 22.5h-69v-180z" />
    <glyph glyph-name="afii10045" unicode="&#x42b;" horiz-adv-x="822" 
d="M192 627v-247h48q58 0 109 -7.5t89 -29t59.5 -59.5t21.5 -99q0 -40 -13 -74t-43 -58.5t-78.5 -38.5t-119.5 -14h-198v627h125zM192 99h74q63 0 90.5 22.5t27.5 67.5t-28 67.5t-95 22.5h-69v-180zM755 627v-627h-125v627h125z" />
    <glyph glyph-name="afii10046" unicode="&#x42c;" horiz-adv-x="548" 
d="M192 627v-247h48q58 0 109 -7.5t89 -29t59.5 -59.5t21.5 -99q0 -40 -13 -74t-43 -58.5t-78.5 -38.5t-119.5 -14h-198v627h125zM192 99h74q63 0 90.5 22.5t27.5 67.5t-28 67.5t-95 22.5h-69v-180z" />
    <glyph glyph-name="afii10047" unicode="&#x42d;" horiz-adv-x="553" 
d="M50 598q26 17 74.5 29.5t102.5 12.5q70 0 125 -26.5t92.5 -71t57 -103.5t19.5 -125q0 -70 -19.5 -129.5t-57 -103t-91.5 -68t-123 -24.5q-59 0 -110 13t-85 33l10 98q34 -20 74 -31t91 -11q78 0 120.5 46.5t52.5 131.5h-199v99h199q-5 38 -19 72t-40 57q-22 20 -52 30
t-62 10q-42 0 -81.5 -12t-71.5 -32z" />
    <glyph glyph-name="afii10048" unicode="&#x42e;" horiz-adv-x="887" 
d="M192 627v-271h95q5 60 26 111.5t57 90t86 60.5t114 22q69 0 122.5 -26t89.5 -70t54.5 -103.5t18.5 -126.5t-18.5 -126t-54.5 -103.5t-89.5 -70t-122.5 -25.5q-62 0 -111 20.5t-84.5 56.5t-57.5 85t-29 106h-96v-257h-125v627h125zM570 538q-37 0 -65 -16.5t-47 -46.5
t-28.5 -71t-9.5 -90t9.5 -90t28.5 -70.5t47 -46t65 -16.5t65 16.5t47 46t28.5 70.5t9.5 90t-9.5 90t-28.5 71t-47 46.5t-65 16.5z" />
    <glyph glyph-name="afii10049" unicode="&#x42f;" horiz-adv-x="564" 
d="M497 627v-627h-125v236h-101l-122 -236h-136l148 268q-51 31 -75 72t-24 98q0 97 64.5 143t208.5 46h162zM309 528q-57 0 -86 -22.5t-29 -76.5t29 -76.5t86 -22.5h63v198h-63z" />
    <glyph glyph-name="afii10065" unicode="&#x430;" horiz-adv-x="505" 
d="M79 450q35 15 79 25t97 10q18 0 39 -3t43 -10t42.5 -19t35.5 -30q19 -22 28 -56t9 -78v-289h-50l-35 62q-23 -41 -65.5 -57t-90.5 -16q-35 0 -67 9t-57 27.5t-40 46.5t-15 66q0 46 24 78t65 52.5t96 30.5t117 12q0 17 -4.5 34t-15.5 28t-30 18.5t-51 7.5t-69 -9t-77 -29z
M334 235q-87 -5 -131 -25.5t-44 -67.5q0 -32 20.5 -49.5t51.5 -17.5q42 0 72.5 21t30.5 72v67z" />
    <glyph glyph-name="afii10066" unicode="&#x431;" horiz-adv-x="554" 
d="M445 611q-8 -7 -19.5 -14t-28.5 -15t-40.5 -17t-55.5 -19q-39 -13 -66.5 -27t-45.5 -32t-27.5 -40t-13.5 -50q23 27 59 44.5t78 17.5q52 0 95 -16t74 -46.5t48 -74t17 -98.5q0 -54 -17 -97t-48 -74t-74.5 -47.5t-96.5 -16.5q-54 0 -99.5 15.5t-77.5 50t-50 89.5t-18 133
q0 88 12.5 149t41.5 103t76.5 70.5t118.5 51.5q36 12 60 23t44 22zM285 379q-52 0 -80.5 -38t-28.5 -118q0 -81 26.5 -117.5t80.5 -36.5q52 0 79.5 36.5t27.5 117.5q0 80 -26 118t-79 38z" />
    <glyph glyph-name="afii10067" unicode="&#x432;" horiz-adv-x="498" 
d="M174 94h52q63 0 86.5 15t23.5 41q0 14 -6.5 24.5t-17.5 17.5t-33.5 11.5t-54.5 4.5h-50v-114zM221 476q50 0 89 -5.5t64 -22.5q24 -16 37.5 -39.5t13.5 -55.5q0 -37 -18.5 -62t-56.5 -35v-4q54 -8 83.5 -38.5t29.5 -75.5q0 -79 -66 -110q-26 -13 -69 -20.5t-103 -7.5
h-169v476h165zM174 280h39q17 0 33 1t29 6q14 5 23 17t9 28t-9 27.5t-23 16.5q-12 4 -24.5 5t-37.5 1h-39v-102z" />
    <glyph glyph-name="afii10068" unicode="&#x433;" horiz-adv-x="399" 
d="M384 476l-17 -93h-178v-383h-118v476h313z" />
    <glyph glyph-name="afii10069" unicode="&#x434;" horiz-adv-x="543" 
d="M213 275q-3 -44 -7 -73.5t-9 -50t-11.5 -34t-15.5 -24.5h179v290h-129zM467 476v-383h61v-215h-112v122h-289v-122h-112v215h27q16 14 27.5 30.5t19 37.5t12.5 48.5t7 65.5l8 108h-64v93h415z" />
    <glyph glyph-name="afii10070" unicode="&#x435;" horiz-adv-x="496" 
d="M164 209q5 -63 35.5 -98.5t94.5 -35.5q32 0 69.5 9t77.5 29l8 -89q-35 -15 -79.5 -25t-97.5 -10t-96.5 17t-74.5 50t-48.5 80.5t-17.5 107.5q0 52 16.5 96t46.5 76t71.5 50.5t90.5 18.5q51 0 89 -17t63.5 -46.5t38 -70t12.5 -86.5q0 -6 -0.5 -19.5t-2.5 -36.5h-296z
M341 288v8q0 59 -22.5 85.5t-58.5 26.5q-20 0 -36.5 -9t-31.5 -32q-20 -30 -26 -79h175z" />
    <glyph glyph-name="afii10072" unicode="&#x436;" horiz-adv-x="724" 
d="M169 476l137 -202v202h112v-202l137 202h119l-147 -210l188 -266h-133l-120 179h-44v-179h-112v179h-44l-120 -179h-133l188 266l-147 210h119z" />
    <glyph glyph-name="afii10073" unicode="&#x437;" horiz-adv-x="474" 
d="M24 373q26 58 74 85t122 27q49 0 85.5 -10t60 -27t35 -39.5t11.5 -48.5q0 -75 -81 -100q49 -11 77 -40.5t28 -75.5q0 -32 -14.5 -60.5t-43.5 -49.5t-73 -33t-103 -12q-24 0 -48.5 2.5t-47.5 6.5t-42 10t-31 12l6 96q12 -6 29.5 -12.5t38 -11.5t42 -8t41.5 -3
q63 0 88.5 17.5t25.5 45.5q0 27 -25.5 42.5t-92.5 15.5h-31v86h31q54 0 76 14.5t22 42.5q0 23 -19 37t-57 14q-32 0 -56.5 -17t-33.5 -46z" />
    <glyph glyph-name="afii10074" unicode="&#x438;" horiz-adv-x="514" 
d="M174 476v-296l178 296h106v-476h-118v281l-175 -281h-109v476h118z" />
    <glyph glyph-name="afii10075" unicode="&#x439;" horiz-adv-x="514" 
d="M157 720q12 -35 37.5 -55t62.5 -20q38 0 63 20t37 55l67 -16q-2 -30 -15 -56t-34.5 -45.5t-51.5 -30.5t-66 -11t-66 11t-51.5 30.5t-34.5 45.5t-15 56zM174 476v-296l178 296h106v-476h-118v281l-175 -281h-109v476h118z" />
    <glyph glyph-name="afii10076" unicode="&#x43a;" horiz-adv-x="490" 
d="M174 476v-202l147 202h119l-157 -210l198 -266h-133l-130 179h-44v-179h-118v476h118z" />
    <glyph glyph-name="afii10077" unicode="&#x43b;" horiz-adv-x="541" 
d="M485 476v-476h-118v383h-129l-12 -193q-3 -58 -13 -96.5t-26.5 -62t-41.5 -33t-58 -9.5q-16 0 -33.5 4.5t-30.5 12.5l9 95q22 -9 38 -9q11 0 19.5 3t15 13.5t10.5 29.5t6 52l13 193h-64v93h415z" />
    <glyph glyph-name="afii10078" unicode="&#x43c;" horiz-adv-x="618" 
d="M208 476l106 -220l99 220h134l23 -476h-120l-12 324l-109 -251h-50l-120 257l-12 -330h-99l19 476h141z" />
    <glyph glyph-name="afii10079" unicode="&#x43d;" horiz-adv-x="512" 
d="M174 476v-197h164v197h118v-476h-118v186h-164v-186h-118v476h118z" />
    <glyph glyph-name="afii10080" unicode="&#x43e;" horiz-adv-x="542" 
d="M273 485q52 0 95 -18t74 -50.5t48 -77.5t17 -100q0 -54 -17 -99.5t-48 -79t-74.5 -52.5t-96.5 -19q-54 0 -98 18t-74.5 51t-47 79t-16.5 102q0 54 18 99t49.5 77.5t75 51t95.5 18.5zM273 404q-52 0 -80.5 -43t-28.5 -123q0 -81 26.5 -125t80.5 -44q52 0 79.5 44t27.5 125
q0 80 -26 123t-79 43z" />
    <glyph glyph-name="afii10081" unicode="&#x43f;" horiz-adv-x="512" 
d="M456 476v-476h-118v383h-164v-383h-118v476h400z" />
    <glyph glyph-name="afii10082" unicode="&#x440;" horiz-adv-x="529" 
d="M106 476l33 -66q25 39 64.5 57t84.5 18q43 0 78.5 -13.5t61.5 -39.5q34 -35 50 -85t16 -104q0 -44 -12 -89t-39 -82t-69.5 -60t-102.5 -23q-24 0 -49 5.5t-48 16.5v-190h-118v655h50zM174 109q12 -18 36.5 -27t45.5 -9q30 0 51 13.5t34 36t19 53t6 63.5q0 27 -4 60
t-19 59q-11 20 -30 32.5t-44 12.5q-23 0 -42 -8.5t-31 -25.5q-11 -16 -16.5 -39.5t-5.5 -59.5v-161z" />
    <glyph glyph-name="afii10083" unicode="&#x441;" horiz-adv-x="452" 
d="M412 361q-29 20 -60.5 29t-61.5 9q-55 0 -87 -35q-20 -22 -29 -55t-9 -73q0 -37 7.5 -68t23.5 -52q30 -40 90 -40q23 0 55.5 8.5t72.5 28.5l8 -89q-35 -16 -78 -25.5t-81 -9.5q-48 0 -88.5 15t-70.5 44q-33 32 -51 80t-18 105q0 51 15 96t44 79q32 37 78 57t100 20
q47 0 84 -9t64 -26z" />
    <glyph glyph-name="afii10084" unicode="&#x442;" horiz-adv-x="440" 
d="M427 476l-12 -95h-135v-381h-118v381h-147l12 95h400z" />
    <glyph glyph-name="afii10085" unicode="&#x443;" horiz-adv-x="497" 
d="M144 476l115 -323l107 323h116l-170 -463q-20 -54 -37 -92.5t-38.5 -64t-49.5 -37.5t-69 -12h-10t-10 1l-24 87h15q15 0 28 1.5t26.5 11t26.5 29.5t28 57l5 15l-188 467h129z" />
    <glyph glyph-name="afii10086" unicode="&#x444;" horiz-adv-x="751" 
d="M436 640v-188q40 33 99 33q43 0 72 -13t53 -40q30 -35 43 -85t13 -104q0 -44 -7.5 -89t-28.5 -82t-59 -60t-98 -23q-48 0 -87 20v-188h-118v193q-18 -12 -41.5 -18.5t-53.5 -6.5q-51 0 -86.5 17.5t-58 49t-33 76.5t-10.5 99q0 57 14 104t40 80t62.5 51.5t81.5 18.5
q29 0 46 -4.5t39 -15.5v153zM318 381q-27 24 -58 24q-53 0 -74.5 -39t-21.5 -133q0 -50 5.5 -81.5t16 -49.5t25.5 -25t34 -7q73 0 73 128v183zM436 109q12 -18 30 -27t37 -9q22 0 38.5 7.5t26.5 26.5t15 51t5 81q0 47 -4.5 78.5t-14 50.5t-24 27t-34.5 8q-25 0 -39.5 -13
t-22.5 -33t-10.5 -43t-2.5 -44v-161z" />
    <glyph glyph-name="afii10087" unicode="&#x445;" horiz-adv-x="460" 
d="M144 476l90 -151h2l85 151h104l-135 -230l155 -246h-133l-96 161h-2l-89 -161h-105l140 240l-145 236h129z" />
    <glyph glyph-name="afii10088" unicode="&#x446;" horiz-adv-x="532" 
d="M174 476v-383h164v383h118v-383h61v-215h-112v122h-349v476h118z" />
    <glyph glyph-name="afii10089" unicode="&#x447;" horiz-adv-x="479" 
d="M153 476v-134q0 -27 7.5 -44.5t20 -27.5t27.5 -13.5t30 -3.5q34 0 67 9v214h118v-476h-118v167q-41 -9 -84 -9q-97 0 -141.5 44t-44.5 136v138h118z" />
    <glyph glyph-name="afii10090" unicode="&#x448;" horiz-adv-x="764" 
d="M174 476v-383h149v383h118v-383h149v383h118v-476h-652v476h118z" />
    <glyph glyph-name="afii10091" unicode="&#x449;" horiz-adv-x="784" 
d="M174 476v-383h149v383h118v-383h149v383h118v-383h61v-215h-112v122h-601v476h118z" />
    <glyph glyph-name="afii10092" unicode="&#x44a;" horiz-adv-x="555" 
d="M249 476v-181h41q63 0 106.5 -10.5t71 -29.5t40 -47t12.5 -62q0 -38 -17.5 -68t-53.5 -50q-26 -14 -66 -21t-93 -7h-159v382h-110v94h228zM249 93h42q59 0 80.5 11t21.5 42t-21.5 43.5t-80.5 12.5h-42v-109z" />
    <glyph glyph-name="afii10093" unicode="&#x44b;" horiz-adv-x="682" 
d="M626 476v-476h-118v476h118zM174 476v-181h41q63 0 106.5 -10.5t71 -29.5t40 -47t12.5 -62q0 -38 -17.5 -68t-53.5 -50q-26 -14 -66 -21t-93 -7h-159v476h118zM174 93h42q59 0 80.5 11t21.5 42t-21.5 43.5t-80.5 12.5h-42v-109z" />
    <glyph glyph-name="afii10094" unicode="&#x44c;" horiz-adv-x="480" 
d="M174 476v-181h41q63 0 106.5 -10.5t71 -29.5t40 -47t12.5 -62q0 -38 -17.5 -68t-53.5 -50q-26 -14 -66 -21t-93 -7h-159v476h118zM174 93h42q59 0 80.5 11t21.5 42t-21.5 43.5t-80.5 12.5h-42v-109z" />
    <glyph glyph-name="afii10095" unicode="&#x44d;" horiz-adv-x="452" 
d="M32 450q27 17 64 26t84 9q54 0 100 -20t78 -57q29 -34 44 -79t15 -96q0 -57 -18 -105t-51 -80q-30 -29 -70.5 -44t-88.5 -15q-38 0 -81 9.5t-78 25.5l8 89q40 -20 72.5 -28.5t55.5 -8.5q60 0 90 40q12 15 19 36t10 46h-148v94h145q-5 22 -12.5 40t-20.5 32q-32 35 -87 35
q-30 0 -61.5 -9t-60.5 -29z" />
    <glyph glyph-name="afii10096" unicode="&#x44e;" horiz-adv-x="750" 
d="M174 476v-199h71q6 46 26 84.5t51 66t71.5 42.5t87.5 15q52 0 95 -18t74 -50.5t48 -77.5t17 -100q0 -54 -17 -99.5t-48 -79t-74.5 -52.5t-96.5 -19q-96 0 -156.5 52.5t-75.5 142.5h-73v-184h-118v476h118zM481 404q-52 0 -80.5 -43t-28.5 -123q0 -81 26.5 -125t80.5 -44
q52 0 79.5 44t27.5 125q0 80 -26 123t-79 43z" />
    <glyph glyph-name="afii10097" unicode="&#x44f;" horiz-adv-x="492" 
d="M436 476v-476h-118v172h-85l-90 -172h-128l110 196q-43 21 -61.5 53t-18.5 74q0 47 18.5 77.5t50.5 47.5q29 15 67 21.5t100 6.5h155zM279 382q-25 0 -40 -1.5t-27 -4.5q-17 -5 -28 -18.5t-11 -34.5t10.5 -35t28.5 -19q13 -4 31.5 -5.5t35.5 -1.5h39v120h-39z" />
    <glyph glyph-name="uni0450" unicode="&#x450;" horiz-adv-x="496" 
d="M164 209q5 -63 35.5 -98.5t94.5 -35.5q32 0 69.5 9t77.5 29l8 -89q-35 -15 -79.5 -25t-97.5 -10t-96.5 17t-74.5 50t-48.5 80.5t-17.5 107.5q0 52 16.5 96t46.5 76t71.5 50.5t90.5 18.5q51 0 89 -17t63.5 -46.5t38 -70t12.5 -86.5q0 -6 -0.5 -19.5t-2.5 -36.5h-296z
M341 288v8q0 59 -22.5 85.5t-58.5 26.5q-20 0 -36.5 -9t-31.5 -32q-20 -30 -26 -79h175zM375 595l-41 -55l-210 103l58 87z" />
    <glyph glyph-name="afii10071" unicode="&#x451;" horiz-adv-x="496" 
d="M164 209q5 -63 35.5 -98.5t94.5 -35.5q32 0 69.5 9t77.5 29l8 -89q-35 -15 -79.5 -25t-97.5 -10t-96.5 17t-74.5 50t-48.5 80.5t-17.5 107.5q0 52 16.5 96t46.5 76t71.5 50.5t90.5 18.5q51 0 89 -17t63.5 -46.5t38 -70t12.5 -86.5q0 -6 -0.5 -19.5t-2.5 -36.5h-296z
M341 288v8q0 59 -22.5 85.5t-58.5 26.5q-20 0 -36.5 -9t-31.5 -32q-20 -30 -26 -79h175zM226 646v-100h-103v100h103zM396 646v-100h-103v100h103z" />
    <glyph glyph-name="afii10099" unicode="&#x452;" horiz-adv-x="553" 
d="M75 566v52l118 22v-74h110v-81h-110v-119q11 13 27.5 23t32.5 15q17 6 34.5 8.5t34.5 2.5q45 0 82 -16t60 -45q23 -30 30.5 -68.5t7.5 -100.5v-185q0 -48 -7 -81t-20 -53q-23 -35 -59.5 -53.5t-92.5 -18.5l-18 101q44 0 61.5 23t17.5 73v197q0 42 -2.5 67t-16.5 44
q-11 16 -29.5 23.5t-38.5 7.5t-41 -7.5t-37 -27.5q-15 -17 -20.5 -41t-5.5 -65v-189h-118v485h-62v81h62z" />
    <glyph glyph-name="afii10100" unicode="&#x453;" horiz-adv-x="399" 
d="M384 476l-17 -93h-178v-383h-118v476h313zM306 730l58 -87l-210 -103l-41 55z" />
    <glyph glyph-name="afii10101" unicode="&#x454;" horiz-adv-x="452" 
d="M315 292v-94h-148q3 -25 10 -46t19 -36q30 -40 90 -40q23 0 55.5 8.5t72.5 28.5l8 -89q-35 -16 -78 -25.5t-81 -9.5q-48 0 -88.5 15t-70.5 44q-33 32 -51 80t-18 105q0 51 15 96t44 79q32 37 78 57t100 20q47 0 84 -9t64 -26l-8 -89q-29 20 -60.5 29t-61.5 9
q-55 0 -87 -35q-13 -14 -20.5 -32t-12.5 -40h145z" />
    <glyph glyph-name="afii10102" unicode="&#x455;" horiz-adv-x="409" 
d="M342 370q-32 19 -63 27t-56 8q-26 0 -46 -9t-20 -34q0 -14 11 -24.5t28.5 -20.5t39.5 -20.5t44 -23.5q19 -11 37 -24t31.5 -29.5t21.5 -37t8 -45.5q0 -26 -8 -50t-23 -43q-23 -27 -58 -41t-78 -14q-52 0 -89.5 9t-66.5 21l3 88q35 -17 70.5 -26.5t68.5 -9.5q32 0 52.5 11
t22.5 36q2 22 -16 38t-65 39l-50 25t-47 30t-35 40.5t-14 56.5q0 29 11.5 54t32.5 44t51 29.5t68 10.5q40 0 75.5 -8t62.5 -22z" />
    <glyph glyph-name="afii10103" unicode="&#x456;" horiz-adv-x="234" 
d="M176 476v-476h-118v476h118zM176 640v-106h-118v84z" />
    <glyph glyph-name="afii10104" unicode="&#x457;" horiz-adv-x="282" 
d="M200 476v-476h-118v476h118zM108 646v-100h-103v100h103zM278 646v-100h-103v100h103z" />
    <glyph glyph-name="afii10105" unicode="&#x458;" horiz-adv-x="238" 
d="M184 476v-373q0 -48 -1.5 -81t-4.5 -56.5t-7.5 -40t-11.5 -30.5q-20 -42 -61 -65t-107 -23h-10.5t-10.5 1l-23 83h20q81 0 94 57q2 8 3 20t2 30t1 43.5v60.5v374h117zM184 640v-106h-118v84z" />
    <glyph glyph-name="afii10106" unicode="&#x459;" horiz-adv-x="791" 
d="M485 476v-181h41q63 0 106.5 -10.5t71 -29.5t40 -47t12.5 -62q0 -38 -17.5 -68t-53.5 -50q-26 -14 -66 -21t-93 -7h-159v383h-129l-12 -189q-3 -58 -13 -97t-26.5 -63t-41.5 -34.5t-58 -10.5q-16 0 -33.5 4.5t-30.5 12.5l9 95q22 -9 38 -9q11 0 19.5 3.5t15 14.5t10.5 31
t6 53l13 189h-64v93h415zM485 93h42q59 0 80.5 11t21.5 42t-21.5 43.5t-80.5 12.5h-42v-109z" />
    <glyph glyph-name="afii10107" unicode="&#x45a;" horiz-adv-x="762" 
d="M174 476v-197h164v197h118v-181h41q63 0 106.5 -10.5t71 -29.5t40 -47t12.5 -62q0 -38 -17.5 -68t-53.5 -50q-26 -14 -66 -21t-93 -7h-159v186h-164v-186h-118v476h118zM456 93h42q59 0 80.5 11t21.5 42t-21.5 43.5t-80.5 12.5h-42v-109z" />
    <glyph glyph-name="afii10108" unicode="&#x45b;" horiz-adv-x="553" 
d="M75 566v52l118 22v-74h110v-81h-110v-119q11 13 27.5 23t32.5 15q17 6 34.5 8.5t34.5 2.5q45 0 82 -16t60 -45q23 -30 30.5 -68.5t7.5 -100.5v-185h-118v188q0 42 -2.5 67t-16.5 44q-11 16 -29.5 23.5t-38.5 7.5t-41 -7.5t-37 -27.5q-15 -17 -20.5 -41t-5.5 -65v-189
h-118v485h-62v81h62z" />
    <glyph glyph-name="afii10109" unicode="&#x45c;" horiz-adv-x="490" 
d="M174 476v-202l147 202h119l-157 -210l198 -266h-133l-130 179h-44v-179h-118v476h118zM330 730l58 -87l-210 -103l-41 55z" />
    <glyph glyph-name="uni045D" unicode="&#x45d;" horiz-adv-x="514" 
d="M174 476v-296l178 296h106v-476h-118v281l-175 -281h-109v476h118zM384 595l-41 -55l-210 103l58 87z" />
    <glyph glyph-name="afii10110" unicode="&#x45e;" horiz-adv-x="497" 
d="M144 476l115 -323l107 323h116l-170 -463q-20 -54 -37 -92.5t-38.5 -64t-49.5 -37.5t-69 -12h-10t-10 1l-24 87h15q15 0 28 1.5t26.5 11t26.5 29.5t28 57l5 15l-188 467h129zM160 720q12 -35 37.5 -55t62.5 -20q38 0 63 20t37 55l67 -16q-2 -30 -15 -56t-34.5 -45.5
t-51.5 -30.5t-66 -11t-66 11t-51.5 30.5t-34.5 45.5t-15 56z" />
    <glyph glyph-name="afii10193" unicode="&#x45f;" horiz-adv-x="512" 
d="M174 476v-383h164v383h118v-476h-141v-122h-118v122h-141v476h118z" />
    <glyph glyph-name="afii10146" unicode="&#x462;" horiz-adv-x="607" 
d="M109 585v87h125v-87h225l-29 -95h-196v-135h48q60 0 111.5 -7t90 -27t60 -55t21.5 -90q0 -35 -13 -66.5t-43.5 -56t-80 -39t-121.5 -14.5h-198v490h-101v95h101zM234 99h74q66 0 94 20t28 57t-28.5 57.5t-98.5 20.5h-69v-155z" />
    <glyph glyph-name="afii10194" unicode="&#x463;" horiz-adv-x="511" 
d="M201 643v-186h160l-21 -76h-139v-76h48q65 0 110.5 -11t73.5 -31.5t40.5 -49t12.5 -62.5q0 -38 -17.5 -70.5t-53.5 -52.5q-50 -28 -166 -28h-166v381h-72v76h72v186h118zM201 93h49q32 0 53 3.5t33.5 10.5t17.5 18t5 26q0 31 -22.5 46t-86.5 15h-49v-119z" />
    <glyph glyph-name="afii10147" unicode="&#x472;" horiz-adv-x="626" 
d="M593 314q0 -158 -70 -241.5t-210 -83.5t-210 83.5t-70 241.5t70 242t210 84t210 -84t70 -242zM313 545q-67 0 -106.5 -44t-47.5 -141h307q-8 97 -47 141t-106 44zM313 84q67 0 106 43.5t47 140.5h-307q8 -97 47.5 -140.5t106.5 -43.5z" />
    <glyph glyph-name="afii10195" unicode="&#x473;" horiz-adv-x="538" 
d="M269 485q53 0 96 -18.5t74 -51.5t47.5 -78t16.5 -99t-16.5 -99.5t-47.5 -78.5t-74 -52t-96 -19q-54 0 -97.5 19t-74 52t-46.5 78.5t-16 99.5t16 99t46.5 78t74 51.5t97.5 18.5zM165 199q6 -63 31.5 -96t72.5 -33q45 0 71 33t32 96h-207zM372 275q-6 63 -32 96t-71 33
q-47 0 -72.5 -33.5t-31.5 -95.5h207z" />
    <glyph glyph-name="afii10148" unicode="&#x474;" horiz-adv-x="610" 
d="M142 627l153 -440l83 251q18 56 38.5 92.5t46 58t58 30t74.5 8.5h15v-103h-19q-24 0 -40.5 -5t-30.5 -21t-27.5 -45.5t-30.5 -78.5l-130 -374h-86l-237 627h133z" />
    <glyph glyph-name="afii10196" unicode="&#x475;" horiz-adv-x="495" 
d="M135 476l111 -297l59 174q12 36 27.5 61.5t36.5 41t47.5 22.5t61.5 7h17v-95h-14q-19 0 -33 -4t-24.5 -14t-18.5 -26t-17 -41l-108 -305h-72l-195 476h122z" />
    <glyph glyph-name="afii10050" unicode="&#x490;" horiz-adv-x="480" 
d="M359 627v117h98v-216h-265v-528h-125v627h292z" />
    <glyph glyph-name="afii10098" unicode="&#x491;" horiz-adv-x="401" 
d="M302 476v104h84v-197h-197v-383h-118v476h231z" />
    <glyph glyph-name="Wgrave" unicode="&#x1e80;" horiz-adv-x="844" 
d="M149 627l121 -414l114 295l-40 119h137l127 -414l120 414h112l-198 -627h-86l-124 355l-142 -355h-86l-192 627h137zM565 743l-41 -55l-210 103l58 87z" />
    <glyph glyph-name="wgrave" unicode="&#x1e81;" horiz-adv-x="705" 
d="M139 476l90 -289l95 289h77l105 -288l81 288h105l-152 -476h-74l-110 293l-99 -293h-73l-171 476h126zM484 595l-41 -55l-210 103l58 87z" />
    <glyph glyph-name="Wacute" unicode="&#x1e82;" horiz-adv-x="844" 
d="M149 627l121 -414l114 295l-40 119h137l127 -414l120 414h112l-198 -627h-86l-124 355l-142 -355h-86l-192 627h137zM496 878l58 -87l-210 -103l-41 55z" />
    <glyph glyph-name="wacute" unicode="&#x1e83;" horiz-adv-x="705" 
d="M139 476l90 -289l95 289h77l105 -288l81 288h105l-152 -476h-74l-110 293l-99 -293h-73l-171 476h126zM417 730l58 -87l-210 -103l-41 55z" />
    <glyph glyph-name="Wdieresis" unicode="&#x1e84;" horiz-adv-x="844" 
d="M149 627l121 -414l114 295l-40 119h137l127 -414l120 414h112l-198 -627h-86l-124 355l-142 -355h-86l-192 627h137zM399 792v-100h-103v100h103zM569 792v-100h-103v100h103z" />
    <glyph glyph-name="wdieresis" unicode="&#x1e85;" horiz-adv-x="705" 
d="M139 476l90 -289l95 289h77l105 -288l81 288h105l-152 -476h-74l-110 293l-99 -293h-73l-171 476h126zM323 646v-100h-103v100h103zM493 646v-100h-103v100h103z" />
    <glyph glyph-name="Ygrave" unicode="&#x1ef2;" horiz-adv-x="533" 
d="M145 627l138 -269l134 269h112l-197 -382v-245h-125v250l-200 377h138zM387 743l-41 -55l-210 103l58 87z" />
    <glyph glyph-name="ygrave" unicode="&#x1ef3;" horiz-adv-x="497" 
d="M144 476l115 -323l107 323h116l-170 -463q-20 -54 -37 -92.5t-38.5 -64t-49.5 -37.5t-69 -12h-10t-10 1l-24 87h15q15 0 28 1.5t26.5 11t26.5 29.5t28 57l5 15l-188 467h129zM389 595l-41 -55l-210 103l58 87z" />
    <glyph glyph-name="endash" unicode="&#x2013;" horiz-adv-x="500" 
d="M500 320v-95h-500v95h500z" />
    <glyph glyph-name="emdash" unicode="&#x2014;" horiz-adv-x="1000" 
d="M1000 320v-95h-1000v95h1000z" />
    <glyph glyph-name="afii00208" unicode="&#x2015;" horiz-adv-x="868" 
d="M865 341v-99h-862v99h862z" />
    <glyph glyph-name="quoteleft" unicode="&#x2018;" horiz-adv-x="244" 
d="M176 640v-239h-118v106l68 133h50z" />
    <glyph glyph-name="quoteright" unicode="&#x2019;" horiz-adv-x="244" 
d="M186 640v-106l-68 -133h-50v239h118z" />
    <glyph glyph-name="quotesinglbase" unicode="&#x201a;" horiz-adv-x="244" 
d="M186 65v-106l-68 -133h-50v239h118z" />
    <glyph glyph-name="quotedblleft" unicode="&#x201c;" horiz-adv-x="449" 
d="M381 640v-239h-118v106l68 133h50zM176 640v-239h-118v106l68 133h50z" />
    <glyph glyph-name="quotedblright" unicode="&#x201d;" horiz-adv-x="449" 
d="M186 640v-106l-68 -133h-50v239h118zM391 640v-106l-68 -133h-50v239h118z" />
    <glyph glyph-name="quotedblbase" unicode="&#x201e;" horiz-adv-x="449" 
d="M186 65v-106l-68 -133h-50v239h118zM391 65v-106l-68 -133h-50v239h118z" />
    <glyph glyph-name="dagger" unicode="&#x2020;" horiz-adv-x="472" 
d="M292 640l-16 -239l158 11v-102l-157 10l10 -176v-313h-102v313l10 176l-157 -10v102l158 -11l-16 239h112z" />
    <glyph glyph-name="daggerdbl" unicode="&#x2021;" horiz-adv-x="515" 
d="M313 640l-17 -199l159 11v-102l-157 10l10 -124l-10 -126l157 11v-102l-159 10l17 -198h-112l16 198l-158 -10v102l157 -11l-10 126l9 124l-156 -10v102l158 -11l-16 199h112z" />
    <glyph glyph-name="bullet" unicode="&#x2022;" horiz-adv-x="412" 
d="M73 285q0 27 10.5 51.5t28.5 42.5t42.5 28.5t51.5 10.5t51.5 -10.5t42.5 -28.5t28.5 -42.5t10.5 -51.5t-10.5 -51.5t-28.5 -42.5t-42.5 -28.5t-51.5 -10.5t-51.5 10.5t-42.5 28.5t-28.5 42.5t-10.5 51.5z" />
    <glyph glyph-name="ellipsis" unicode="&#x2026;" horiz-adv-x="705" 
d="M186 111v-111h-118v88zM409 111v-111h-118v88zM632 111v-111h-118v88z" />
    <glyph glyph-name="perthousand" unicode="&#x2030;" horiz-adv-x="1351" 
d="M227 687q40 0 70.5 -16.5t51.5 -45t31.5 -66t10.5 -78.5t-10.5 -78.5t-31.5 -66t-51.5 -45t-70.5 -16.5t-70.5 16.5t-51.5 45t-31.5 66t-10.5 78.5t10.5 78.5t31.5 66t51.5 45t70.5 16.5zM731 395q40 0 70.5 -16.5t51.5 -45t31.5 -66t10.5 -78.5t-10.5 -78.5t-31.5 -66
t-51.5 -45t-70.5 -16.5t-70.5 16.5t-51.5 45t-31.5 66t-10.5 78.5t10.5 78.5t31.5 66t51.5 45t70.5 16.5zM645 624l-264 -639h-100l132 320q25 60 48.5 117t42.5 102q22 53 41 100h100zM731 329q-32 0 -51 -35t-19 -105t19 -105t51 -35q33 0 51.5 35t18.5 105t-18.5 105
t-51.5 35zM227 621q-32 0 -51 -35t-19 -105t19 -105t51 -35q33 0 51.5 35t18.5 105t-18.5 105t-51.5 35zM1124 395q40 0 70.5 -16.5t51.5 -45t31.5 -66t10.5 -78.5t-10.5 -78.5t-31.5 -66t-51.5 -45t-70.5 -16.5t-70.5 16.5t-51.5 45t-31.5 66t-10.5 78.5t10.5 78.5t31.5 66
t51.5 45t70.5 16.5zM1124 329q-32 0 -51 -35t-19 -105t19 -105t51 -35q33 0 51.5 35t18.5 105t-18.5 105t-51.5 35z" />
    <glyph glyph-name="guilsinglleft" unicode="&#x2039;" horiz-adv-x="358" 
d="M233 446l56 -65l-131 -137l132 -137l-56 -66l-178 176v52z" />
    <glyph glyph-name="guilsinglright" unicode="&#x203a;" horiz-adv-x="358" 
d="M302 269v-52l-178 -176l-56 66l132 137l-131 137l56 65z" />
    <glyph glyph-name="fraction" unicode="&#x2044;" horiz-adv-x="320" 
d="M337 624l-254 -639h-100q71 179 127 320q23 60 46 117t41 102l40 100h100z" />
    <glyph glyph-name="Euro" unicode="&#x20ac;" horiz-adv-x="576" 
d="M110 420q12 49 36 90t59 69.5t80.5 44.5t100.5 16q47 0 87.5 -8.5t69.5 -23.5l-8 -104q-29 15 -66.5 24.5t-76.5 9.5q-54 0 -92.5 -28t-55.5 -90h238l-24 -81h-225v-17q0 -32 3 -57h195l-19 -81h-158q20 -50 58 -71.5t92 -21.5q18 0 38 2t39.5 5.5t37 8.5t30.5 11l10 -93
q-28 -17 -76 -26.5t-99 -9.5q-108 0 -175 53t-94 142l-97 26v55h82q-1 12 -1.5 24.5t-0.5 26.5v23l-80 26v55h92z" />
    <glyph glyph-name="litre" unicode="&#x2113;" horiz-adv-x="340" 
d="M172 640v-469q0 -29 3 -46.5t10.5 -27.5t19.5 -13.5t30 -3.5q32 0 67 16l8 -89q-29 -10 -51 -14t-51 -4q-42 0 -71 9t-47.5 29.5t-27 54t-8.5 82.5v454z" />
    <glyph glyph-name="numero" unicode="&#x2116;" horiz-adv-x="978" 
d="M153 627l308 -418v418h107v-627h-91l-303 396v-396h-107v627h86zM789 382q-27 0 -43 -23.5t-16 -66.5q0 -42 16 -65.5t43 -23.5q28 0 43.5 23.5t15.5 65.5q0 43 -15.5 66.5t-43.5 23.5zM789 434q31 0 56 -11.5t42.5 -31t27 -45t9.5 -54.5t-9.5 -54.5t-27 -44.5
t-42.5 -30.5t-56 -11.5t-56 11.5t-42 30.5t-26.5 44.5t-9.5 54.5t9.5 54.5t26.5 45t42 31t56 11.5zM933 77v-77h-286v77h286z" />
    <glyph glyph-name="trademark" unicode="&#x2122;" horiz-adv-x="643" 
d="M361 601l76 -144l73 144h55l13 -278h-66l-7 165l-58 -125h-28l-66 125l-6 -165h-57l11 278h60zM265 601l-7 -57h-73v-221h-69v221h-89l8 57h230z" />
    <glyph glyph-name="estimated" unicode="&#x212e;" horiz-adv-x="921" 
d="M206 144q0 -11 10 -24q47 -50 112.5 -80t140.5 -30q80 0 148.5 33t116.5 90h60q-57 -66 -141.5 -105.5t-184.5 -39.5q-85 0 -160.5 29.5t-131.5 80t-89 118t-33 144.5q0 78 33 145.5t89 118t131.5 79.5t160.5 29t160 -29t131 -79.5t88.5 -118t32.5 -145.5v-9h-669
q-5 0 -5 -5v-202zM206 377q0 -5 5 -5h513q5 0 5 5v204q0 15 -11 24q-48 48 -112 76.5t-137 28.5q-75 0 -139.5 -29t-112.5 -79q-11 -9 -11 -26v-199z" />
    <glyph glyph-name="partialdiff" unicode="&#x2202;" horiz-adv-x="540" 
d="M119 619q9 4 24 8t32 7t34 4.5t31 1.5q50 0 84.5 -8.5t63.5 -27.5q47 -30 75.5 -99t28.5 -191q0 -95 -27 -169t-78 -115q-53 -41 -129 -41q-53 0 -94 17t-68.5 47t-41 71t-10.5 88q6 103 64 160t159 52q51 -3 94 -24v7q-6 77 -45 116q-17 17 -38 24t-53 7q-21 0 -43 -3.5
t-42 -10.5zM364 313q-23 11 -46.5 16.5t-45.5 7.5q-41 2 -68 -27.5t-32 -98.5q-3 -37 2.5 -63t17 -42.5t28.5 -24t37 -7.5q18 0 34.5 7.5t29.5 24.5q21 28 31.5 84.5t11.5 122.5z" />
    <glyph glyph-name="Delta" unicode="&#x2206;" horiz-adv-x="691" 
d="M358 627l290 -577v-50h-605v50l277 577h38zM137 66h360l-181 373z" />
    <glyph glyph-name="product" unicode="&#x220f;" horiz-adv-x="772" 
d="M734 628l-13 -103h-111v-718h-110v718h-226v-718h-110v718h-126l13 103h683z" />
    <glyph glyph-name="summation" unicode="&#x2211;" horiz-adv-x="650" 
d="M572 627l-23 -90h-319l186 -272v-48l-220 -311l423 1l-23 -101h-541v55l250 361l-240 345v60h507z" />
    <glyph glyph-name="minus" unicode="&#x2212;" horiz-adv-x="593" 
d="M511 332v-93h-429v93h429z" />
    <glyph glyph-name="radical" unicode="&#x221a;" horiz-adv-x="608" 
d="M173 402l88 -276l205 588h139l-15 -87h-63l-226 -627h-104l-106 315h-78l19 87h141z" />
    <glyph glyph-name="infinity" unicode="&#x221e;" horiz-adv-x="800" 
d="M443 209q0 -44 26 -67t72 -23q45 0 71.5 23t26.5 67t-26.5 67t-71.5 23t-71.5 -23t-26.5 -67zM161 209q0 -44 26.5 -67t71.5 -23q46 0 72 23t26 67t-26.5 67t-71.5 23t-71.5 -23t-26.5 -67zM400 328q22 33 61 49.5t80 16.5q43 0 78.5 -13t60.5 -37t38.5 -58t13.5 -77
t-13.5 -77t-38.5 -58t-60.5 -37t-78.5 -13q-41 0 -80 18t-61 48q-22 -30 -61 -48t-80 -18q-43 0 -78.5 13t-60.5 37t-38.5 58t-13.5 77t13.5 77t38.5 58t60.5 37t78.5 13q41 0 80 -16.5t61 -49.5z" />
    <glyph glyph-name="integral" unicode="&#x222b;" horiz-adv-x="630" 
d="M374 -49q0 -79 -41.5 -121.5t-132.5 -42.5q-33 0 -63 7t-59 19l8 89q23 -11 48 -17.5t50 -6.5q41 0 56.5 18.5t15.5 61.5v588q0 79 41.5 121.5t132.5 42.5q33 0 63 -7t59 -19l-8 -89q-23 11 -48 17.5t-50 6.5q-41 0 -56.5 -18.5t-15.5 -61.5v-588z" />
    <glyph glyph-name="approxequal" unicode="&#x2248;" horiz-adv-x="593" 
d="M73 376q16 42 50.5 68t83.5 26q28 0 52 -7.5t41 -14.5l17 -7q14 -6 30.5 -11t37.5 -5q27 0 48.5 14.5t32.5 32.5l55 -45q-17 -45 -51.5 -69.5t-82.5 -24.5q-28 0 -52 7.5t-41 14.5l-17 7q-14 6 -30.5 11t-37.5 5q-27 0 -48.5 -14.5t-32.5 -32.5zM73 146q16 42 50.5 68
t83.5 26q28 0 52 -7.5t41 -14.5l17 -7q14 -6 30.5 -11t37.5 -5q27 0 48.5 14.5t32.5 32.5l55 -45q-17 -45 -51.5 -69.5t-82.5 -24.5q-28 0 -52 7.5t-41 14.5l-17 7q-14 6 -30.5 11t-37.5 5q-27 0 -48.5 -14.5t-32.5 -32.5z" />
    <glyph glyph-name="notequal" unicode="&#x2260;" horiz-adv-x="530" 
d="M277 446q6 17 11 32t9 26q4 12 8 22h88l-28 -80h105v-93h-137l-47 -135h184v-93h-216l-29 -86h-88l8 24q4 11 9 26.5t12 35.5h-103v93h135q12 33 24 67.5t23 67.5h-182v93h214z" />
    <glyph glyph-name="lessequal" unicode="&#x2264;" horiz-adv-x="530" 
d="M463 607v-93l-313 -122l328 -120v-95l-427 167v97zM469 93v-93h-407v93h407z" />
    <glyph glyph-name="greaterequal" unicode="&#x2265;" horiz-adv-x="530" 
d="M479 441v-97l-427 -167v95l328 120l-313 122v93zM468 93v-93h-407v93h407z" />
    <glyph glyph-name="lozenge" unicode="&#x25ca;" horiz-adv-x="625" 
d="M582 314l-270 -313l-269 313l269 314zM146 314l166 -191l167 191l-167 193z" />
    <glyph glyph-name="grave.cap" 
d="M387 743l-41 -55l-210 103l58 87z" />
    <glyph glyph-name="acute.cap" 
d="M311 878l58 -87l-210 -103l-41 55z" />
    <glyph glyph-name="dieresis.cap" 
d="M221 792v-100h-103v100h103zM391 792v-100h-103v100h103z" />
    <glyph glyph-name="circumflex.cap" 
d="M209 853h88l122 -117l-54 -47l-112 89l-112 -89l-54 47z" />
    <glyph glyph-name="tilde.cap" 
d="M84 730q4 16 14.5 30.5t25.5 25.5t32.5 17.5t35.5 6.5q19 0 37 -6.5t29 -12.5q12 -6 25.5 -13.5t27.5 -7.5q37 0 56 37l54 -38q-11 -32 -41 -54.5t-68 -22.5q-20 0 -36 7t-32 15q-11 5 -24 12t-26 7q-17 0 -32 -10.5t-26 -33.5z" />
    <glyph glyph-name="macron.cap" 
d="M389 790l-10 -86h-260l10 86h260z" />
    <glyph glyph-name="breve.cap" 
d="M182 821q8 -26 28 -41.5t48 -15.5q29 0 48.5 15.5t27.5 41.5l71 -13q-7 -50 -46 -83t-101 -33t-101 33t-46 83z" />
    <glyph glyph-name="dotaccent.cap" 
d="M312 804v-112h-118v112h118z" />
    <glyph glyph-name="ring.cap" 
d="M253 823q-44 0 -44 -45q0 -21 11.5 -33t32.5 -12q20 0 32 12t12 33q0 22 -12 33.5t-32 11.5zM154 778q0 44 27 71t72 27t72 -27t27 -71t-27 -71t-72 -27t-72 27t-27 71z" />
    <glyph glyph-name="hungarumlaut.cap" 
d="M265 836l-142 -144l-55 40l115 169zM463 812l-148 -127l-53 43l122 152z" />
    <glyph glyph-name="caron.cap" 
d="M141 856l112 -89l112 89l54 -47l-122 -117h-88l-122 117z" />
    <glyph glyph-name="apple" horiz-adv-x="587" 
d="M484 501v-61h-185v-61h185v-186h-248v60h187v63h-187v185h248zM484 625v-61h-309v-502h69v-62h-131v625h371z" />
    <glyph glyph-name="afii61352" horiz-adv-x="978" 
d="M153 627l308 -418v418h107v-627h-91l-303 396v-396h-107v627h86zM789 382q-27 0 -43 -23.5t-16 -66.5q0 -42 16 -65.5t43 -23.5q28 0 43.5 23.5t15.5 65.5q0 43 -15.5 66.5t-43.5 23.5zM789 434q31 0 56 -11.5t42.5 -31t27 -45t9.5 -54.5t-9.5 -54.5t-27 -44.5
t-42.5 -30.5t-56 -11.5t-56 11.5t-42 30.5t-26.5 44.5t-9.5 54.5t9.5 54.5t26.5 45t42 31t56 11.5zM933 77v-77h-286v77h286z" />
    <glyph glyph-name="afii10066.locl" horiz-adv-x="546" 
d="M415 626q-26 -4 -49 -5t-47 -1q-26 0 -43.5 -1t-29 -3.5t-18.5 -6t-13 -8.5q-8 -8 -12 -18t-4 -21q0 -20 12 -34t31.5 -25t45.5 -21t53 -22q90 -40 129 -99.5t39 -141.5q0 -50 -17 -92t-48 -73t-74.5 -48t-96.5 -17q-54 0 -98 17t-74.5 47t-47 71t-16.5 89q0 65 34 119.5
t97 83.5q-45 24 -66.5 61t-21.5 81q0 39 16 72t42 52q13 9 28 16t36.5 11t51 6t72.5 2q26 0 56 1.5t56 4.5zM242 379q-40 -29 -58 -69.5t-18 -101.5q0 -66 27.5 -102.5t79.5 -36.5t79.5 36.5t27.5 102.5q0 135 -138 171z" />
    <glyph glyph-name="glyph239" horiz-adv-x="431" 
d="M73 455q27 14 64.5 22t77.5 8q39 0 70 -10.5t52.5 -29.5t33 -44t11.5 -54q0 -33 -15 -56.5t-38.5 -40.5t-50.5 -30t-51 -25q-47 -23 -67 -39t-18 -38q2 -25 22.5 -36t52.5 -11q33 0 73.5 9.5t75.5 26.5l3 -88q-29 -12 -71.5 -21t-94.5 -9q-43 0 -78 14t-58 41
q-15 19 -23 43t-8 50q0 38 22.5 71t79.5 65q22 13 45.5 23.5t42.5 20.5t31.5 20.5t12.5 24.5q0 43 -70 43q-31 0 -62.5 -9t-60.5 -26z" />
    <glyph glyph-name="glyph240" 
d="M496 476v-50l-75 -24q27 -44 27 -97q0 -39 -14 -72.5t-40 -57.5t-63 -38t-82 -14q-36 0 -63 7l-39 -54q19 -2 46.5 -3t43.5 -2l43 -2q60 -3 95 -14.5t52 -28.5q16 -16 24.5 -41.5t6.5 -54.5q-5 -60 -56.5 -91.5t-167.5 -31.5q-63 0 -112 15q-42 14 -65 38t-23 59
q0 11 2.5 23t7.5 22l51 19q-30 9 -41 23t-11 37q0 29 33 69l41 48q-34 24 -51.5 61t-17.5 84q0 39 14.5 72t41 57t64 37.5t82.5 13.5q70 0 120 -33l21 24h105zM250 410q-36 0 -60 -25t-24 -81q0 -59 21.5 -83.5t62.5 -24.5q35 0 57.5 24.5t22.5 83.5q0 56 -22.5 81t-57.5 25
zM228 -30q-20 2 -41.5 2.5t-39.5 1.5q-4 -7 -6.5 -13.5t-2.5 -14.5q0 -32 25 -50t76 -18q34 0 56 4t35 10.5t18.5 15.5t5.5 19q0 19 -16 29t-64 12z" />
    <glyph glyph-name="glyph241" horiz-adv-x="536" 
d="M106 476l33 -71h1q8 13 20 25.5t24 20.5q26 18 56.5 26t62.5 8q45 0 82 -16t60 -45q23 -30 30.5 -68.5t7.5 -100.5v-255h-118v258q0 42 -2.5 67t-16.5 44q-11 16 -29.5 23.5t-38.5 7.5t-41 -7.5t-37 -27.5q-17 -20 -21.5 -48.5t-4.5 -81.5v-235h-118v476h50z" />
    <glyph glyph-name="glyph242" horiz-adv-x="811" 
d="M106 476l30 -71h1q8 13 20 25.5t23 20.5q26 18 54 26t59 8q42 0 80 -17t61 -52q27 35 66.5 52t84.5 17q42 0 77.5 -15.5t57.5 -44.5q23 -30 30.5 -69t7.5 -101v-255h-117v258q0 42 -2.5 67.5t-15.5 44.5q-11 16 -26.5 23t-34.5 7q-20 0 -39 -7.5t-34 -27.5
q-14 -18 -18.5 -43t-4.5 -67v-255h-117v258q0 42 -2.5 67.5t-15.5 44.5q-11 16 -26.5 23t-34.5 7q-20 0 -39 -7.5t-34 -27.5t-19 -48.5t-4 -81.5v-235h-118v476h50z" />
    </font>
</defs>
</svg>
